<?xml version="1.0" encoding="UTF-8" ?>
<!DOCTYPE svg PUBLIC "-//W3C//DTD SVG 1.1//EN" "http://www.w3.org/Graphics/SVG/1.1/DTD/svg11.dtd">
<svg width="1024pt"   height="1024pt" viewBox="0 0 1024 1024" version="1.1" xmlns="http://www.w3.org/2000/svg" shape-rendering="crispEdges">
<g id="#f9fafbff">
</g>
<g id="#dbebeaff">
<path fill="#dbebea" opacity="1.00" d=" M 319.99 104.75 C 451.66 104.65 583.34 104.71 715.01 104.67 C 731.81 104.78 748.61 105.74 765.32 107.54 C 780.13 110.16 794.91 113.45 808.90 119.08 C 834.49 129.05 857.08 146.61 873.12 168.90 C 885.06 185.05 892.58 204.26 896.14 223.96 C 898.77 240.52 899.20 257.32 899.09 274.05 C 899.13 353.02 899.14 432.00 899.23 510.97 C 898.91 534.81 899.60 558.66 898.87 582.48 C 894.57 576.14 887.61 571.94 880.43 569.64 C 876.96 569.77 873.35 570.25 870.02 568.92 C 866.50 564.11 864.72 558.25 862.01 552.97 C 856.35 542.92 849.16 533.34 839.27 527.13 C 835.88 525.14 831.95 523.71 829.45 520.55 C 828.77 515.34 828.31 510.10 827.25 504.94 C 826.52 491.98 821.52 479.83 817.34 467.69 C 815.54 460.95 812.12 454.81 809.48 448.39 C 806.31 443.49 804.59 437.76 800.83 433.25 C 796.49 426.95 792.68 420.20 787.01 414.96 C 781.75 408.58 775.15 403.53 769.76 397.28 C 763.45 391.58 757.63 385.38 752.18 378.87 C 749.20 375.54 745.85 372.54 743.18 368.94 C 738.59 362.88 732.36 358.41 727.01 353.10 C 721.82 347.45 715.62 342.65 708.68 339.36 C 704.11 337.59 699.46 336.07 694.98 334.10 C 690.51 332.12 685.54 332.21 680.87 331.05 C 677.67 330.32 674.32 329.28 671.05 330.28 C 669.26 330.50 667.25 331.80 665.59 330.48 C 662.37 328.34 659.51 325.69 656.07 323.89 C 653.41 322.77 653.18 319.52 651.23 317.73 C 648.26 315.66 644.40 315.59 641.38 313.65 C 638.05 309.95 634.63 306.32 631.58 302.39 C 627.35 299.04 621.52 298.86 617.01 295.97 C 613.60 293.78 609.88 292.18 606.04 290.91 C 602.79 289.84 600.61 287.02 597.74 285.31 C 594.45 283.11 590.42 282.78 586.77 281.51 C 586.50 281.85 586.24 282.20 585.99 282.55 C 581.40 280.75 576.32 281.94 571.66 280.43 C 568.80 279.66 565.83 278.40 564.30 275.70 C 555.48 262.11 543.04 251.30 529.74 242.24 C 518.16 235.67 505.71 229.14 492.06 229.15 C 487.53 229.85 482.93 229.75 478.45 228.77 C 478.60 228.31 478.89 227.39 479.04 226.93 C 480.26 221.49 476.20 216.14 472.02 213.08 C 467.84 209.83 462.39 210.15 457.43 210.55 C 454.90 205.43 452.17 200.06 447.39 196.67 C 439.19 191.14 427.74 191.00 419.44 196.40 C 415.84 198.56 413.85 202.33 411.38 205.56 C 407.70 205.83 403.88 204.91 400.33 206.35 C 395.31 207.84 392.26 212.38 389.01 216.14 C 384.61 213.87 380.11 211.23 375.02 211.15 C 367.12 210.58 358.27 215.21 356.09 223.19 C 355.77 224.38 355.00 226.93 357.09 226.88 C 364.37 227.72 371.72 226.66 379.03 227.17 C 403.21 227.00 427.40 227.20 451.58 227.20 C 458.94 228.87 466.50 227.55 473.96 228.24 C 473.65 228.59 473.05 229.29 472.74 229.64 C 465.85 229.84 459.56 232.93 453.10 234.98 C 445.52 237.46 439.44 242.73 432.46 246.37 C 427.52 250.45 422.16 254.07 417.70 258.71 C 406.40 270.71 397.05 284.29 387.69 297.79 C 385.83 300.63 384.57 303.83 382.48 306.52 C 379.54 310.00 375.36 312.09 372.13 315.24 C 371.64 316.44 371.63 317.77 371.45 319.04 C 370.78 319.47 370.12 319.91 369.46 320.36 C 369.10 322.34 368.74 324.32 368.37 326.30 C 363.98 327.07 359.42 327.46 355.33 329.34 C 352.47 330.64 354.05 334.12 354.11 336.46 C 354.92 336.08 355.73 335.70 356.55 335.33 C 356.51 337.65 354.68 339.16 353.21 340.70 C 353.13 338.01 352.96 335.30 352.12 332.73 C 350.47 327.16 347.73 321.53 342.58 318.44 C 338.70 315.66 333.75 316.27 329.26 316.03 C 328.13 309.26 325.65 302.30 320.06 297.93 C 312.56 291.53 300.78 290.73 292.77 296.66 C 287.88 299.65 285.51 305.03 282.83 309.83 C 277.80 308.54 272.36 307.38 267.36 309.45 C 261.22 311.30 256.78 316.23 253.86 321.74 C 249.56 319.44 244.49 317.87 239.73 319.79 C 231.02 322.63 226.40 331.97 226.21 340.67 C 257.81 340.90 289.41 340.72 321.01 340.80 C 330.49 340.92 340.00 340.21 349.46 341.21 C 344.66 342.96 339.43 341.20 334.61 342.79 C 330.03 344.22 325.19 345.35 321.34 348.38 C 315.68 352.75 309.27 356.12 304.21 361.23 C 297.73 367.40 290.17 372.31 282.08 376.10 C 273.94 379.78 267.72 386.36 260.62 391.57 C 254.21 395.29 248.82 400.43 242.80 404.71 C 233.96 412.50 223.83 419.44 217.78 429.81 C 215.92 432.37 219.29 434.51 219.86 436.92 C 218.98 439.99 216.27 442.02 214.46 444.53 C 205.84 457.23 197.19 470.09 191.32 484.36 C 190.09 487.03 189.60 490.21 187.54 492.42 C 182.43 496.36 177.31 500.30 171.94 503.90 C 167.09 507.12 164.87 512.77 160.76 516.73 C 155.93 521.23 153.82 527.71 149.64 532.72 C 145.22 537.91 143.48 544.58 140.73 550.67 C 138.75 555.12 137.96 559.96 136.48 564.57 C 135.97 566.49 134.18 567.53 132.68 568.63 C 128.90 570.98 126.60 574.93 123.23 577.77 C 122.41 545.86 123.02 513.90 122.82 481.97 C 122.78 434.30 122.85 386.64 122.82 338.97 C 123.02 315.95 122.58 292.93 122.96 269.91 C 122.96 247.61 124.05 224.82 131.51 203.59 C 138.13 183.14 150.55 164.80 166.16 150.12 C 180.41 135.37 198.52 124.74 217.67 117.67 C 232.49 111.85 248.20 108.73 263.97 106.91 C 282.60 105.29 301.29 104.50 319.99 104.75 M 660.87 225.91 C 654.37 231.01 651.09 238.97 648.72 246.65 C 640.14 243.23 629.54 245.47 623.70 252.79 C 618.33 259.53 618.30 268.63 618.10 276.82 C 661.04 277.58 703.99 276.70 746.93 277.15 C 756.89 277.04 766.86 277.49 776.80 276.75 C 777.11 265.78 768.06 255.05 756.98 254.11 C 751.87 253.36 746.93 255.08 742.04 256.27 C 739.05 250.11 733.91 245.19 727.68 242.39 C 721.66 239.94 714.87 240.13 708.83 242.37 C 705.97 235.17 701.96 227.86 694.97 223.93 C 684.72 217.42 670.31 218.24 660.87 225.91 Z" />
</g>
<g id="#fdfefdff">
<path fill="#fdfefd" opacity="1.00" d=" M 419.44 196.40 C 427.74 191.00 439.19 191.14 447.39 196.67 C 452.17 200.06 454.90 205.43 457.43 210.55 C 462.39 210.15 467.84 209.83 472.02 213.08 C 476.20 216.14 480.26 221.49 479.04 226.93 C 469.88 227.12 460.72 226.56 451.58 227.20 C 427.40 227.20 403.21 227.00 379.03 227.17 C 371.72 226.66 364.37 227.72 357.09 226.88 C 355.00 226.93 355.77 224.38 356.09 223.19 C 358.27 215.21 367.12 210.58 375.02 211.15 C 380.11 211.23 384.61 213.87 389.01 216.14 C 392.26 212.38 395.31 207.84 400.33 206.35 C 403.88 204.91 407.70 205.83 411.38 205.56 C 413.85 202.33 415.84 198.56 419.44 196.40 Z" />
<path fill="#fdfefd" opacity="1.00" d=" M 660.87 225.91 C 670.31 218.24 684.72 217.42 694.97 223.93 C 701.96 227.86 705.97 235.17 708.83 242.37 C 714.87 240.13 721.66 239.94 727.68 242.39 C 733.91 245.19 739.05 250.11 742.04 256.27 C 746.93 255.08 751.87 253.36 756.98 254.11 C 768.06 255.05 777.11 265.78 776.80 276.75 C 766.86 277.49 756.89 277.04 746.93 277.15 C 703.99 276.70 661.04 277.58 618.10 276.82 C 618.30 268.63 618.33 259.53 623.70 252.79 C 629.54 245.47 640.14 243.23 648.72 246.65 C 651.09 238.97 654.37 231.01 660.87 225.91 Z" />
</g>
<g id="#e0efecff">
<path fill="#e0efec" opacity="1.00" d=" M 451.58 227.20 C 460.72 226.56 469.88 227.12 479.04 226.93 C 478.89 227.39 478.60 228.31 478.45 228.77 C 482.93 229.75 487.53 229.85 492.06 229.15 C 505.71 229.14 518.16 235.67 529.74 242.24 C 543.04 251.30 555.48 262.11 564.30 275.70 C 565.83 278.40 568.80 279.66 571.66 280.43 C 576.32 281.94 581.40 280.75 585.99 282.55 C 586.24 282.20 586.50 281.85 586.77 281.51 C 590.42 282.78 594.45 283.11 597.74 285.31 C 600.61 287.02 602.79 289.84 606.04 290.91 C 609.88 292.18 613.60 293.78 617.01 295.97 C 621.52 298.86 627.35 299.04 631.58 302.39 C 634.63 306.32 638.05 309.95 641.38 313.65 C 644.40 315.59 648.26 315.66 651.23 317.73 C 653.18 319.52 653.41 322.77 656.07 323.89 C 659.51 325.69 662.37 328.34 665.59 330.48 C 667.25 331.80 669.26 330.50 671.05 330.28 C 674.32 329.28 677.67 330.32 680.87 331.05 C 685.54 332.21 690.51 332.12 694.98 334.10 C 699.46 336.07 704.11 337.59 708.68 339.36 C 715.62 342.65 721.82 347.45 727.01 353.10 C 732.36 358.41 738.59 362.88 743.18 368.94 C 745.85 372.54 749.20 375.54 752.18 378.87 C 757.63 385.38 763.45 391.58 769.76 397.28 C 775.15 403.53 781.75 408.58 787.01 414.96 C 792.68 420.20 796.49 426.95 800.83 433.25 C 804.59 437.76 806.31 443.49 809.48 448.39 C 812.12 454.81 815.54 460.95 817.34 467.69 C 821.52 479.83 826.52 491.98 827.25 504.94 C 828.31 510.10 828.77 515.34 829.45 520.55 C 831.95 523.71 835.88 525.14 839.27 527.13 C 849.16 533.34 856.35 542.92 862.01 552.97 C 864.72 558.25 866.50 564.11 870.02 568.92 C 873.35 570.25 876.96 569.77 880.43 569.64 C 887.61 571.94 894.57 576.14 898.87 582.48 C 899.73 584.84 899.06 587.51 899.19 589.99 C 899.23 606.98 898.85 623.98 899.20 640.98 C 899.35 642.81 898.80 644.58 897.99 646.21 C 890.04 638.76 882.62 630.76 875.40 622.61 C 870.46 616.93 866.28 610.58 863.45 603.59 C 860.29 595.76 856.14 588.39 851.79 581.17 C 849.26 577.03 845.33 573.69 840.63 572.35 C 835.05 570.74 829.46 568.80 824.83 565.20 C 819.45 560.98 813.35 557.47 809.15 551.96 C 806.28 548.18 803.44 544.35 799.93 541.14 C 795.73 537.00 789.61 535.72 785.39 531.61 C 779.36 526.51 777.39 518.47 772.56 512.45 C 767.15 505.58 760.58 499.68 755.61 492.45 C 751.14 485.95 746.65 479.27 744.28 471.67 C 743.49 469.54 742.95 467.24 741.53 465.42 C 738.10 461.80 732.92 460.18 729.98 456.03 C 726.86 451.68 728.07 445.64 724.70 441.45 C 721.06 436.94 717.93 432.02 714.05 427.71 C 711.82 427.69 710.50 429.58 709.23 431.12 C 704.96 436.51 701.41 442.56 696.01 446.96 C 691.25 450.82 686.78 455.08 683.05 459.95 C 678.38 465.99 680.63 474.61 675.70 480.57 C 670.80 485.92 664.09 489.56 657.06 491.27 C 655.26 491.27 652.93 492.22 651.77 490.33 C 648.10 485.97 644.35 481.70 640.40 477.60 C 634.32 470.11 626.82 463.90 621.14 456.07 C 612.46 444.38 604.71 431.92 594.68 421.29 C 588.72 414.54 580.31 410.12 575.80 402.10 C 570.35 392.63 567.26 382.05 562.97 372.05 C 559.76 363.84 555.62 356.05 551.88 348.08 C 549.05 341.99 545.27 336.25 540.10 331.88 C 537.84 329.88 535.11 328.14 533.88 325.27 C 531.60 320.31 529.54 315.17 526.19 310.81 C 524.19 308.05 519.84 309.00 517.94 306.11 C 514.07 301.41 513.78 295.06 511.39 289.67 C 509.79 285.85 507.09 282.67 504.43 279.57 C 500.31 274.83 496.44 269.88 492.13 265.30 C 488.98 268.37 486.75 272.17 484.17 275.68 C 480.57 279.95 478.35 285.16 476.00 290.17 C 475.18 291.53 474.29 292.86 473.60 294.29 C 470.85 300.53 467.18 306.44 462.23 311.16 C 458.52 314.85 454.63 318.58 452.35 323.38 C 449.93 328.34 448.33 333.69 445.44 338.43 C 441.21 345.95 434.17 351.34 429.72 358.69 C 424.62 366.94 420.54 375.78 416.58 384.62 C 411.80 396.36 405.82 407.58 399.57 418.60 C 396.45 424.34 391.43 428.63 387.51 433.78 C 388.03 435.14 388.57 436.51 389.09 437.89 C 386.22 438.91 382.60 438.98 380.68 441.67 C 378.04 445.12 374.55 447.70 370.97 450.08 C 361.76 456.80 353.82 466.93 353.40 478.71 C 351.48 478.47 350.80 476.58 350.00 475.11 C 346.37 467.78 341.13 461.41 335.61 455.43 C 331.72 449.92 329.51 443.39 325.42 437.99 C 323.81 435.39 321.84 438.31 321.08 439.96 C 316.75 447.99 310.19 454.45 303.68 460.72 C 298.09 466.18 295.26 473.60 291.24 480.14 C 287.39 486.46 281.44 491.02 276.57 496.47 C 271.78 501.77 269.72 508.85 265.50 514.53 C 262.34 518.23 257.62 519.97 253.58 522.50 C 246.90 526.26 241.66 532.04 237.21 538.19 C 233.84 542.89 231.82 548.58 227.61 552.66 C 226.28 553.84 224.02 555.11 222.46 553.61 C 220.22 551.87 218.17 549.92 215.94 548.18 C 208.77 552.34 203.50 558.88 197.46 564.43 C 192.85 569.61 190.03 576.18 185.03 581.07 C 179.07 586.79 172.30 591.66 166.93 597.99 C 163.72 601.32 161.68 605.51 159.78 609.68 C 156.86 616.00 153.31 621.99 149.78 627.99 C 147.77 631.49 144.51 633.96 141.72 636.78 C 137.89 640.49 134.49 644.67 131.78 649.27 C 129.76 652.64 125.90 653.70 122.53 655.17 C 123.08 644.13 123.10 633.06 122.89 622.01 C 122.86 608.67 122.95 595.34 122.87 582.01 C 122.95 580.59 122.73 579.10 123.23 577.77 C 126.60 574.93 128.90 570.98 132.68 568.63 C 134.18 567.53 135.97 566.49 136.48 564.57 C 137.96 559.96 138.75 555.12 140.73 550.67 C 143.48 544.58 145.22 537.91 149.64 532.72 C 153.82 527.71 155.93 521.23 160.76 516.73 C 164.87 512.77 167.09 507.12 171.94 503.90 C 177.31 500.30 182.43 496.36 187.54 492.42 C 189.60 490.21 190.09 487.03 191.32 484.36 C 197.19 470.09 205.84 457.23 214.46 444.53 C 216.27 442.02 218.98 439.99 219.86 436.92 C 219.29 434.51 215.92 432.37 217.78 429.81 C 223.83 419.44 233.96 412.50 242.80 404.71 C 248.82 400.43 254.21 395.29 260.62 391.57 C 267.72 386.36 273.94 379.78 282.08 376.10 C 290.17 372.31 297.73 367.40 304.21 361.23 C 309.27 356.12 315.68 352.75 321.34 348.38 C 325.19 345.35 330.03 344.22 334.61 342.79 C 339.43 341.20 344.66 342.96 349.46 341.21 C 350.02 341.06 351.15 340.75 351.71 340.60 C 351.91 337.98 352.11 335.35 352.12 332.73 C 352.96 335.30 353.13 338.01 353.21 340.70 C 354.68 339.16 356.51 337.65 356.55 335.33 C 355.73 335.70 354.92 336.08 354.11 336.46 C 354.05 334.12 352.47 330.64 355.33 329.34 C 359.42 327.46 363.98 327.07 368.37 326.30 C 368.74 324.32 369.10 322.34 369.46 320.36 C 370.12 319.91 370.78 319.47 371.45 319.04 C 371.63 317.77 371.64 316.44 372.13 315.24 C 375.36 312.09 379.54 310.00 382.48 306.52 C 384.57 303.83 385.83 300.63 387.69 297.79 C 397.05 284.29 406.40 270.71 417.70 258.71 C 422.16 254.07 427.52 250.45 432.46 246.37 C 439.44 242.73 445.52 237.46 453.10 234.98 C 459.56 232.93 465.85 229.84 472.74 229.64 C 473.05 229.29 473.65 228.59 473.96 228.24 C 466.50 227.55 458.94 228.87 451.58 227.20 M 653.63 354.56 C 650.85 356.45 650.01 359.88 648.76 362.81 C 645.68 362.84 642.06 362.15 639.68 364.63 C 636.46 366.98 635.60 371.14 635.99 374.90 C 645.32 375.74 654.69 374.80 664.04 375.14 C 676.05 374.80 688.05 375.18 700.06 374.86 C 700.03 371.53 697.96 368.29 694.80 367.11 C 691.49 365.63 687.82 366.49 684.37 366.84 C 682.96 365.20 681.77 363.11 679.62 362.38 C 677.11 361.60 674.46 362.02 671.91 362.13 C 670.90 359.62 670.22 356.78 668.07 354.96 C 664.12 351.53 657.77 351.37 653.63 354.56 Z" />
</g>
<g id="#2e424fff">
<path fill="#2e424f" opacity="1.00" d=" M 484.17 275.68 C 486.75 272.17 488.98 268.37 492.13 265.30 C 492.33 268.48 492.43 271.66 492.62 274.83 L 491.80 275.88 C 491.03 274.31 490.28 272.74 489.55 271.17 C 488.03 272.95 486.88 275.64 484.17 275.68 Z" />
</g>
<g id="#b0bdbdff">
<path fill="#b0bdbd" opacity="1.00" d=" M 492.13 265.30 C 496.44 269.88 500.31 274.83 504.43 279.57 C 507.09 282.67 509.79 285.85 511.39 289.67 C 513.78 295.06 514.07 301.41 517.94 306.11 C 519.84 309.00 524.19 308.05 526.19 310.81 C 529.54 315.17 531.60 320.31 533.88 325.27 C 535.11 328.14 537.84 329.88 540.10 331.88 C 545.27 336.25 549.05 341.99 551.88 348.08 C 555.62 356.05 559.76 363.84 562.97 372.05 C 567.26 382.05 570.35 392.63 575.80 402.10 C 580.31 410.12 588.72 414.54 594.68 421.29 C 604.71 431.92 612.46 444.38 621.14 456.07 C 626.82 463.90 634.32 470.11 640.40 477.60 C 644.35 481.70 648.10 485.97 651.77 490.33 C 652.93 492.22 655.26 491.27 657.06 491.27 C 654.21 492.00 651.16 492.83 649.15 495.14 C 645.79 498.77 642.90 503.05 638.37 505.36 C 632.88 508.16 628.07 512.22 624.46 517.22 C 618.05 511.60 610.10 508.29 602.76 504.14 C 596.46 500.48 589.81 497.41 583.89 493.15 C 580.26 490.76 576.86 488.04 573.24 485.66 C 571.93 484.64 569.86 486.30 570.71 487.88 C 572.38 494.43 576.55 500.08 581.52 504.56 C 587.14 509.63 591.72 515.72 595.87 522.02 C 597.20 523.86 597.62 526.12 597.72 528.35 C 592.66 522.77 585.66 519.69 579.56 515.48 C 567.56 508.98 556.41 501.03 544.38 494.59 C 539.62 492.13 537.05 487.22 533.71 483.27 C 530.87 479.40 527.35 476.01 524.86 471.89 C 524.44 456.28 524.96 440.63 524.81 425.01 C 524.92 423.69 524.19 422.60 523.36 421.68 C 513.91 410.98 504.88 399.91 495.38 389.26 C 494.98 387.88 494.63 386.47 494.76 385.04 C 495.84 372.55 496.90 359.95 495.33 347.45 C 494.57 336.13 489.38 325.48 490.11 314.01 C 489.75 305.34 491.93 296.95 493.56 288.52 C 495.14 283.96 493.54 279.33 492.62 274.83 C 492.43 271.66 492.33 268.48 492.13 265.30 M 531.92 351.73 C 531.29 358.05 533.13 364.36 535.76 370.05 C 539.19 376.03 539.35 383.30 538.49 389.97 C 537.74 394.82 533.48 397.62 530.35 400.92 C 529.93 406.99 535.51 410.82 539.01 414.98 C 543.65 419.78 544.21 426.78 547.46 432.39 C 551.19 438.55 552.70 445.94 557.62 451.39 C 562.45 457.46 570.17 459.71 576.62 463.52 C 583.60 467.60 588.74 474.03 595.43 478.49 C 602.79 483.51 610.34 488.87 619.37 490.23 C 620.33 486.92 618.74 483.68 617.09 480.89 C 613.86 475.56 611.01 469.88 606.59 465.40 C 601.90 460.69 597.21 455.95 593.32 450.54 C 588.98 444.63 581.85 442.12 576.21 437.78 C 569.83 433.10 564.46 426.81 561.76 419.30 C 559.57 413.32 554.91 408.87 550.88 404.13 C 547.41 400.29 545.29 395.45 543.63 390.61 C 542.56 385.13 543.58 379.52 543.31 373.99 C 543.10 369.65 543.61 364.84 540.89 361.13 C 538.29 357.67 535.57 354.13 531.92 351.73 Z" />
</g>
<g id="#2d506dff">
<path fill="#2d506d" opacity="1.00" d=" M 489.55 271.17 C 490.28 272.74 491.03 274.31 491.80 275.88 L 492.62 274.83 C 493.54 279.33 495.14 283.96 493.56 288.52 C 490.19 292.86 489.48 298.43 488.72 303.70 C 487.95 309.42 486.58 315.04 485.79 320.75 C 484.84 327.46 485.28 334.26 485.61 341.00 C 486.00 350.07 488.97 358.89 488.50 368.02 C 488.53 376.77 485.74 385.27 486.25 394.03 C 486.63 401.42 485.07 408.70 484.74 416.06 C 484.53 419.99 484.82 423.91 484.78 427.84 C 485.08 428.15 485.67 428.77 485.96 429.08 C 486.09 434.44 487.50 439.69 487.42 445.06 C 487.46 448.91 486.83 452.81 487.62 456.63 C 489.82 464.93 493.79 472.61 498.04 480.02 C 501.65 486.50 498.74 493.94 496.59 500.38 C 494.22 508.21 490.52 515.76 489.87 524.01 C 489.48 529.59 491.03 535.26 493.99 539.99 C 497.21 545.00 503.17 546.87 507.69 550.39 C 510.59 552.52 510.47 556.53 511.32 559.70 C 512.42 566.29 516.12 571.97 519.10 577.82 C 521.03 581.59 523.40 585.12 526.11 588.37 C 530.40 586.52 533.85 583.31 537.51 580.50 C 545.55 573.91 551.59 565.00 560.76 559.79 C 567.75 555.07 576.26 553.17 582.95 547.96 C 588.82 543.95 593.51 538.57 598.71 533.77 C 599.39 533.19 600.11 532.64 600.84 532.11 C 604.95 528.99 609.87 527.35 614.61 525.48 C 618.71 523.90 621.85 520.66 624.46 517.22 C 628.07 512.22 632.88 508.16 638.37 505.36 C 642.90 503.05 645.79 498.77 649.15 495.14 C 651.16 492.83 654.21 492.00 657.06 491.27 C 664.09 489.56 670.80 485.92 675.70 480.57 C 680.63 474.61 678.38 465.99 683.05 459.95 C 686.78 455.08 691.25 450.82 696.01 446.96 C 701.41 442.56 704.96 436.51 709.23 431.12 C 710.50 429.58 711.82 427.69 714.05 427.71 C 716.15 437.35 712.59 448.16 718.09 457.02 C 720.53 462.03 724.70 466.35 725.58 472.00 C 725.94 476.56 722.18 479.47 719.34 482.36 C 716.12 486.56 714.14 492.27 715.78 497.51 C 717.12 502.47 719.47 507.86 717.11 512.91 C 713.76 514.22 709.09 514.75 707.86 518.74 C 705.03 527.51 705.57 536.98 706.87 545.98 C 708.59 553.68 711.54 561.12 712.59 568.98 C 713.54 574.43 708.47 578.66 709.06 584.08 C 709.45 588.35 710.53 592.64 712.56 596.43 C 714.25 599.22 717.43 602.10 720.95 600.89 C 724.70 599.46 727.71 596.61 731.45 595.09 L 731.17 596.67 C 729.56 598.32 728.02 600.02 726.55 601.79 C 726.73 612.18 726.73 622.57 726.78 632.97 C 726.63 634.76 727.10 637.09 725.32 638.26 C 718.81 643.65 711.14 647.42 704.29 652.32 C 700.90 656.13 700.49 661.58 699.14 666.31 C 696.12 666.95 693.06 667.52 689.97 667.45 C 681.77 667.42 674.18 663.56 665.99 663.39 C 657.99 669.49 649.84 675.44 642.17 681.96 C 642.57 683.15 644.09 684.73 645.26 683.36 C 651.50 677.81 658.11 672.70 664.88 667.81 C 666.09 666.98 667.43 666.00 669.01 666.37 C 675.43 667.15 681.49 669.88 687.98 670.29 C 692.55 670.47 697.11 669.65 701.52 668.50 C 703.32 663.54 702.82 656.97 707.61 653.69 C 714.80 648.47 722.74 644.27 729.48 638.43 C 729.68 627.27 729.49 616.10 729.43 604.95 C 728.97 602.27 731.36 600.67 733.11 599.16 C 735.05 597.48 737.32 596.18 739.85 595.66 C 740.66 595.67 742.29 595.69 743.11 595.70 C 744.48 601.45 748.45 605.99 750.61 611.38 C 753.27 622.04 749.82 633.21 752.13 643.93 C 753.14 648.99 757.01 653.49 761.94 655.05 C 766.25 654.51 769.96 651.85 773.45 649.43 C 777.42 646.74 778.71 641.55 777.90 637.03 C 776.20 634.15 773.31 632.26 771.05 629.87 C 773.87 630.73 776.53 632.06 779.06 633.60 C 780.65 632.32 782.17 630.86 784.06 630.03 C 788.56 629.70 792.09 632.93 795.17 635.76 C 799.20 639.62 804.37 642.46 809.97 643.09 C 818.03 643.74 825.95 640.45 834.02 641.70 C 839.26 642.33 843.78 645.27 848.29 647.78 C 851.95 649.92 855.84 652.03 858.33 655.58 C 861.46 659.82 863.09 665.29 867.54 668.46 C 877.45 675.90 890.30 678.17 899.93 686.08 C 903.22 688.39 905.76 691.58 909.00 693.95 C 912.39 695.67 916.29 695.85 919.97 696.56 C 928.22 697.73 936.68 697.87 944.94 696.71 C 944.71 695.11 944.47 693.51 944.08 691.95 C 945.97 695.29 950.70 695.61 952.36 698.96 L 952.13 700.45 C 942.13 700.72 932.01 700.35 921.97 700.48 C 913.64 700.27 905.28 701.08 896.98 700.16 C 884.33 699.49 871.63 699.96 858.97 699.79 C 728.30 699.92 597.63 699.67 466.96 699.73 C 354.65 699.92 242.36 699.89 130.04 699.82 C 128.26 699.84 126.48 699.97 124.72 700.20 C 111.35 700.99 97.93 700.40 84.54 700.65 C 83.30 699.25 82.05 697.87 80.80 696.49 C 83.35 694.48 84.56 691.49 85.29 688.43 C 89.59 687.93 94.42 687.87 97.82 684.80 C 103.06 679.77 102.76 671.14 108.79 666.71 C 115.39 661.83 122.08 656.91 129.61 653.54 C 131.48 652.95 131.39 650.81 131.78 649.27 C 134.49 644.67 137.89 640.49 141.72 636.78 C 144.51 633.96 147.77 631.49 149.78 627.99 C 153.31 621.99 156.86 616.00 159.78 609.68 C 161.68 605.51 163.72 601.32 166.93 597.99 C 172.30 591.66 179.07 586.79 185.03 581.07 C 190.03 576.18 192.85 569.61 197.46 564.43 C 203.50 558.88 208.77 552.34 215.94 548.18 C 218.17 549.92 220.22 551.87 222.46 553.61 C 224.02 555.11 226.28 553.84 227.61 552.66 C 231.82 548.58 233.84 542.89 237.21 538.19 C 241.66 532.04 246.90 526.26 253.58 522.50 C 257.62 519.97 262.34 518.23 265.50 514.53 C 269.72 508.85 271.78 501.77 276.57 496.47 C 281.44 491.02 287.39 486.46 291.24 480.14 C 295.26 473.60 298.09 466.18 303.68 460.72 C 310.19 454.45 316.75 447.99 321.08 439.96 C 321.84 438.31 323.81 435.39 325.42 437.99 C 325.33 445.03 323.70 452.20 325.63 459.13 C 327.21 464.40 327.88 470.19 331.28 474.71 C 333.14 477.52 336.02 480.20 335.83 483.84 C 334.66 488.92 329.31 491.84 328.40 497.04 C 326.58 505.10 329.31 513.15 330.45 521.10 C 331.90 529.26 332.34 537.64 335.14 545.51 C 337.87 555.96 341.04 566.43 346.60 575.77 C 348.41 578.84 350.57 581.74 351.72 585.14 C 353.30 589.59 354.92 594.24 358.31 597.68 C 362.56 602.52 368.73 604.80 374.37 607.54 C 381.21 610.96 388.68 613.35 394.73 618.17 C 399.48 621.96 403.38 627.03 404.99 632.96 C 406.26 636.97 407.00 641.81 411.00 644.12 C 417.11 648.23 424.73 645.59 431.20 643.88 C 429.47 638.90 429.70 633.66 431.04 628.62 C 434.30 628.99 436.38 631.69 438.76 633.63 C 437.57 626.99 436.29 619.98 438.46 613.40 C 439.33 610.90 440.49 608.09 443.10 606.99 C 445.81 607.40 447.31 610.10 449.51 611.50 C 452.20 613.27 454.69 615.31 457.17 617.37 C 461.08 617.75 465.13 616.81 468.95 618.10 C 474.06 619.77 478.13 623.46 482.38 626.61 C 485.14 628.79 488.23 630.82 490.03 633.94 C 492.26 638.55 492.03 644.39 495.84 648.20 C 499.57 651.40 504.69 652.39 508.43 655.63 C 513.35 659.45 514.61 666.78 520.71 669.28 C 529.13 673.01 538.73 674.97 545.68 681.37 C 550.06 685.62 550.12 691.86 551.15 697.45 C 560.44 697.49 569.83 698.49 579.05 696.94 C 579.08 695.68 579.07 694.44 579.02 693.20 C 575.57 690.11 570.91 688.62 567.74 685.20 C 564.13 679.82 561.88 673.43 557.16 668.84 C 553.09 665.26 548.31 662.40 545.01 658.01 C 538.73 650.27 535.23 640.69 528.91 632.99 C 524.04 627.17 516.47 625.04 510.46 620.75 C 505.24 614.10 501.72 606.26 495.99 599.99 C 491.84 595.50 488.62 589.96 483.40 586.59 C 477.93 583.83 471.61 583.49 466.07 580.89 C 458.51 577.85 451.70 572.63 447.53 565.56 C 442.99 557.88 439.59 549.26 432.95 543.06 C 426.87 537.34 418.61 535.18 411.34 531.48 C 403.55 527.82 397.43 521.60 390.82 516.26 C 384.96 511.75 377.63 509.01 372.97 503.05 C 369.11 498.36 367.74 492.00 363.13 487.87 C 360.08 484.60 355.48 482.84 353.40 478.71 C 353.82 466.93 361.76 456.80 370.97 450.08 C 374.55 447.70 378.04 445.12 380.68 441.67 C 382.60 438.98 386.22 438.91 389.09 437.89 C 388.57 436.51 388.03 435.14 387.51 433.78 C 391.43 428.63 396.45 424.34 399.57 418.60 C 405.82 407.58 411.80 396.36 416.58 384.62 C 420.54 375.78 424.62 366.94 429.72 358.69 C 434.17 351.34 441.21 345.95 445.44 338.43 C 448.33 333.69 449.93 328.34 452.35 323.38 C 454.63 318.58 458.52 314.85 462.23 311.16 C 467.18 306.44 470.85 300.53 473.60 294.29 C 473.83 331.55 473.58 368.81 473.85 406.06 C 474.96 424.72 473.53 443.40 473.85 462.07 C 477.65 465.32 481.03 469.01 484.49 472.61 C 486.20 473.97 487.47 470.94 486.10 469.94 C 482.85 466.73 479.63 463.49 476.40 460.26 C 476.70 431.50 476.60 402.73 476.50 373.96 C 476.27 346.03 476.94 318.09 476.00 290.17 C 478.35 285.16 480.57 279.95 484.17 275.68 C 486.88 275.64 488.03 272.95 489.55 271.17 M 457.33 341.96 C 457.68 361.39 457.34 380.84 457.47 400.27 C 451.56 406.11 445.20 411.51 439.32 417.39 C 438.58 419.13 438.90 421.11 438.84 422.96 C 439.17 430.97 439.49 439.01 439.07 447.02 C 437.38 449.44 434.34 450.45 432.03 452.18 C 426.34 456.17 420.16 459.44 414.53 463.49 C 413.21 464.82 414.65 466.10 415.88 466.72 C 423.96 459.84 433.61 455.10 441.93 448.53 C 443.05 448.94 444.17 449.36 445.30 449.78 C 445.61 450.98 445.93 452.18 446.26 453.39 C 446.72 453.47 447.63 453.65 448.09 453.73 C 446.57 457.13 441.80 457.87 441.14 461.66 C 437.66 464.35 433.38 465.86 430.13 468.84 C 430.90 469.64 431.68 470.43 432.47 471.23 C 438.75 465.98 445.98 462.01 452.56 457.17 C 452.24 446.45 452.60 435.72 452.45 425.00 C 452.58 422.95 452.11 420.38 454.00 418.95 C 456.98 416.17 459.62 413.06 462.24 409.94 C 463.01 409.72 464.54 409.27 465.30 409.05 L 465.67 409.83 C 466.05 409.38 466.81 408.48 467.20 408.03 C 466.33 405.39 464.36 403.73 461.55 403.56 C 463.17 394.81 461.67 385.83 462.18 376.98 C 461.73 365.20 463.22 353.09 460.33 341.58 C 460.61 339.59 461.33 335.53 457.90 336.73 C 455.12 336.94 457.13 340.40 457.33 341.96 M 448.40 341.51 C 448.94 344.65 449.34 347.83 449.26 351.03 C 449.18 359.38 449.47 367.74 449.17 376.09 C 448.31 378.08 446.66 379.57 445.21 381.14 C 441.16 385.16 437.29 389.37 432.96 393.10 C 432.21 393.88 431.01 394.62 431.23 395.90 C 431.28 408.86 431.17 421.83 431.26 434.80 C 423.74 439.06 416.76 444.22 408.96 447.99 C 400.67 455.06 393.99 463.94 385.18 470.44 C 385.79 471.65 386.21 473.31 387.96 472.97 C 395.06 465.74 401.84 458.17 409.25 451.25 C 411.78 449.22 414.90 448.16 417.65 446.48 C 422.51 443.83 426.91 440.44 431.70 437.68 C 432.60 436.98 434.11 436.54 434.16 435.17 C 433.60 422.15 433.84 409.11 433.92 396.07 C 438.75 392.20 442.71 387.40 447.15 383.10 C 449.17 380.72 452.17 378.45 452.10 375.01 C 452.24 367.00 452.24 358.97 451.82 350.96 C 451.63 347.76 452.06 344.58 452.54 341.42 C 451.16 341.41 449.77 341.44 448.40 341.51 M 461.96 425.10 C 462.85 440.37 462.05 455.69 462.31 470.99 C 462.06 476.99 462.67 483.04 461.70 489.01 C 462.09 490.89 465.10 491.08 465.45 489.10 C 465.23 487.07 464.74 485.07 464.77 483.02 C 464.93 466.01 465.28 449.02 464.81 432.01 C 464.62 429.54 465.18 427.12 465.95 424.79 C 464.61 424.88 463.28 424.98 461.96 425.10 M 297.62 526.83 C 301.67 531.60 305.95 536.23 309.58 541.34 C 310.10 544.54 309.69 547.81 309.68 551.04 C 309.48 568.69 309.33 586.33 309.27 603.98 C 309.34 606.81 308.91 609.71 309.49 612.50 C 314.76 617.05 321.10 620.14 326.73 624.22 C 331.48 627.76 336.95 630.42 341.04 634.79 C 341.94 634.08 344.01 632.57 342.63 631.35 C 339.71 628.82 336.10 627.25 333.02 624.93 C 326.18 619.89 318.81 615.65 311.78 610.90 C 312.64 587.60 311.87 564.21 313.06 540.94 C 309.56 535.19 304.18 530.73 301.03 524.73 C 299.50 524.02 297.64 525.12 297.62 526.83 M 689.71 533.73 C 685.49 536.92 680.75 539.32 676.38 542.28 C 675.45 543.03 673.98 543.59 673.91 544.98 C 673.61 553.00 673.85 561.05 673.78 569.09 C 674.05 571.19 672.44 572.72 671.13 574.11 C 666.82 578.49 662.80 583.16 658.34 587.38 C 653.44 591.59 647.68 594.62 642.69 598.72 C 641.61 604.59 640.50 611.55 634.80 614.80 C 635.62 615.87 636.45 616.95 637.28 618.04 C 638.75 615.96 641.18 614.66 642.33 612.35 C 643.43 608.40 644.05 604.31 645.55 600.48 C 651.33 595.26 658.58 591.75 663.90 585.95 C 667.82 581.80 671.63 577.55 675.58 573.44 C 677.13 572.04 676.59 569.82 676.71 567.99 C 676.53 560.63 676.81 553.27 676.59 545.91 C 680.85 542.23 685.84 539.56 690.57 536.56 C 691.94 535.60 693.61 534.77 694.16 533.06 C 692.83 531.27 691.01 532.80 689.71 533.73 M 319.48 537.62 C 321.17 542.92 320.53 548.54 321.03 554.00 C 322.15 572.44 322.61 590.91 323.47 609.36 C 331.23 615.13 339.58 620.06 347.76 625.21 C 352.25 628.32 357.87 627.03 362.94 627.28 C 365.19 627.97 366.45 630.26 368.11 631.79 C 370.71 634.91 374.18 637.38 376.14 640.98 C 376.45 647.00 376.05 653.04 376.28 659.08 C 373.04 654.08 369.06 649.54 366.41 644.19 C 365.05 644.06 363.09 644.11 363.12 645.98 C 367.65 651.45 371.50 657.44 375.86 663.05 C 379.04 666.52 376.48 671.51 377.50 675.62 C 379.27 678.40 381.56 680.83 383.43 683.55 C 385.42 684.91 387.97 684.91 390.26 685.33 C 390.27 684.73 390.30 683.52 390.31 682.92 C 389.96 680.56 387.40 681.60 385.83 681.52 C 383.94 679.33 381.89 677.21 380.44 674.69 C 379.75 671.83 380.57 668.88 380.46 665.99 C 380.36 663.89 378.69 662.15 378.84 660.04 C 379.33 654.03 379.13 648.01 379.18 642.00 C 379.51 638.39 376.19 636.31 374.12 633.91 C 370.87 630.83 368.44 626.83 364.59 624.44 C 359.30 623.63 353.27 625.86 348.64 622.31 C 341.26 617.35 333.42 613.00 326.25 607.79 C 325.32 584.64 324.52 561.48 323.49 538.35 C 322.96 536.49 320.80 537.65 319.48 537.62 M 666.93 592.92 C 658.29 602.31 648.43 610.77 641.91 621.90 C 637.76 619.47 633.86 616.66 629.75 614.20 C 627.62 612.54 625.42 614.38 623.84 615.82 C 615.93 623.37 611.10 633.59 602.88 640.84 C 594.79 648.77 586.69 656.72 578.60 664.66 C 575.73 667.65 572.76 670.56 569.54 673.18 C 570.35 674.15 571.16 675.11 571.98 676.09 C 576.88 670.60 581.93 665.26 587.25 660.19 C 594.56 653.26 601.36 645.76 609.04 639.23 C 611.13 640.37 612.98 641.91 614.83 643.42 C 621.77 636.37 626.36 627.43 632.80 619.95 C 635.73 621.88 638.49 624.32 641.95 625.24 C 644.18 624.12 645.41 621.83 646.83 619.89 C 651.21 613.08 657.22 607.57 662.57 601.56 C 669.83 594.28 676.79 586.68 684.54 579.91 C 683.72 579.11 682.91 578.33 682.11 577.56 C 677.20 582.82 672.05 587.86 666.93 592.92 M 737.04 618.79 C 737.47 627.16 737.03 635.55 737.46 643.92 C 726.41 653.15 714.72 661.60 703.31 670.36 C 699.09 673.64 694.88 677.04 690.16 679.59 C 689.94 681.35 691.18 682.26 692.81 682.60 C 693.91 681.42 695.03 680.25 696.29 679.24 C 709.09 669.74 721.64 659.90 734.37 650.31 C 736.38 648.64 738.86 647.26 740.12 644.90 C 740.61 636.34 739.37 627.70 740.84 619.21 C 739.85 617.90 738.33 618.41 737.04 618.79 M 392.08 670.76 C 393.59 671.21 395.10 671.65 396.63 672.09 C 397.10 669.79 396.49 667.84 393.97 667.67 C 392.34 667.65 392.65 669.74 392.08 670.76 M 397.60 669.30 C 397.46 669.95 397.19 671.26 397.05 671.91 C 405.68 679.62 414.85 686.85 423.30 694.80 C 424.04 693.92 424.77 693.03 425.51 692.16 C 418.09 686.08 410.44 680.26 403.50 673.62 C 401.74 671.92 399.70 670.54 397.60 669.30 Z" />
</g>
<g id="#538095ff">
<path fill="#538095" opacity="1.00" d=" M 488.72 303.70 C 489.48 298.43 490.19 292.86 493.56 288.52 C 491.93 296.95 489.75 305.34 490.11 314.01 C 489.38 325.48 494.57 336.13 495.33 347.45 C 496.90 359.95 495.84 372.55 494.76 385.04 C 494.63 386.47 494.98 387.88 495.38 389.26 C 494.46 390.83 494.28 392.64 494.28 394.42 C 488.08 404.77 485.18 417.06 485.96 429.08 C 485.67 428.77 485.08 428.15 484.78 427.84 C 484.82 423.91 484.53 419.99 484.74 416.06 C 485.07 408.70 486.63 401.42 486.25 394.03 C 485.74 385.27 488.53 376.77 488.50 368.02 C 488.97 358.89 486.00 350.07 485.61 341.00 C 485.28 334.26 484.84 327.46 485.79 320.75 C 486.58 315.04 487.95 309.42 488.72 303.70 Z" />
</g>
<g id="#7ad5eaff">
<path fill="#7ad5ea" opacity="1.00" d=" M 473.60 294.29 C 474.29 292.86 475.18 291.53 476.00 290.17 C 476.94 318.09 476.27 346.03 476.50 373.96 C 476.60 402.73 476.70 431.50 476.40 460.26 C 479.63 463.49 482.85 466.73 486.10 469.94 C 487.47 470.94 486.20 473.97 484.49 472.61 C 481.03 469.01 477.65 465.32 473.85 462.07 C 473.53 443.40 474.96 424.72 473.85 406.06 C 473.58 368.81 473.83 331.55 473.60 294.29 Z" />
</g>
<g id="#fdfdfdff">
<path fill="#fdfdfd" opacity="1.00" d=" M 292.77 296.66 C 300.78 290.73 312.56 291.53 320.06 297.93 C 325.65 302.30 328.13 309.26 329.26 316.03 C 333.75 316.27 338.70 315.66 342.58 318.44 C 347.73 321.53 350.47 327.16 352.12 332.73 C 352.11 335.35 351.91 337.98 351.71 340.60 C 351.15 340.75 350.02 341.06 349.46 341.21 C 340.00 340.21 330.49 340.92 321.01 340.80 C 289.41 340.72 257.81 340.90 226.21 340.67 C 226.40 331.97 231.02 322.63 239.73 319.79 C 244.49 317.87 249.56 319.44 253.86 321.74 C 256.78 316.23 261.22 311.30 267.36 309.45 C 272.36 307.38 277.80 308.54 282.83 309.83 C 285.51 305.03 287.88 299.65 292.77 296.66 Z" />
<path fill="#fdfdfd" opacity="1.00" d=" M 653.63 354.56 C 657.77 351.37 664.12 351.53 668.07 354.96 C 670.22 356.78 670.90 359.62 671.91 362.13 C 674.46 362.02 677.11 361.60 679.62 362.38 C 681.77 363.11 682.96 365.20 684.37 366.84 C 687.82 366.49 691.49 365.63 694.80 367.11 C 697.96 368.29 700.03 371.53 700.06 374.86 C 688.05 375.18 676.05 374.80 664.04 375.14 C 654.69 374.80 645.32 375.74 635.99 374.90 C 635.60 371.14 636.46 366.98 639.68 364.63 C 642.06 362.15 645.68 362.84 648.76 362.81 C 650.01 359.88 650.85 356.45 653.63 354.56 Z" />
</g>
<g id="#6fcae3ff">
<path fill="#6fcae3" opacity="1.00" d=" M 457.33 341.96 C 457.13 340.40 455.12 336.94 457.90 336.73 C 461.33 335.53 460.61 339.59 460.33 341.58 C 460.18 361.75 460.46 381.93 460.33 402.10 C 454.03 407.66 447.85 413.34 441.71 419.07 C 441.78 428.89 441.74 438.71 441.93 448.53 C 433.61 455.10 423.96 459.84 415.88 466.72 C 414.65 466.10 413.21 464.82 414.53 463.49 C 420.16 459.44 426.34 456.17 432.03 452.18 C 434.34 450.45 437.38 449.44 439.07 447.02 C 439.49 439.01 439.17 430.97 438.84 422.96 C 438.90 421.11 438.58 419.13 439.32 417.39 C 445.20 411.51 451.56 406.11 457.47 400.27 C 457.34 380.84 457.68 361.39 457.33 341.96 Z" />
</g>
<g id="#70cce2ff">
<path fill="#70cce2" opacity="1.00" d=" M 448.40 341.51 C 449.77 341.44 451.16 341.41 452.54 341.42 C 452.06 344.58 451.63 347.76 451.82 350.96 C 452.24 358.97 452.24 367.00 452.10 375.01 C 452.17 378.45 449.17 380.72 447.15 383.10 C 442.71 387.40 438.75 392.20 433.92 396.07 C 433.84 409.11 433.60 422.15 434.16 435.17 C 434.11 436.54 432.60 436.98 431.70 437.68 C 426.91 440.44 422.51 443.83 417.65 446.48 C 414.90 448.16 411.78 449.22 409.25 451.25 C 401.84 458.17 395.06 465.74 387.96 472.97 C 386.21 473.31 385.79 471.65 385.18 470.44 C 393.99 463.94 400.67 455.06 408.96 447.99 C 416.76 444.22 423.74 439.06 431.26 434.80 C 431.17 421.83 431.28 408.86 431.23 395.90 C 431.01 394.62 432.21 393.88 432.96 393.10 C 437.29 389.37 441.16 385.16 445.21 381.14 C 446.66 379.57 448.31 378.08 449.17 376.09 C 449.47 367.74 449.18 359.38 449.26 351.03 C 449.34 347.83 448.94 344.65 448.40 341.51 Z" />
</g>
<g id="#214e6bff">
<path fill="#214e6b" opacity="1.00" d=" M 460.33 341.58 C 463.22 353.09 461.73 365.20 462.18 376.98 C 461.67 385.83 463.17 394.81 461.55 403.56 C 464.36 403.73 466.33 405.39 467.20 408.03 C 466.81 408.48 466.05 409.38 465.67 409.83 L 465.30 409.05 C 464.72 407.81 463.98 406.66 463.19 405.56 C 458.52 409.87 453.89 414.23 449.66 418.97 C 449.81 431.28 449.58 443.59 449.86 455.90 C 447.00 457.89 444.07 459.77 441.14 461.66 C 441.80 457.87 446.57 457.13 448.09 453.73 C 447.63 453.65 446.72 453.47 446.26 453.39 C 445.93 452.18 445.61 450.98 445.30 449.78 C 444.17 449.36 443.05 448.94 441.93 448.53 C 441.74 438.71 441.78 428.89 441.71 419.07 C 447.85 413.34 454.03 407.66 460.33 402.10 C 460.46 381.93 460.18 361.75 460.33 341.58 Z" />
</g>
<g id="#568398ff">
<path fill="#568398" opacity="1.00" d=" M 531.92 351.73 C 535.57 354.13 538.29 357.67 540.89 361.13 C 543.61 364.84 543.10 369.65 543.31 373.99 C 543.58 379.52 542.56 385.13 543.63 390.61 C 545.29 395.45 547.41 400.29 550.88 404.13 C 554.91 408.87 559.57 413.32 561.76 419.30 C 564.46 426.81 569.83 433.10 576.21 437.78 C 581.85 442.12 588.98 444.63 593.32 450.54 C 597.21 455.95 601.90 460.69 606.59 465.40 C 611.01 469.88 613.86 475.56 617.09 480.89 C 618.74 483.68 620.33 486.92 619.37 490.23 C 610.34 488.87 602.79 483.51 595.43 478.49 C 588.74 474.03 583.60 467.60 576.62 463.52 C 570.17 459.71 562.45 457.46 557.62 451.39 C 552.70 445.94 551.19 438.55 547.46 432.39 C 544.21 426.78 543.65 419.78 539.01 414.98 C 535.51 410.82 529.93 406.99 530.35 400.92 C 533.48 397.62 537.74 394.82 538.49 389.97 C 539.35 383.30 539.19 376.03 535.76 370.05 C 533.13 364.36 531.29 358.05 531.92 351.73 Z" />
</g>
<g id="#43687bff">
<path fill="#43687b" opacity="1.00" d=" M 494.28 394.42 C 494.28 392.64 494.46 390.83 495.38 389.26 C 504.88 399.91 513.91 410.98 523.36 421.68 C 524.19 422.60 524.92 423.69 524.81 425.01 C 524.96 440.63 524.44 456.28 524.86 471.89 C 527.35 476.01 530.87 479.40 533.71 483.27 C 537.05 487.22 539.62 492.13 544.38 494.59 C 556.41 501.03 567.56 508.98 579.56 515.48 C 585.66 519.69 592.66 522.77 597.72 528.35 C 598.78 529.58 599.80 530.85 600.84 532.11 C 600.11 532.64 599.39 533.19 598.71 533.77 C 587.41 524.90 574.79 517.95 562.68 510.31 C 555.37 506.45 548.71 501.53 541.43 497.64 C 537.15 495.34 534.73 490.99 531.72 487.39 C 528.39 483.02 524.57 479.05 521.26 474.67 C 519.73 472.79 520.43 470.23 520.35 468.03 C 520.61 454.65 520.54 441.27 520.58 427.90 C 520.76 426.10 520.02 424.47 518.83 423.18 C 510.85 413.42 502.37 404.09 494.28 394.42 Z" />
</g>
<g id="#b0bebdff">
<path fill="#b0bebd" opacity="1.00" d=" M 485.96 429.08 C 485.18 417.06 488.08 404.77 494.28 394.42 C 502.37 404.09 510.85 413.42 518.83 423.18 C 520.02 424.47 520.76 426.10 520.58 427.90 C 520.54 441.27 520.61 454.65 520.35 468.03 C 520.43 470.23 519.73 472.79 521.26 474.67 C 524.57 479.05 528.39 483.02 531.72 487.39 C 534.73 490.99 537.15 495.34 541.43 497.64 C 548.71 501.53 555.37 506.45 562.68 510.31 C 574.79 517.95 587.41 524.90 598.71 533.77 C 593.51 538.57 588.82 543.95 582.95 547.96 C 579.76 545.55 576.24 543.50 573.59 540.46 C 567.78 533.87 563.44 526.05 556.90 520.08 C 548.05 511.46 536.24 506.95 526.68 499.27 C 520.35 494.04 518.34 485.69 513.92 479.06 C 507.15 468.92 499.27 459.54 492.81 449.18 C 489.69 443.25 486.03 436.78 487.16 429.83 C 486.86 429.65 486.26 429.27 485.96 429.08 Z" />
</g>
<g id="#72c9e2ff">
<path fill="#72c9e2" opacity="1.00" d=" M 449.66 418.97 C 453.89 414.23 458.52 409.87 463.19 405.56 C 463.98 406.66 464.72 407.81 465.30 409.05 C 464.54 409.27 463.01 409.72 462.24 409.94 C 459.62 413.06 456.98 416.17 454.00 418.95 C 452.11 420.38 452.58 422.95 452.45 425.00 C 452.60 435.72 452.24 446.45 452.56 457.17 C 445.98 462.01 438.75 465.98 432.47 471.23 C 431.68 470.43 430.90 469.64 430.13 468.84 C 433.38 465.86 437.66 464.35 441.14 461.66 C 444.07 459.77 447.00 457.89 449.86 455.90 C 449.58 443.59 449.81 431.28 449.66 418.97 Z" />
</g>
<g id="#74cae3ff">
<path fill="#74cae3" opacity="1.00" d=" M 461.96 425.10 C 463.28 424.98 464.61 424.88 465.95 424.79 C 465.18 427.12 464.62 429.54 464.81 432.01 C 465.28 449.02 464.93 466.01 464.77 483.02 C 464.74 485.07 465.23 487.07 465.45 489.10 C 465.10 491.08 462.09 490.89 461.70 489.01 C 462.67 483.04 462.06 476.99 462.31 470.99 C 462.05 455.69 462.85 440.37 461.96 425.10 Z" />
<path fill="#74cae3" opacity="1.00" d=" M 738.08 580.79 C 744.59 583.39 751.26 586.69 755.55 592.45 C 757.85 595.63 761.58 597.13 764.54 599.55 C 766.18 601.70 762.70 604.48 760.73 603.37 C 758.67 601.08 756.96 598.45 754.56 596.47 C 750.69 592.43 744.55 594.46 739.85 595.66 C 737.32 596.18 735.05 597.48 733.11 599.16 C 731.36 600.67 728.97 602.27 729.43 604.95 C 729.49 616.10 729.68 627.27 729.48 638.43 C 722.74 644.27 714.80 648.47 707.61 653.69 C 702.82 656.97 703.32 663.54 701.52 668.50 C 697.11 669.65 692.55 670.47 687.98 670.29 C 681.49 669.88 675.43 667.15 669.01 666.37 C 667.43 666.00 666.09 666.98 664.88 667.81 C 658.11 672.70 651.50 677.81 645.26 683.36 C 644.09 684.73 642.57 683.15 642.17 681.96 C 649.84 675.44 657.99 669.49 665.99 663.39 C 674.18 663.56 681.77 667.42 689.97 667.45 C 693.06 667.52 696.12 666.95 699.14 666.31 C 700.49 661.58 700.90 656.13 704.29 652.32 C 711.14 647.42 718.81 643.65 725.32 638.26 C 727.10 637.09 726.63 634.76 726.78 632.97 C 726.73 622.57 726.73 612.18 726.55 601.79 C 728.02 600.02 729.56 598.32 731.17 596.67 C 733.16 595.21 735.09 593.56 737.41 592.65 C 742.07 593.73 746.86 593.52 751.62 593.43 C 748.43 588.23 742.48 585.98 737.04 583.94 C 737.38 582.88 737.73 581.83 738.08 580.79 Z" />
</g>
<g id="#afbcbcff">
<path fill="#afbcbc" opacity="1.00" d=" M 714.05 427.71 C 717.93 432.02 721.06 436.94 724.70 441.45 C 728.07 445.64 726.86 451.68 729.98 456.03 C 732.92 460.18 738.10 461.80 741.53 465.42 C 742.95 467.24 743.49 469.54 744.28 471.67 C 746.65 479.27 751.14 485.95 755.61 492.45 C 760.58 499.68 767.15 505.58 772.56 512.45 C 777.39 518.47 779.36 526.51 785.39 531.61 C 789.61 535.72 795.73 537.00 799.93 541.14 C 803.44 544.35 806.28 548.18 809.15 551.96 C 813.35 557.47 819.45 560.98 824.83 565.20 C 829.46 568.80 835.05 570.74 840.63 572.35 C 845.33 573.69 849.26 577.03 851.79 581.17 C 856.14 588.39 860.29 595.76 863.45 603.59 C 866.28 610.58 870.46 616.93 875.40 622.61 C 882.62 630.76 890.04 638.76 897.99 646.21 C 902.07 650.32 904.33 655.76 907.71 660.40 C 910.21 664.02 913.10 667.47 914.81 671.57 C 907.80 668.62 901.36 664.30 896.26 658.64 C 889.02 650.64 882.95 640.78 872.73 636.25 C 864.09 631.50 854.38 628.57 846.61 622.35 C 841.95 618.13 840.13 611.77 835.89 607.22 C 832.30 603.70 827.08 602.81 823.13 599.84 C 820.20 597.81 818.14 594.80 816.56 591.66 C 813.45 584.97 810.37 578.15 805.65 572.42 C 801.89 567.80 798.18 563.13 794.32 558.60 C 790.46 554.06 785.37 550.87 780.53 547.50 C 774.23 543.16 770.38 536.19 764.11 531.82 C 757.70 527.30 751.69 521.11 743.35 520.75 C 744.84 523.29 746.58 525.75 747.48 528.59 C 748.75 532.28 748.99 536.43 751.22 539.74 C 753.92 542.12 757.34 543.51 760.07 545.90 C 766.86 551.74 773.71 557.55 780.19 563.74 C 784.22 569.26 784.22 576.49 784.98 583.01 C 785.38 587.10 788.68 589.95 790.79 593.23 C 793.35 597.13 796.13 600.87 799.15 604.44 C 802.26 608.49 806.00 612.93 805.06 618.44 C 791.62 616.02 782.35 605.02 772.90 596.13 C 764.02 588.66 754.71 581.22 743.62 577.34 C 741.85 576.61 739.46 576.15 739.25 573.85 C 735.81 560.34 738.10 546.09 734.35 532.64 C 733.56 530.05 731.21 528.39 730.00 526.04 C 730.21 521.02 731.98 516.01 730.91 510.98 C 729.48 508.98 727.42 511.11 727.83 512.92 C 726.75 523.24 726.21 533.68 727.27 544.04 C 727.22 550.40 730.38 558.28 725.13 563.36 C 721.47 558.95 718.70 553.91 716.35 548.71 C 713.63 542.83 709.59 536.74 711.13 529.94 C 712.63 524.11 715.16 518.60 717.11 512.91 C 719.47 507.86 717.12 502.47 715.78 497.51 C 714.14 492.27 716.12 486.56 719.34 482.36 C 722.18 479.47 725.94 476.56 725.58 472.00 C 724.70 466.35 720.53 462.03 718.09 457.02 C 712.59 448.16 716.15 437.35 714.05 427.71 Z" />
</g>
<g id="#5a879dff">
<path fill="#5a879d" opacity="1.00" d=" M 485.96 429.08 C 486.26 429.27 486.86 429.65 487.16 429.83 C 486.03 436.78 489.69 443.25 492.81 449.18 C 499.27 459.54 507.15 468.92 513.92 479.06 C 518.34 485.69 520.35 494.04 526.68 499.27 C 536.24 506.95 548.05 511.46 556.90 520.08 C 563.44 526.05 567.78 533.87 573.59 540.46 C 576.24 543.50 579.76 545.55 582.95 547.96 C 576.26 553.17 567.75 555.07 560.76 559.79 C 551.59 565.00 545.55 573.91 537.51 580.50 C 533.85 583.31 530.40 586.52 526.11 588.37 C 523.40 585.12 521.03 581.59 519.10 577.82 C 516.12 571.97 512.42 566.29 511.32 559.70 C 510.47 556.53 510.59 552.52 507.69 550.39 C 503.17 546.87 497.21 545.00 493.99 539.99 C 491.03 535.26 489.48 529.59 489.87 524.01 C 490.52 515.76 494.22 508.21 496.59 500.38 C 498.74 493.94 501.65 486.50 498.04 480.02 C 493.79 472.61 489.82 464.93 487.62 456.63 C 486.83 452.81 487.46 448.91 487.42 445.06 C 487.50 439.69 486.09 434.44 485.96 429.08 Z" />
</g>
<g id="#b0bdbeff">
<path fill="#b0bdbe" opacity="1.00" d=" M 325.42 437.99 C 329.51 443.39 331.72 449.92 335.61 455.43 C 341.13 461.41 346.37 467.78 350.00 475.11 C 350.80 476.58 351.48 478.47 353.40 478.71 C 355.48 482.84 360.08 484.60 363.13 487.87 C 367.74 492.00 369.11 498.36 372.97 503.05 C 377.63 509.01 384.96 511.75 390.82 516.26 C 397.43 521.60 403.55 527.82 411.34 531.48 C 418.61 535.18 426.87 537.34 432.95 543.06 C 439.59 549.26 442.99 557.88 447.53 565.56 C 451.70 572.63 458.51 577.85 466.07 580.89 C 471.61 583.49 477.93 583.83 483.40 586.59 C 488.62 589.96 491.84 595.50 495.99 599.99 C 501.72 606.26 505.24 614.10 510.46 620.75 C 508.07 621.22 505.83 620.06 503.69 619.17 C 496.76 616.14 490.99 611.08 484.25 607.72 C 480.47 606.04 476.53 604.75 472.63 603.40 C 468.75 602.03 464.38 601.56 461.15 598.82 C 458.25 596.46 455.82 593.07 451.95 592.32 C 448.33 591.92 444.66 592.50 441.07 591.74 C 437.07 590.95 432.93 591.16 429.03 592.35 C 430.68 601.11 435.40 609.44 434.12 618.58 C 428.27 617.57 424.13 612.90 419.59 609.49 C 415.15 605.75 408.80 602.61 408.39 596.06 C 407.12 590.58 409.83 585.22 414.44 582.28 C 413.58 574.48 414.19 565.07 407.50 559.54 C 397.57 552.44 385.74 548.40 376.10 540.84 C 369.93 536.44 364.87 530.70 358.62 526.42 C 355.52 524.22 352.26 522.22 349.42 519.67 C 346.18 516.84 343.79 513.18 340.34 510.58 C 340.70 518.84 341.72 527.06 342.25 535.31 C 340.22 540.35 340.91 545.93 339.57 551.14 C 338.18 549.25 337.95 545.71 335.14 545.51 C 332.34 537.64 331.90 529.26 330.45 521.10 C 329.31 513.15 326.58 505.10 328.40 497.04 C 329.31 491.84 334.66 488.92 335.83 483.84 C 336.02 480.20 333.14 477.52 331.28 474.71 C 327.88 470.19 327.21 464.40 325.63 459.13 C 323.70 452.20 325.33 445.03 325.42 437.99 Z" />
</g>
<g id="#588499ff">
<path fill="#588499" opacity="1.00" d=" M 570.71 487.88 C 569.86 486.30 571.93 484.64 573.24 485.66 C 576.86 488.04 580.26 490.76 583.89 493.15 C 589.81 497.41 596.46 500.48 602.76 504.14 C 610.10 508.29 618.05 511.60 624.46 517.22 C 621.85 520.66 618.71 523.90 614.61 525.48 C 609.87 527.35 604.95 528.99 600.84 532.11 C 599.80 530.85 598.78 529.58 597.72 528.35 C 597.62 526.12 597.20 523.86 595.87 522.02 C 591.72 515.72 587.14 509.63 581.52 504.56 C 576.55 500.08 572.38 494.43 570.71 487.88 Z" />
</g>
<g id="#59879dff">
<path fill="#59879d" opacity="1.00" d=" M 340.34 510.58 C 343.79 513.18 346.18 516.84 349.42 519.67 C 352.26 522.22 355.52 524.22 358.62 526.42 C 364.87 530.70 369.93 536.44 376.10 540.84 C 385.74 548.40 397.57 552.44 407.50 559.54 C 414.19 565.07 413.58 574.48 414.44 582.28 C 409.83 585.22 407.12 590.58 408.39 596.06 C 408.80 602.61 415.15 605.75 419.59 609.49 C 424.13 612.90 428.27 617.57 434.12 618.58 C 435.40 609.44 430.68 601.11 429.03 592.35 C 432.93 591.16 437.07 590.95 441.07 591.74 C 444.66 592.50 448.33 591.92 451.95 592.32 C 455.82 593.07 458.25 596.46 461.15 598.82 C 464.38 601.56 468.75 602.03 472.63 603.40 C 476.53 604.75 480.47 606.04 484.25 607.72 C 490.99 611.08 496.76 616.14 503.69 619.17 C 505.83 620.06 508.07 621.22 510.46 620.75 C 516.47 625.04 524.04 627.17 528.91 632.99 C 535.23 640.69 538.73 650.27 545.01 658.01 C 548.31 662.40 553.09 665.26 557.16 668.84 C 561.88 673.43 564.13 679.82 567.74 685.20 C 570.91 688.62 575.57 690.11 579.02 693.20 C 579.07 694.44 579.08 695.68 579.05 696.94 C 569.83 698.49 560.44 697.49 551.15 697.45 C 550.12 691.86 550.06 685.62 545.68 681.37 C 538.73 674.97 529.13 673.01 520.71 669.28 C 514.61 666.78 513.35 659.45 508.43 655.63 C 504.69 652.39 499.57 651.40 495.84 648.20 C 492.03 644.39 492.26 638.55 490.03 633.94 C 488.23 630.82 485.14 628.79 482.38 626.61 C 478.13 623.46 474.06 619.77 468.95 618.10 C 465.13 616.81 461.08 617.75 457.17 617.37 C 454.69 615.31 452.20 613.27 449.51 611.50 C 447.31 610.10 445.81 607.40 443.10 606.99 C 440.49 608.09 439.33 610.90 438.46 613.40 C 436.29 619.98 437.57 626.99 438.76 633.63 C 436.38 631.69 434.30 628.99 431.04 628.62 C 429.70 633.66 429.47 638.90 431.20 643.88 C 424.73 645.59 417.11 648.23 411.00 644.12 C 407.00 641.81 406.26 636.97 404.99 632.96 C 403.38 627.03 399.48 621.96 394.73 618.17 C 388.68 613.35 381.21 610.96 374.37 607.54 C 368.73 604.80 362.56 602.52 358.31 597.68 C 354.92 594.24 353.30 589.59 351.72 585.14 C 350.57 581.74 348.41 578.84 346.60 575.77 C 346.69 573.98 346.72 572.18 346.46 570.41 C 344.78 558.74 343.19 547.06 342.25 535.31 C 341.72 527.06 340.70 518.84 340.34 510.58 Z" />
</g>
<g id="#58859bff">
<path fill="#58859b" opacity="1.00" d=" M 727.83 512.92 C 727.42 511.11 729.48 508.98 730.91 510.98 C 731.98 516.01 730.21 521.02 730.00 526.04 C 731.21 528.39 733.56 530.05 734.35 532.64 C 738.10 546.09 735.81 560.34 739.25 573.85 C 739.46 576.15 741.85 576.61 743.62 577.34 C 754.71 581.22 764.02 588.66 772.90 596.13 C 782.35 605.02 791.62 616.02 805.06 618.44 C 806.00 612.93 802.26 608.49 799.15 604.44 C 800.29 602.90 801.35 601.31 802.27 599.63 C 800.77 599.54 799.29 599.48 797.81 599.41 C 796.06 595.98 792.10 593.18 792.97 588.93 C 793.80 585.50 797.02 583.42 799.56 581.27 C 801.68 582.59 804.12 582.86 806.57 582.56 C 806.58 584.18 806.43 585.84 806.79 587.44 C 809.17 590.36 812.80 591.89 816.56 591.66 C 818.14 594.80 820.20 597.81 823.13 599.84 C 827.08 602.81 832.30 603.70 835.89 607.22 C 840.13 611.77 841.95 618.13 846.61 622.35 C 854.38 628.57 864.09 631.50 872.73 636.25 C 882.95 640.78 889.02 650.64 896.26 658.64 C 901.36 664.30 907.80 668.62 914.81 671.57 C 919.25 675.76 925.51 677.58 929.33 682.45 C 928.58 683.59 927.87 684.76 927.15 685.93 C 928.05 686.84 928.94 687.76 929.86 688.69 C 928.11 689.90 926.10 690.58 924.02 690.91 C 923.72 693.45 922.06 695.25 919.97 696.56 C 916.29 695.85 912.39 695.67 909.00 693.95 C 905.76 691.58 903.22 688.39 899.93 686.08 C 890.30 678.17 877.45 675.90 867.54 668.46 C 863.09 665.29 861.46 659.82 858.33 655.58 C 855.84 652.03 851.95 649.92 848.29 647.78 C 843.78 645.27 839.26 642.33 834.02 641.70 C 825.95 640.45 818.03 643.74 809.97 643.09 C 804.37 642.46 799.20 639.62 795.17 635.76 C 792.09 632.93 788.56 629.70 784.06 630.03 C 782.17 630.86 780.65 632.32 779.06 633.60 C 776.53 632.06 773.87 630.73 771.05 629.87 C 773.31 632.26 776.20 634.15 777.90 637.03 C 778.71 641.55 777.42 646.74 773.45 649.43 C 769.96 651.85 766.25 654.51 761.94 655.05 C 757.01 653.49 753.14 648.99 752.13 643.93 C 749.82 633.21 753.27 622.04 750.61 611.38 C 748.45 605.99 744.48 601.45 743.11 595.70 C 742.29 595.69 740.66 595.67 739.85 595.66 C 744.55 594.46 750.69 592.43 754.56 596.47 C 756.96 598.45 758.67 601.08 760.73 603.37 C 762.70 604.48 766.18 601.70 764.54 599.55 C 761.58 597.13 757.85 595.63 755.55 592.45 C 751.26 586.69 744.59 583.39 738.08 580.79 C 737.73 581.83 737.38 582.88 737.04 583.94 C 742.48 585.98 748.43 588.23 751.62 593.43 C 746.86 593.52 742.07 593.73 737.41 592.65 C 735.09 593.56 733.16 595.21 731.17 596.67 L 731.45 595.09 C 727.71 596.61 724.70 599.46 720.95 600.89 C 717.43 602.10 714.25 599.22 712.56 596.43 C 710.53 592.64 709.45 588.35 709.06 584.08 C 708.47 578.66 713.54 574.43 712.59 568.98 C 711.54 561.12 708.59 553.68 706.87 545.98 C 705.57 536.98 705.03 527.51 707.86 518.74 C 709.09 514.75 713.76 514.22 717.11 512.91 C 715.16 518.60 712.63 524.11 711.13 529.94 C 709.59 536.74 713.63 542.83 716.35 548.71 C 718.70 553.91 721.47 558.95 725.13 563.36 C 730.38 558.28 727.22 550.40 727.27 544.04 C 726.21 533.68 726.75 523.24 727.83 512.92 Z" />
</g>
<g id="#558197ff">
<path fill="#558197" opacity="1.00" d=" M 743.35 520.75 C 751.69 521.11 757.70 527.30 764.11 531.82 C 770.38 536.19 774.23 543.16 780.53 547.50 C 785.37 550.87 790.46 554.06 794.32 558.60 C 798.18 563.13 801.89 567.80 805.65 572.42 C 810.37 578.15 813.45 584.97 816.56 591.66 C 812.80 591.89 809.17 590.36 806.79 587.44 C 806.43 585.84 806.58 584.18 806.57 582.56 C 804.12 582.86 801.68 582.59 799.56 581.27 C 797.02 583.42 793.80 585.50 792.97 588.93 C 792.10 593.18 796.06 595.98 797.81 599.41 C 799.29 599.48 800.77 599.54 802.27 599.63 C 801.35 601.31 800.29 602.90 799.15 604.44 C 796.13 600.87 793.35 597.13 790.79 593.23 C 788.68 589.95 785.38 587.10 784.98 583.01 C 784.22 576.49 784.22 569.26 780.19 563.74 C 773.71 557.55 766.86 551.74 760.07 545.90 C 757.34 543.51 753.92 542.12 751.22 539.74 C 748.99 536.43 748.75 532.28 747.48 528.59 C 746.58 525.75 744.84 523.29 743.35 520.75 Z" />
</g>
<g id="#72c8e4ff">
<path fill="#72c8e4" opacity="1.00" d=" M 297.62 526.83 C 297.64 525.12 299.50 524.02 301.03 524.73 C 304.18 530.73 309.56 535.19 313.06 540.94 C 311.87 564.21 312.64 587.60 311.78 610.90 C 318.81 615.65 326.18 619.89 333.02 624.93 C 336.10 627.25 339.71 628.82 342.63 631.35 C 344.01 632.57 341.94 634.08 341.04 634.79 C 336.95 630.42 331.48 627.76 326.73 624.22 C 321.10 620.14 314.76 617.05 309.49 612.50 C 308.91 609.71 309.34 606.81 309.27 603.98 C 309.33 586.33 309.48 568.69 309.68 551.04 C 309.69 547.81 310.10 544.54 309.58 541.34 C 305.95 536.23 301.67 531.60 297.62 526.83 Z" />
</g>
<g id="#77cee1ff">
<path fill="#77cee1" opacity="1.00" d=" M 689.71 533.73 C 691.01 532.80 692.83 531.27 694.16 533.06 C 693.61 534.77 691.94 535.60 690.57 536.56 C 685.84 539.56 680.85 542.23 676.59 545.91 C 676.81 553.27 676.53 560.63 676.71 567.99 C 676.59 569.82 677.13 572.04 675.58 573.44 C 671.63 577.55 667.82 581.80 663.90 585.95 C 658.58 591.75 651.33 595.26 645.55 600.48 C 644.05 604.31 643.43 608.40 642.33 612.35 C 641.18 614.66 638.75 615.96 637.28 618.04 C 636.45 616.95 635.62 615.87 634.80 614.80 C 640.50 611.55 641.61 604.59 642.69 598.72 C 647.68 594.62 653.44 591.59 658.34 587.38 C 662.80 583.16 666.82 578.49 671.13 574.11 C 672.44 572.72 674.05 571.19 673.78 569.09 C 673.85 561.05 673.61 553.00 673.91 544.98 C 673.98 543.59 675.45 543.03 676.38 542.28 C 680.75 539.32 685.49 536.92 689.71 533.73 Z" />
</g>
<g id="#b2c2caff">
<path fill="#b2c2ca" opacity="1.00" d=" M 339.57 551.14 C 340.91 545.93 340.22 540.35 342.25 535.31 C 343.19 547.06 344.78 558.74 346.46 570.41 C 346.72 572.18 346.69 573.98 346.60 575.77 C 341.04 566.43 337.87 555.96 335.14 545.51 C 337.95 545.71 338.18 549.25 339.57 551.14 Z" />
</g>
<g id="#71cde1ff">
<path fill="#71cde1" opacity="1.00" d=" M 319.48 537.62 C 320.80 537.65 322.96 536.49 323.49 538.35 C 324.52 561.48 325.32 584.64 326.25 607.79 C 333.42 613.00 341.26 617.35 348.64 622.31 C 353.27 625.86 359.30 623.63 364.59 624.44 C 368.44 626.83 370.87 630.83 374.12 633.91 C 376.19 636.31 379.51 638.39 379.18 642.00 C 379.13 648.01 379.33 654.03 378.84 660.04 C 378.69 662.15 380.36 663.89 380.46 665.99 C 380.57 668.88 379.75 671.83 380.44 674.69 C 381.89 677.21 383.94 679.33 385.83 681.52 C 387.40 681.60 389.96 680.56 390.31 682.92 C 390.30 683.52 390.27 684.73 390.26 685.33 C 387.97 684.91 385.42 684.91 383.43 683.55 C 381.56 680.83 379.27 678.40 377.50 675.62 C 376.48 671.51 379.04 666.52 375.86 663.05 C 371.50 657.44 367.65 651.45 363.12 645.98 C 363.09 644.11 365.05 644.06 366.41 644.19 C 369.06 649.54 373.04 654.08 376.28 659.08 C 376.05 653.04 376.45 647.00 376.14 640.98 C 374.18 637.38 370.71 634.91 368.11 631.79 C 366.45 630.26 365.19 627.97 362.94 627.28 C 357.87 627.03 352.25 628.32 347.76 625.21 C 339.58 620.06 331.23 615.13 323.47 609.36 C 322.61 590.91 322.15 572.44 321.03 554.00 C 320.53 548.54 321.17 542.92 319.48 537.62 Z" />
</g>
<g id="#75cadfff">
<path fill="#75cadf" opacity="1.00" d=" M 666.93 592.92 C 672.05 587.86 677.20 582.82 682.11 577.56 C 682.91 578.33 683.72 579.11 684.54 579.91 C 676.79 586.68 669.83 594.28 662.57 601.56 C 657.22 607.57 651.21 613.08 646.83 619.89 C 645.41 621.83 644.18 624.12 641.95 625.24 C 638.49 624.32 635.73 621.88 632.80 619.95 C 626.36 627.43 621.77 636.37 614.83 643.42 C 612.98 641.91 611.13 640.37 609.04 639.23 C 601.36 645.76 594.56 653.26 587.25 660.19 C 581.93 665.26 576.88 670.60 571.98 676.09 C 571.16 675.11 570.35 674.15 569.54 673.18 C 572.76 670.56 575.73 667.65 578.60 664.66 C 586.69 656.72 594.79 648.77 602.88 640.84 C 611.10 633.59 615.93 623.37 623.84 615.82 C 625.42 614.38 627.62 612.54 629.75 614.20 C 633.86 616.66 637.76 619.47 641.91 621.90 C 648.43 610.77 658.29 602.31 666.93 592.92 M 623.69 619.71 C 619.19 625.08 615.26 630.89 611.13 636.55 C 612.18 637.64 613.20 638.75 614.24 639.89 C 620.27 633.10 624.64 624.99 630.81 618.30 C 629.83 617.73 628.87 617.15 627.91 616.59 C 626.34 617.39 624.75 618.26 623.69 619.71 Z" />
</g>
<g id="#255370ff">
<path fill="#255370" opacity="1.00" d=" M 623.69 619.71 C 624.75 618.26 626.34 617.39 627.91 616.59 C 628.87 617.15 629.83 617.73 630.81 618.30 C 624.64 624.99 620.27 633.10 614.24 639.89 C 613.20 638.75 612.18 637.64 611.13 636.55 C 615.26 630.89 619.19 625.08 623.69 619.71 Z" />
</g>
<g id="#70ccddff">
<path fill="#70ccdd" opacity="1.00" d=" M 737.04 618.79 C 738.33 618.41 739.85 617.90 740.84 619.21 C 739.37 627.70 740.61 636.34 740.12 644.90 C 738.86 647.26 736.38 648.64 734.37 650.31 C 721.64 659.90 709.09 669.74 696.29 679.24 C 695.03 680.25 693.91 681.42 692.81 682.60 C 691.18 682.26 689.94 681.35 690.16 679.59 C 694.88 677.04 699.09 673.64 703.31 670.36 C 714.72 661.60 726.41 653.15 737.46 643.92 C 737.03 635.55 737.47 627.16 737.04 618.79 Z" />
</g>
<g id="#304957ff">
<path fill="#304957" opacity="1.00" d=" M 122.53 655.17 C 125.90 653.70 129.76 652.64 131.78 649.27 C 131.39 650.81 131.48 652.95 129.61 653.54 C 122.08 656.91 115.39 661.83 108.79 666.71 C 102.76 671.14 103.06 679.77 97.82 684.80 C 94.42 687.87 89.59 687.93 85.29 688.43 C 84.56 691.49 83.35 694.48 80.80 696.49 C 82.05 697.87 83.30 699.25 84.54 700.65 C 80.29 700.27 76.01 700.73 71.78 700.07 C 72.08 697.80 74.39 697.16 76.08 696.18 C 78.45 694.96 80.79 693.64 82.78 691.86 C 82.88 690.11 82.90 687.64 84.88 686.95 C 88.79 686.05 93.34 686.30 96.46 683.39 C 100.61 679.60 101.44 673.77 104.01 669.03 C 105.94 665.59 109.72 663.97 112.74 661.70 C 116.02 659.55 119.00 656.91 122.53 655.17 Z" />
</g>
<g id="#7bbfd2ff">
<path fill="#7bbfd2" opacity="1.00" d=" M 392.08 670.76 C 392.65 669.74 392.34 667.65 393.97 667.67 C 396.49 667.84 397.10 669.79 396.63 672.09 C 395.10 671.65 393.59 671.21 392.08 670.76 Z" />
</g>
<g id="#78cce0ff">
<path fill="#78cce0" opacity="1.00" d=" M 397.60 669.30 C 399.70 670.54 401.74 671.92 403.50 673.62 C 410.44 680.26 418.09 686.08 425.51 692.16 C 424.77 693.03 424.04 693.92 423.30 694.80 C 414.85 686.85 405.68 679.62 397.05 671.91 C 397.19 671.26 397.46 669.95 397.60 669.30 Z" />
</g>
<g id="#537d94ff">
<path fill="#537d94" opacity="1.00" d=" M 929.33 682.45 C 933.37 686.92 939.97 687.56 944.08 691.95 C 944.47 693.51 944.71 695.11 944.94 696.71 C 936.68 697.87 928.22 697.73 919.97 696.56 C 922.06 695.25 923.72 693.45 924.02 690.91 C 926.10 690.58 928.11 689.90 929.86 688.69 C 928.94 687.76 928.05 686.84 927.15 685.93 C 927.87 684.76 928.58 683.59 929.33 682.45 Z" />
</g>
<g id="#7ba7b8ff">
<path fill="#7ba7b8" opacity="1.00" d=" M 124.72 700.20 C 126.48 699.97 128.26 699.84 130.04 699.82 C 242.36 699.89 354.65 699.92 466.96 699.73 C 597.63 699.67 728.30 699.92 858.97 699.79 C 871.63 699.96 884.33 699.49 896.98 700.16 C 898.18 700.93 900.57 702.48 901.76 703.25 L 899.76 704.46 C 892.56 703.16 885.96 706.73 878.91 707.21 C 876.37 707.49 873.84 707.81 871.32 708.16 C 863.70 706.20 855.81 707.07 848.05 706.89 C 814.38 706.93 780.70 706.97 747.03 706.84 C 738.01 707.27 729.00 706.22 719.99 706.80 C 715.78 706.78 711.52 706.78 707.48 708.12 C 704.32 707.50 701.24 706.58 698.14 705.76 C 697.11 705.48 696.09 705.21 695.08 704.94 C 692.84 706.02 690.48 707.00 687.95 706.94 C 680.62 707.00 673.30 707.50 665.98 707.09 C 661.78 706.84 657.56 707.11 653.43 707.90 C 650.81 707.22 648.19 706.52 645.51 706.18 C 632.38 707.68 619.13 706.51 605.95 706.94 C 594.96 706.63 583.74 707.85 572.98 705.02 C 568.72 703.83 564.24 705.04 559.95 703.98 C 555.44 702.84 550.73 703.76 546.59 705.73 C 542.98 706.82 539.29 707.59 535.57 708.11 C 533.42 707.60 531.29 706.94 529.07 706.86 C 502.08 707.05 475.08 706.81 448.08 707.03 C 439.85 706.79 431.58 707.37 423.39 706.39 C 424.29 705.65 425.18 704.90 426.07 704.15 C 420.74 705.03 415.57 706.60 410.47 708.36 C 401.17 705.89 391.41 707.58 381.91 707.02 C 381.10 707.03 379.48 707.04 378.68 707.05 C 334.45 706.77 290.22 707.30 245.99 707.06 C 215.64 707.14 185.30 706.83 154.96 706.95 C 144.02 707.08 133.07 706.60 122.15 707.22 C 121.79 705.23 121.49 703.22 121.23 701.23 C 122.10 700.97 123.84 700.46 124.72 700.20 Z" />
</g>
<g id="#85b3c3ff">
<path fill="#85b3c3" opacity="1.00" d=" M 546.59 705.73 C 550.73 703.76 555.44 702.84 559.95 703.98 C 564.24 705.04 568.72 703.83 572.98 705.02 C 583.74 707.85 594.96 706.63 605.95 706.94 C 619.13 706.51 632.38 707.68 645.51 706.18 C 645.55 706.56 645.65 707.31 645.69 707.69 C 650.27 709.81 654.86 711.99 658.89 715.08 C 662.89 718.13 667.38 720.60 672.37 721.57 C 679.54 723.00 685.94 726.67 692.74 729.20 C 695.74 730.31 698.73 731.62 701.21 733.70 C 707.15 738.73 714.47 741.71 720.77 746.24 C 724.34 748.55 722.28 753.89 725.22 756.69 C 728.04 759.44 731.89 760.72 735.16 762.85 C 737.45 764.10 739.75 766.34 742.60 765.53 C 746.51 764.60 750.12 762.71 754.07 761.87 C 749.02 765.92 743.16 770.81 736.24 769.75 C 731.03 769.31 726.30 767.06 721.41 765.47 C 718.30 764.27 715.83 766.93 714.20 769.20 C 711.95 772.37 709.19 775.38 708.04 779.16 C 707.98 782.72 709.90 785.93 710.58 789.38 C 712.53 796.60 709.02 804.00 711.12 811.22 C 710.75 814.12 710.10 817.11 710.86 820.02 C 711.67 824.31 714.47 827.84 715.71 831.98 C 714.37 835.21 711.56 838.19 712.49 841.97 C 713.29 847.24 718.42 849.85 722.32 852.68 C 723.92 853.83 726.24 855.64 725.11 857.90 C 722.83 861.58 718.82 863.85 716.63 867.61 C 714.21 872.71 715.39 878.49 715.90 883.87 C 714.78 884.98 713.73 886.15 712.68 887.33 C 707.06 883.72 703.20 878.09 697.82 874.21 C 690.97 869.20 683.69 864.19 679.18 856.85 C 678.15 852.96 679.47 847.97 675.87 845.12 C 668.37 839.37 658.36 837.97 649.15 838.65 C 644.43 837.14 640.74 833.50 635.98 832.02 C 630.69 830.26 626.55 826.48 622.74 822.58 C 615.13 819.48 607.14 817.51 599.41 814.76 C 599.43 814.30 599.48 813.40 599.50 812.94 C 598.48 813.09 597.47 813.24 596.47 813.45 C 592.43 809.56 587.36 807.02 582.40 804.54 C 576.16 801.64 569.48 799.81 563.34 796.69 C 551.19 791.20 540.61 782.83 528.36 777.56 C 526.66 776.79 524.44 776.46 523.29 778.30 C 517.98 785.10 514.06 793.11 512.57 801.65 C 507.77 804.16 502.70 806.24 498.34 809.51 C 494.67 812.07 493.14 817.16 494.62 821.37 C 497.50 830.22 502.20 838.63 503.26 848.00 C 503.56 853.69 498.74 857.53 495.57 861.63 C 492.28 865.87 488.98 870.48 488.23 875.94 C 486.65 884.08 489.66 892.13 489.39 900.30 C 489.22 902.47 488.86 904.62 488.46 906.77 C 466.97 906.86 445.46 906.63 423.98 907.16 C 416.65 906.79 409.31 906.88 401.97 906.83 C 397.58 902.92 393.82 898.40 390.27 893.74 C 386.94 889.33 381.39 887.25 378.24 882.69 C 378.34 880.32 380.92 878.65 382.02 876.58 C 377.58 872.43 371.50 870.09 368.14 864.84 C 364.21 859.03 360.54 853.05 355.92 847.76 C 355.89 847.26 355.83 846.26 355.80 845.77 C 359.64 842.96 364.07 840.85 367.08 837.05 C 373.44 829.19 383.52 826.19 391.56 820.52 C 396.18 817.19 401.62 815.36 407.12 814.11 C 416.31 811.87 425.67 809.08 433.34 803.34 C 441.04 797.62 444.12 787.53 452.39 782.43 C 459.82 777.39 468.92 775.98 477.70 775.59 C 482.40 775.50 486.58 773.05 489.86 769.85 C 495.64 764.21 501.49 758.61 506.50 752.26 C 511.31 747.32 518.66 746.87 524.36 743.36 C 533.44 738.68 538.09 729.04 545.85 722.78 C 549.65 719.09 555.31 717.91 558.58 713.62 C 560.66 711.07 562.79 708.54 565.00 706.10 C 558.87 705.66 552.72 706.08 546.59 705.73 M 573.34 707.54 C 570.29 708.02 568.91 710.91 568.32 713.63 C 579.38 718.91 590.47 724.35 600.30 731.74 C 605.56 736.78 610.80 741.88 616.61 746.30 C 622.15 749.66 626.18 754.84 631.22 758.84 C 637.76 764.22 642.82 771.22 649.59 776.32 C 656.87 780.59 664.63 784.29 671.00 789.91 C 675.31 793.51 672.55 799.60 673.66 804.35 C 677.72 806.88 682.42 808.23 686.70 810.36 C 689.04 811.20 691.42 813.39 693.99 812.01 C 693.23 810.84 692.83 809.23 691.34 808.83 C 686.61 806.86 681.35 805.88 677.16 802.81 C 675.11 798.44 679.25 791.75 674.38 788.63 C 668.50 784.04 662.48 779.57 655.79 776.21 C 648.84 772.87 644.18 766.50 638.67 761.35 C 635.49 758.17 631.74 755.64 628.76 752.26 C 624.86 747.74 619.55 744.87 615.12 740.95 C 611.16 737.92 607.90 734.13 604.11 730.91 C 598.17 725.54 590.89 722.06 584.08 717.98 C 580.60 715.77 576.73 714.34 572.98 712.70 C 573.32 710.37 575.73 709.03 577.95 709.72 C 583.49 711.06 589.16 712.07 594.41 714.38 C 603.96 717.85 614.38 720.78 621.34 728.70 C 633.76 739.92 646.29 751.04 658.41 762.58 C 662.43 765.86 665.73 769.96 670.00 772.96 C 673.87 775.73 676.66 779.69 680.38 782.61 C 681.94 783.76 684.40 781.94 682.53 780.42 C 677.53 776.12 672.70 771.61 667.76 767.24 C 655.38 754.58 641.74 743.30 629.08 730.95 C 624.10 727.64 620.91 722.11 615.36 719.64 C 607.75 715.85 599.55 713.48 591.63 710.46 C 585.75 708.60 579.56 706.75 573.34 707.54 M 413.94 828.68 C 416.77 831.24 420.37 832.61 423.66 834.44 C 427.99 836.75 432.23 839.22 436.67 841.30 C 438.50 842.30 441.12 843.38 440.96 845.91 C 440.20 856.55 440.16 867.26 440.83 877.90 C 440.23 883.64 440.10 889.46 440.86 895.20 C 441.53 898.82 440.93 902.83 443.27 905.98 C 446.82 903.82 445.35 899.40 445.60 895.99 C 445.73 878.97 445.43 861.95 445.69 844.93 C 445.56 843.23 446.15 840.73 443.93 840.21 C 434.83 836.82 426.74 831.35 418.27 826.73 C 416.52 825.35 414.94 827.40 413.94 828.68 M 452.06 840.97 C 451.56 848.62 452.30 856.30 452.08 863.98 C 452.28 876.98 451.43 889.99 452.18 902.99 C 451.95 904.47 453.03 905.40 454.06 906.28 C 456.21 904.06 455.68 900.82 455.79 898.02 C 455.54 885.00 456.05 871.98 455.84 858.95 C 455.79 852.42 456.29 845.86 455.53 839.35 C 454.17 839.43 452.13 838.99 452.06 840.97 M 463.24 844.00 C 463.97 853.34 462.02 862.72 463.41 872.03 C 463.89 882.02 463.43 892.05 463.87 902.05 C 463.85 903.66 464.36 905.22 465.78 906.13 C 466.88 898.14 466.20 890.04 466.35 882.01 C 466.57 870.34 466.09 858.68 466.33 847.03 C 466.29 844.47 466.76 841.61 464.97 839.51 C 464.02 840.83 462.89 842.24 463.24 844.00 M 407.83 853.02 C 413.65 858.43 421.86 860.24 429.47 861.58 C 430.94 868.99 430.75 876.57 430.44 884.08 C 430.69 889.37 430.73 894.67 430.84 899.98 C 431.06 902.18 431.03 905.28 433.63 906.07 C 434.10 896.41 434.37 886.74 433.88 877.08 C 433.62 872.21 433.69 867.32 434.44 862.49 C 434.82 860.89 433.93 859.17 432.28 858.80 C 425.56 856.88 418.57 855.38 412.59 851.61 C 410.86 850.36 408.81 851.41 407.83 853.02 Z" />
</g>
<g id="#8dd0e8ff">
<path fill="#8dd0e8" opacity="1.00" d=" M 410.47 708.36 C 415.57 706.60 420.74 705.03 426.07 704.15 C 425.18 704.90 424.29 705.65 423.39 706.39 C 415.86 709.27 408.54 712.69 401.23 716.10 C 397.44 717.81 394.27 720.67 390.31 722.04 C 390.34 721.35 390.40 719.97 390.43 719.28 C 396.57 714.72 403.77 711.95 410.47 708.36 Z" />
</g>
<g id="#8fc0ceff">
<path fill="#8fc0ce" opacity="1.00" d=" M 878.91 707.21 C 885.96 706.73 892.56 703.16 899.76 704.46 C 899.38 707.66 901.17 712.12 898.23 714.35 C 887.49 717.57 881.22 728.12 870.76 731.84 C 862.41 735.08 853.57 737.77 846.50 743.49 C 842.39 746.68 839.37 751.21 834.66 753.64 C 830.34 755.95 825.82 758.00 821.97 761.10 C 817.35 764.60 814.47 769.77 810.46 773.87 C 809.27 773.25 808.10 772.65 806.93 772.05 C 803.78 773.33 799.76 773.62 797.81 776.79 C 795.91 779.63 792.61 780.96 789.56 782.16 C 787.09 782.39 784.64 781.62 782.22 781.24 C 782.94 777.53 783.15 773.74 782.74 769.98 C 782.35 772.78 782.00 775.60 781.25 778.34 C 781.36 775.37 781.08 772.36 781.67 769.43 C 782.81 766.26 785.78 764.26 788.40 762.36 C 793.37 759.10 797.70 754.98 802.29 751.22 C 803.66 750.36 803.78 748.79 803.81 747.34 C 797.27 746.96 790.95 749.25 785.19 752.12 C 779.06 755.12 774.26 760.26 767.97 762.99 C 763.08 765.15 758.19 767.34 753.16 769.15 C 752.60 769.06 751.49 768.88 750.93 768.79 C 755.20 765.57 760.03 763.24 764.60 760.51 C 766.35 759.59 767.37 757.86 768.27 756.18 C 763.04 753.00 757.25 756.57 752.12 758.19 C 751.83 750.23 751.31 742.27 751.94 734.30 C 752.35 734.34 753.18 734.42 753.60 734.46 C 753.97 733.25 754.35 732.06 754.72 730.86 C 754.83 731.34 755.06 732.29 755.17 732.77 C 757.81 731.21 760.24 729.01 763.32 728.41 C 768.84 728.44 774.05 731.88 776.40 736.87 C 774.64 738.17 772.88 739.47 771.12 740.76 C 774.45 740.25 777.84 740.06 781.18 740.61 C 788.17 741.93 793.19 735.54 799.37 733.52 C 808.97 730.65 819.26 733.45 828.88 730.69 C 836.16 728.59 842.84 724.93 849.50 721.39 C 853.13 719.47 854.74 715.36 858.01 713.00 C 861.86 710.11 866.76 709.37 871.32 708.16 C 873.84 707.81 876.37 707.49 878.91 707.21 Z" />
<path fill="#8fc0ce" opacity="1.00" d=" M 714.20 769.20 C 715.83 766.93 718.30 764.27 721.41 765.47 C 726.30 767.06 731.03 769.31 736.24 769.75 C 733.96 769.77 731.71 770.25 729.78 771.47 C 732.65 772.95 735.75 773.96 738.95 774.49 C 738.25 776.31 737.54 778.16 737.29 780.11 C 736.30 787.71 735.07 795.32 735.36 803.01 C 735.25 807.56 736.52 813.12 732.41 816.35 C 728.67 819.12 731.27 824.06 729.78 827.80 C 729.09 827.96 727.71 828.30 727.01 828.46 C 727.00 824.27 726.93 820.08 726.70 815.91 C 726.29 809.07 727.09 802.22 726.44 795.40 C 726.14 793.63 726.05 791.21 723.99 790.60 C 722.24 791.20 721.29 792.92 720.27 794.33 C 716.87 799.76 713.23 805.12 711.12 811.22 C 709.02 804.00 712.53 796.60 710.58 789.38 C 709.90 785.93 707.98 782.72 708.04 779.16 C 709.19 775.38 711.95 772.37 714.20 769.20 Z" />
</g>
<g id="#85b4c3ff">
<path fill="#85b4c3" opacity="1.00" d=" M 687.95 706.94 C 690.48 707.00 692.84 706.02 695.08 704.94 C 696.09 705.21 697.11 705.48 698.14 705.76 C 696.64 705.91 695.16 706.11 693.70 706.35 C 697.99 708.86 702.98 709.61 707.62 711.27 C 716.69 714.33 726.03 716.60 734.93 720.16 C 739.64 722.06 744.65 723.30 749.07 725.86 C 751.93 727.54 751.49 731.44 751.94 734.30 C 751.31 742.27 751.83 750.23 752.12 758.19 C 748.38 759.95 744.56 763.61 740.15 762.02 C 736.03 760.39 731.91 758.40 728.61 755.40 C 725.50 752.61 727.71 747.26 724.19 744.76 C 719.20 741.01 713.41 738.47 708.42 734.70 C 701.19 729.22 692.58 726.18 684.34 722.62 C 678.39 720.06 671.51 719.77 666.16 715.87 C 662.03 713.03 657.71 710.48 653.43 707.90 C 657.56 707.11 661.78 706.84 665.98 707.09 C 673.30 707.50 680.62 707.00 687.95 706.94 Z" />
</g>
<g id="#86b4c4ff">
<path fill="#86b4c4" opacity="1.00" d=" M 401.23 716.10 C 408.54 712.69 415.86 709.27 423.39 706.39 C 431.58 707.37 439.85 706.79 448.08 707.03 C 475.08 706.81 502.08 707.05 529.07 706.86 C 531.29 706.94 533.42 707.60 535.57 708.11 C 530.01 709.60 524.42 711.06 519.07 713.18 C 514.62 714.77 513.11 719.71 509.76 722.63 C 505.19 726.81 498.75 727.53 493.53 730.53 C 489.29 733.00 490.84 739.18 487.35 742.28 C 484.70 744.51 481.42 745.76 478.37 747.33 C 473.43 749.68 468.59 752.78 462.99 753.10 C 458.84 753.49 454.72 752.39 450.57 752.67 C 446.62 752.66 446.70 759.62 442.44 758.51 C 437.16 756.95 436.02 751.01 436.65 746.24 C 434.47 746.05 432.31 745.87 430.14 745.71 C 430.15 742.34 432.00 738.22 429.59 735.37 C 426.02 733.48 421.76 734.32 417.95 734.87 C 413.29 735.65 408.32 737.46 405.81 741.76 C 400.90 749.86 393.01 755.75 384.34 759.33 C 375.91 763.58 366.18 764.96 358.33 770.37 C 353.47 773.38 353.00 780.19 347.61 782.62 C 343.04 785.35 341.42 790.70 339.60 795.37 C 336.92 803.36 334.46 811.43 332.62 819.66 C 331.20 825.74 328.08 831.63 328.69 838.03 C 329.32 843.17 335.72 844.40 337.36 849.04 C 336.47 852.71 333.12 855.00 330.98 857.94 C 326.80 863.15 326.04 870.26 326.87 876.69 C 326.32 877.75 325.71 878.77 325.13 879.83 C 321.45 876.52 318.18 872.75 314.14 869.86 C 309.11 866.29 304.54 862.14 300.04 857.95 C 295.55 853.74 292.79 847.87 287.55 844.45 C 282.80 841.27 277.86 838.21 274.11 833.82 C 270.43 829.88 267.99 824.56 263.01 822.02 C 257.79 819.40 252.24 817.13 247.99 812.99 C 242.87 808.05 237.90 802.86 234.06 796.84 C 232.15 793.88 229.43 791.02 225.78 790.49 C 222.00 790.49 219.41 794.72 215.64 794.48 C 210.69 792.45 206.86 788.50 202.36 785.70 C 196.44 781.97 193.24 775.41 187.67 771.29 C 181.05 766.20 173.40 762.51 167.23 756.81 C 162.12 752.14 158.42 746.26 154.28 740.79 C 151.08 736.55 146.58 733.67 142.28 730.69 C 137.90 727.68 135.78 722.58 132.04 718.96 C 129.89 716.82 126.90 715.93 124.11 714.96 L 122.20 714.33 C 122.04 711.95 122.06 709.58 122.15 707.22 C 133.07 706.60 144.02 707.08 154.96 706.95 C 185.30 706.83 215.64 707.14 245.99 707.06 C 290.22 707.30 334.45 706.77 378.68 707.05 C 376.78 711.50 378.04 716.40 377.12 721.02 C 376.45 724.59 375.71 728.17 374.50 731.60 C 373.29 735.03 370.15 737.14 367.74 739.67 C 365.48 741.75 363.63 744.43 360.81 745.79 C 356.10 747.20 350.89 746.15 346.37 748.33 C 340.80 750.90 335.70 754.35 330.38 757.38 C 328.01 758.89 325.26 760.16 323.64 762.56 C 322.62 765.90 322.83 769.47 322.65 772.94 C 322.32 787.48 321.50 802.03 319.42 816.43 C 320.50 816.58 321.58 816.75 322.66 816.92 C 324.70 805.71 324.98 794.32 325.87 783.00 C 326.38 777.11 325.77 771.16 326.52 765.29 C 326.75 763.29 328.53 762.09 330.06 761.06 C 333.73 758.71 337.59 756.65 341.29 754.35 C 344.62 752.39 347.95 749.99 351.95 749.76 C 355.42 749.28 359.10 749.74 362.41 748.41 C 365.30 746.75 367.40 744.09 369.87 741.91 C 373.20 738.77 377.55 736.04 378.39 731.16 C 381.24 723.38 380.74 715.07 381.91 707.02 C 391.41 707.58 401.17 705.89 410.47 708.36 C 403.77 711.95 396.57 714.72 390.43 719.28 C 390.40 719.97 390.34 721.35 390.31 722.04 C 394.27 720.67 397.44 717.81 401.23 716.10 M 336.99 743.90 C 329.14 749.61 320.22 753.64 312.31 759.24 C 312.04 769.15 312.38 779.07 312.26 788.99 C 312.65 796.38 313.95 804.30 310.29 811.14 C 311.90 812.08 313.74 811.94 315.50 811.51 C 315.79 809.36 316.13 807.20 316.13 805.04 C 315.66 790.71 315.73 776.36 316.40 762.04 C 316.37 760.25 318.17 759.43 319.41 758.54 C 326.92 754.00 334.51 749.59 341.86 744.80 C 342.95 744.02 344.52 742.70 343.68 741.21 C 341.09 740.59 339.01 742.63 336.99 743.90 Z" />
</g>
<g id="#91c2d0ff">
<path fill="#91c2d0" opacity="1.00" d=" M 535.57 708.11 C 539.29 707.59 542.98 706.82 546.59 705.73 C 552.72 706.08 558.87 705.66 565.00 706.10 C 562.79 708.54 560.66 711.07 558.58 713.62 C 555.31 717.91 549.65 719.09 545.85 722.78 C 538.09 729.04 533.44 738.68 524.36 743.36 C 518.66 746.87 511.31 747.32 506.50 752.26 C 497.52 753.05 489.96 758.64 481.65 761.61 C 475.20 763.84 468.20 761.99 461.67 763.68 C 457.68 765.30 454.50 768.86 449.98 769.09 C 443.52 769.52 437.02 771.39 430.54 770.33 C 428.52 769.19 429.91 766.77 430.32 765.14 C 432.44 759.67 434.39 753.77 432.90 747.87 C 425.51 751.45 418.14 755.48 412.06 761.07 C 408.37 764.18 407.13 769.64 408.92 774.08 C 410.23 776.43 412.73 777.74 414.82 779.32 C 416.00 785.20 414.85 792.07 409.59 795.67 C 402.98 799.96 395.98 803.70 388.71 806.77 C 383.28 809.14 378.24 812.26 372.95 814.90 C 367.42 817.68 361.09 818.53 355.83 821.89 C 351.04 824.64 346.99 828.69 341.72 830.56 C 342.03 820.29 344.05 810.19 345.02 799.99 C 345.53 794.14 347.63 788.52 347.61 782.62 C 353.00 780.19 353.47 773.38 358.33 770.37 C 366.18 764.96 375.91 763.58 384.34 759.33 C 393.01 755.75 400.90 749.86 405.81 741.76 C 408.32 737.46 413.29 735.65 417.95 734.87 C 421.76 734.32 426.02 733.48 429.59 735.37 C 432.00 738.22 430.15 742.34 430.14 745.71 C 432.31 745.87 434.47 746.05 436.65 746.24 C 436.02 751.01 437.16 756.95 442.44 758.51 C 446.70 759.62 446.62 752.66 450.57 752.67 C 454.72 752.39 458.84 753.49 462.99 753.10 C 468.59 752.78 473.43 749.68 478.37 747.33 C 481.42 745.76 484.70 744.51 487.35 742.28 C 490.84 739.18 489.29 733.00 493.53 730.53 C 498.75 727.53 505.19 726.81 509.76 722.63 C 513.11 719.71 514.62 714.77 519.07 713.18 C 524.42 711.06 530.01 709.60 535.57 708.11 Z" />
</g>
<g id="#8dd0e0ff">
<path fill="#8dd0e0" opacity="1.00" d=" M 645.51 706.18 C 648.19 706.52 650.81 707.22 653.43 707.90 C 657.71 710.48 662.03 713.03 666.16 715.87 C 671.51 719.77 678.39 720.06 684.34 722.62 C 692.58 726.18 701.19 729.22 708.42 734.70 C 713.41 738.47 719.20 741.01 724.19 744.76 C 727.71 747.26 725.50 752.61 728.61 755.40 C 731.91 758.40 736.03 760.39 740.15 762.02 C 744.56 763.61 748.38 759.95 752.12 758.19 C 757.25 756.57 763.04 753.00 768.27 756.18 C 767.37 757.86 766.35 759.59 764.60 760.51 C 760.03 763.24 755.20 765.57 750.93 768.79 C 751.49 768.88 752.60 769.06 753.16 769.15 C 748.36 770.78 743.98 773.59 738.95 774.49 C 735.75 773.96 732.65 772.95 729.78 771.47 C 731.71 770.25 733.96 769.77 736.24 769.75 C 743.16 770.81 749.02 765.92 754.07 761.87 C 750.12 762.71 746.51 764.60 742.60 765.53 C 739.75 766.34 737.45 764.10 735.16 762.85 C 731.89 760.72 728.04 759.44 725.22 756.69 C 722.28 753.89 724.34 748.55 720.77 746.24 C 714.47 741.71 707.15 738.73 701.21 733.70 C 698.73 731.62 695.74 730.31 692.74 729.20 C 685.94 726.67 679.54 723.00 672.37 721.57 C 667.38 720.60 662.89 718.13 658.89 715.08 C 654.86 711.99 650.27 709.81 645.69 707.69 C 645.65 707.31 645.55 706.56 645.51 706.18 Z" />
</g>
<g id="#89d0e3ff">
<path fill="#89d0e3" opacity="1.00" d=" M 693.70 706.35 C 695.16 706.11 696.64 705.91 698.14 705.76 C 701.24 706.58 704.32 707.50 707.48 708.12 C 722.49 713.00 737.69 717.47 752.13 723.90 C 754.96 725.08 755.02 728.26 754.72 730.86 C 754.35 732.06 753.97 733.25 753.60 734.46 C 753.18 734.42 752.35 734.34 751.94 734.30 C 751.49 731.44 751.93 727.54 749.07 725.86 C 744.65 723.30 739.64 722.06 734.93 720.16 C 726.03 716.60 716.69 714.33 707.62 711.27 C 702.98 709.61 697.99 708.86 693.70 706.35 Z" />
</g>
<g id="#87b5c4ff">
<path fill="#87b5c4" opacity="1.00" d=" M 719.99 706.80 C 729.00 706.22 738.01 707.27 747.03 706.84 C 780.70 706.97 814.38 706.93 848.05 706.89 C 855.81 707.07 863.70 706.20 871.32 708.16 C 866.76 709.37 861.86 710.11 858.01 713.00 C 854.74 715.36 853.13 719.47 849.50 721.39 C 842.84 724.93 836.16 728.59 828.88 730.69 C 819.26 733.45 808.97 730.65 799.37 733.52 C 793.19 735.54 788.17 741.93 781.18 740.61 C 777.84 740.06 774.45 740.25 771.12 740.76 C 772.88 739.47 774.64 738.17 776.40 736.87 C 774.05 731.88 768.84 728.44 763.32 728.41 C 760.24 729.01 757.81 731.21 755.17 732.77 C 755.06 732.29 754.83 731.34 754.72 730.86 C 755.02 728.26 754.96 725.08 752.13 723.90 C 737.69 717.47 722.49 713.00 707.48 708.12 C 711.52 706.78 715.78 706.78 719.99 706.80 Z" />
</g>
<g id="#89cddaff">
<path fill="#89cdda" opacity="1.00" d=" M 378.68 707.05 C 379.48 707.04 381.10 707.03 381.91 707.02 C 380.74 715.07 381.24 723.38 378.39 731.16 C 377.55 736.04 373.20 738.77 369.87 741.91 C 367.40 744.09 365.30 746.75 362.41 748.41 C 359.10 749.74 355.42 749.28 351.95 749.76 C 347.95 749.99 344.62 752.39 341.29 754.35 C 337.59 756.65 333.73 758.71 330.06 761.06 C 328.53 762.09 326.75 763.29 326.52 765.29 C 325.77 771.16 326.38 777.11 325.87 783.00 C 324.98 794.32 324.70 805.71 322.66 816.92 C 321.58 816.75 320.50 816.58 319.42 816.43 C 321.50 802.03 322.32 787.48 322.65 772.94 C 322.83 769.47 322.62 765.90 323.64 762.56 C 325.26 760.16 328.01 758.89 330.38 757.38 C 335.70 754.35 340.80 750.90 346.37 748.33 C 350.89 746.15 356.10 747.20 360.81 745.79 C 363.63 744.43 365.48 741.75 367.74 739.67 C 370.15 737.14 373.29 735.03 374.50 731.60 C 375.71 728.17 376.45 724.59 377.12 721.02 C 378.04 716.40 376.78 711.50 378.68 707.05 Z" />
</g>
<g id="#8acfe1ff">
<path fill="#8acfe1" opacity="1.00" d=" M 573.34 707.54 C 579.56 706.75 585.75 708.60 591.63 710.46 C 599.55 713.48 607.75 715.85 615.36 719.64 C 620.91 722.11 624.10 727.64 629.08 730.95 C 641.74 743.30 655.38 754.58 667.76 767.24 C 672.70 771.61 677.53 776.12 682.53 780.42 C 684.40 781.94 681.94 783.76 680.38 782.61 C 676.66 779.69 673.87 775.73 670.00 772.96 C 665.73 769.96 662.43 765.86 658.41 762.58 C 646.29 751.04 633.76 739.92 621.34 728.70 C 614.38 720.78 603.96 717.85 594.41 714.38 C 589.16 712.07 583.49 711.06 577.95 709.72 C 575.73 709.03 573.32 710.37 572.98 712.70 C 576.73 714.34 580.60 715.77 584.08 717.98 C 590.89 722.06 598.17 725.54 604.11 730.91 C 607.90 734.13 611.16 737.92 615.12 740.95 C 619.55 744.87 624.86 747.74 628.76 752.26 C 631.74 755.64 635.49 758.17 638.67 761.35 C 644.18 766.50 648.84 772.87 655.79 776.21 C 662.48 779.57 668.50 784.04 674.38 788.63 C 679.25 791.75 675.11 798.44 677.16 802.81 C 681.35 805.88 686.61 806.86 691.34 808.83 C 692.83 809.23 693.23 810.84 693.99 812.01 C 691.42 813.39 689.04 811.20 686.70 810.36 C 682.42 808.23 677.72 806.88 673.66 804.35 C 672.55 799.60 675.31 793.51 671.00 789.91 C 664.63 784.29 656.87 780.59 649.59 776.32 C 642.82 771.22 637.76 764.22 631.22 758.84 C 626.18 754.84 622.15 749.66 616.61 746.30 C 610.80 741.88 605.56 736.78 600.30 731.74 C 590.47 724.35 579.38 718.91 568.32 713.63 C 568.91 710.91 570.29 708.02 573.34 707.54 Z" />
</g>
<g id="#afdce7ff">
<path fill="#afdce7" opacity="1.00" d=" M 124.11 714.96 C 126.90 715.93 129.89 716.82 132.04 718.96 C 135.78 722.58 137.90 727.68 142.28 730.69 C 146.58 733.67 151.08 736.55 154.28 740.79 C 158.42 746.26 162.12 752.14 167.23 756.81 C 173.40 762.51 181.05 766.20 187.67 771.29 C 193.24 775.41 196.44 781.97 202.36 785.70 C 206.86 788.50 210.69 792.45 215.64 794.48 C 219.41 794.72 222.00 790.49 225.78 790.49 C 229.43 791.02 232.15 793.88 234.06 796.84 C 237.90 802.86 242.87 808.05 247.99 812.99 C 252.24 817.13 257.79 819.40 263.01 822.02 C 267.99 824.56 270.43 829.88 274.11 833.82 C 277.86 838.21 282.80 841.27 287.55 844.45 C 292.79 847.87 295.55 853.74 300.04 857.95 C 304.54 862.14 309.11 866.29 314.14 869.86 C 318.18 872.75 321.45 876.52 325.13 879.83 C 325.71 878.77 326.32 877.75 326.87 876.69 C 331.22 875.74 332.46 871.15 335.50 868.52 C 338.59 865.54 342.13 863.10 345.67 860.70 C 348.68 858.73 349.45 855.01 351.14 852.07 C 352.05 850.01 354.27 849.11 355.92 847.76 C 360.54 853.05 364.21 859.03 368.14 864.84 C 371.50 870.09 377.58 872.43 382.02 876.58 C 380.92 878.65 378.34 880.32 378.24 882.69 C 381.39 887.25 386.94 889.33 390.27 893.74 C 393.82 898.40 397.58 902.92 401.97 906.83 C 381.65 906.66 361.32 906.92 341.00 906.77 C 320.56 906.52 300.07 907.08 279.68 905.47 C 247.05 903.77 214.34 894.41 187.33 875.70 C 173.31 865.54 160.68 853.37 150.77 839.13 C 139.99 823.92 132.76 806.38 128.56 788.27 C 124.35 767.14 124.39 745.50 124.47 724.05 C 124.51 721.01 124.38 717.97 124.11 714.96 Z" />
<path fill="#afdce7" opacity="1.00" d=" M 883.50 735.48 C 887.38 733.04 890.43 729.19 894.93 727.83 C 894.61 734.16 895.09 740.51 894.57 746.84 C 895.40 753.97 894.51 761.15 895.30 768.28 C 894.90 777.72 892.44 786.99 890.06 796.10 C 879.43 833.64 852.61 866.02 818.21 884.25 C 798.65 894.63 776.98 900.69 755.06 903.40 C 730.46 906.07 705.69 906.49 680.96 906.54 C 647.29 906.70 613.62 906.76 579.95 906.80 C 571.86 906.47 563.74 907.10 555.67 906.50 C 555.96 906.41 556.53 906.22 556.82 906.13 C 563.95 905.96 571.11 906.54 578.21 905.66 C 580.17 898.58 588.31 897.52 593.15 893.18 C 595.83 890.57 598.80 888.23 601.28 885.42 C 603.95 881.38 606.84 877.49 609.51 873.45 C 611.56 870.61 614.46 868.55 616.85 866.01 C 619.45 862.87 624.01 863.36 627.22 861.24 C 628.94 859.55 630.00 857.33 631.66 855.60 C 633.47 854.06 636.41 853.85 637.34 851.37 C 639.00 847.81 641.86 845.05 645.41 843.39 C 647.50 842.61 648.34 840.54 649.15 838.65 C 658.36 837.97 668.37 839.37 675.87 845.12 C 679.47 847.97 678.15 852.96 679.18 856.85 C 683.69 864.19 690.97 869.20 697.82 874.21 C 703.20 878.09 707.06 883.72 712.68 887.33 C 713.73 886.15 714.78 884.98 715.90 883.87 C 718.31 881.83 721.12 880.34 723.86 878.78 C 730.23 875.71 729.05 866.70 734.45 862.62 C 736.52 861.37 739.22 860.73 740.35 858.35 C 743.42 852.77 747.02 847.48 749.53 841.61 C 751.24 837.58 754.54 834.59 757.45 831.44 C 760.21 828.38 764.72 827.62 767.18 824.23 C 769.49 821.21 772.27 818.61 774.72 815.73 C 778.21 811.52 780.27 805.80 785.49 803.32 C 789.13 800.71 794.04 801.44 797.61 798.69 C 799.79 797.15 802.89 796.76 804.28 794.27 C 806.67 790.42 809.99 787.31 813.25 784.22 C 816.28 781.21 820.77 780.64 824.19 778.22 C 829.26 774.92 834.95 772.49 841.03 771.97 C 845.52 771.68 849.04 768.68 852.88 766.70 C 855.88 765.35 856.43 761.73 858.44 759.42 C 861.27 755.97 864.42 752.79 867.48 749.54 C 870.15 746.62 873.96 745.29 877.14 743.08 C 879.47 740.73 880.55 737.26 883.50 735.48 Z" />
</g>
<g id="#bbdae0ff">
<path fill="#bbdae0" opacity="1.00" d=" M 870.76 731.84 C 881.22 728.12 887.49 717.57 898.23 714.35 C 898.54 716.25 897.84 718.09 897.41 719.93 C 896.34 723.54 897.14 727.33 897.12 731.04 C 897.46 738.38 896.75 745.70 896.62 753.04 C 896.34 758.13 896.36 763.27 895.30 768.28 C 894.51 761.15 895.40 753.97 894.57 746.84 C 895.09 740.51 894.61 734.16 894.93 727.83 C 890.43 729.19 887.38 733.04 883.50 735.48 C 880.55 737.26 879.47 740.73 877.14 743.08 C 873.96 745.29 870.15 746.62 867.48 749.54 C 864.42 752.79 861.27 755.97 858.44 759.42 C 856.43 761.73 855.88 765.35 852.88 766.70 C 849.04 768.68 845.52 771.68 841.03 771.97 C 834.95 772.49 829.26 774.92 824.19 778.22 C 820.77 780.64 816.28 781.21 813.25 784.22 C 809.99 787.31 806.67 790.42 804.28 794.27 C 802.89 796.76 799.79 797.15 797.61 798.69 C 794.04 801.44 789.13 800.71 785.49 803.32 C 780.27 805.80 778.21 811.52 774.72 815.73 C 772.27 818.61 769.49 821.21 767.18 824.23 C 764.72 827.62 760.21 828.38 757.45 831.44 C 754.54 834.59 751.24 837.58 749.53 841.61 C 747.02 847.48 743.42 852.77 740.35 858.35 C 739.22 860.73 736.52 861.37 734.45 862.62 C 729.05 866.70 730.23 875.71 723.86 878.78 C 721.12 880.34 718.31 881.83 715.90 883.87 C 715.39 878.49 714.21 872.71 716.63 867.61 C 718.82 863.85 722.83 861.58 725.11 857.90 C 726.24 855.64 723.92 853.83 722.32 852.68 C 718.42 849.85 713.29 847.24 712.49 841.97 C 711.56 838.19 714.37 835.21 715.71 831.98 C 714.47 827.84 711.67 824.31 710.86 820.02 C 710.10 817.11 710.75 814.12 711.12 811.22 C 713.23 805.12 716.87 799.76 720.27 794.33 C 721.29 792.92 722.24 791.20 723.99 790.60 C 726.05 791.21 726.14 793.63 726.44 795.40 C 727.09 802.22 726.29 809.07 726.70 815.91 C 726.93 820.08 727.00 824.27 727.01 828.46 C 727.71 828.30 729.09 827.96 729.78 827.80 C 731.27 824.06 728.67 819.12 732.41 816.35 C 736.52 813.12 735.25 807.56 735.36 803.01 C 735.07 795.32 736.30 787.71 737.29 780.11 C 737.54 778.16 738.25 776.31 738.95 774.49 C 743.98 773.59 748.36 770.78 753.16 769.15 C 758.19 767.34 763.08 765.15 767.97 762.99 C 774.26 760.26 779.06 755.12 785.19 752.12 C 790.95 749.25 797.27 746.96 803.81 747.34 C 803.78 748.79 803.66 750.36 802.29 751.22 C 797.70 754.98 793.37 759.10 788.40 762.36 C 785.78 764.26 782.81 766.26 781.67 769.43 C 781.08 772.36 781.36 775.37 781.25 778.34 C 779.85 784.76 773.54 787.97 768.82 791.74 C 764.08 795.55 758.34 797.85 753.54 801.52 C 750.50 805.90 747.95 810.62 745.06 815.12 C 754.54 814.69 762.43 808.28 769.28 802.29 C 775.44 796.18 783.82 793.40 791.29 789.36 C 798.27 785.01 804.85 779.91 810.46 773.87 C 814.47 769.77 817.35 764.60 821.97 761.10 C 825.82 758.00 830.34 755.95 834.66 753.64 C 839.37 751.21 842.39 746.68 846.50 743.49 C 853.57 737.77 862.41 735.08 870.76 731.84 Z" />
<path fill="#bbdae0" opacity="1.00" d=" M 545.69 845.79 C 559.82 837.84 573.99 829.93 588.02 821.80 C 588.53 821.97 589.55 822.29 590.06 822.45 C 587.45 827.15 584.34 831.83 579.67 834.71 C 576.06 836.87 573.28 840.17 571.69 844.07 C 578.10 843.09 584.06 840.43 589.98 837.94 C 596.43 835.04 603.04 832.53 609.30 829.22 C 613.78 827.01 617.89 823.99 622.74 822.58 C 626.55 826.48 630.69 830.26 635.98 832.02 C 640.74 833.50 644.43 837.14 649.15 838.65 C 648.34 840.54 647.50 842.61 645.41 843.39 C 641.86 845.05 639.00 847.81 637.34 851.37 C 636.41 853.85 633.47 854.06 631.66 855.60 C 630.00 857.33 628.94 859.55 627.22 861.24 C 624.01 863.36 619.45 862.87 616.85 866.01 C 614.46 868.55 611.56 870.61 609.51 873.45 C 606.84 877.49 603.95 881.38 601.28 885.42 C 598.80 888.23 595.83 890.57 593.15 893.18 C 588.31 897.52 580.17 898.58 578.21 905.66 C 571.11 906.54 563.95 905.96 556.82 906.13 C 560.34 901.59 564.99 897.97 567.85 892.93 C 570.23 889.08 572.25 884.73 576.13 882.14 C 579.99 879.61 584.42 877.96 587.93 874.89 C 595.13 868.79 601.95 862.22 609.53 856.58 C 614.59 852.96 620.23 849.13 622.32 842.95 C 622.75 841.31 620.53 840.78 619.38 840.50 C 615.29 839.98 611.41 841.99 607.92 843.86 C 603.16 846.72 598.49 849.76 593.80 852.73 C 587.76 856.73 580.75 859.26 575.46 864.35 C 568.45 870.75 558.09 873.69 553.56 882.57 C 550.99 886.85 549.61 892.35 544.92 894.90 C 540.34 897.18 539.81 902.76 537.77 906.92 C 527.21 906.65 516.65 906.99 506.10 906.74 C 510.48 902.90 514.73 898.90 519.39 895.39 C 522.11 893.13 525.13 891.15 527.44 888.46 C 528.39 880.37 526.90 872.14 527.76 864.03 C 529.44 861.38 531.88 859.36 533.97 857.07 C 537.76 853.20 540.86 848.48 545.69 845.79 Z" />
</g>
<g id="#86c9daff">
<path fill="#86c9da" opacity="1.00" d=" M 336.99 743.90 C 339.01 742.63 341.09 740.59 343.68 741.21 C 344.52 742.70 342.95 744.02 341.86 744.80 C 334.51 749.59 326.92 754.00 319.41 758.54 C 318.17 759.43 316.37 760.25 316.40 762.04 C 315.73 776.36 315.66 790.71 316.13 805.04 C 316.13 807.20 315.79 809.36 315.50 811.51 C 313.74 811.94 311.90 812.08 310.29 811.14 C 313.95 804.30 312.65 796.38 312.26 788.99 C 312.38 779.07 312.04 769.15 312.31 759.24 C 320.22 753.64 329.14 749.61 336.99 743.90 Z" />
</g>
<g id="#bddce1ff">
<path fill="#bddce1" opacity="1.00" d=" M 412.06 761.07 C 418.14 755.48 425.51 751.45 432.90 747.87 C 434.39 753.77 432.44 759.67 430.32 765.14 C 429.91 766.77 428.52 769.19 430.54 770.33 C 437.02 771.39 443.52 769.52 449.98 769.09 C 454.50 768.86 457.68 765.30 461.67 763.68 C 468.20 761.99 475.20 763.84 481.65 761.61 C 489.96 758.64 497.52 753.05 506.50 752.26 C 501.49 758.61 495.64 764.21 489.86 769.85 C 486.58 773.05 482.40 775.50 477.70 775.59 C 468.92 775.98 459.82 777.39 452.39 782.43 C 444.12 787.53 441.04 797.62 433.34 803.34 C 425.67 809.08 416.31 811.87 407.12 814.11 C 401.62 815.36 396.18 817.19 391.56 820.52 C 383.52 826.19 373.44 829.19 367.08 837.05 C 364.07 840.85 359.64 842.96 355.80 845.77 C 355.83 846.26 355.89 847.26 355.92 847.76 C 354.27 849.11 352.05 850.01 351.14 852.07 C 349.45 855.01 348.68 858.73 345.67 860.70 C 342.13 863.10 338.59 865.54 335.50 868.52 C 332.46 871.15 331.22 875.74 326.87 876.69 C 326.04 870.26 326.80 863.15 330.98 857.94 C 333.12 855.00 336.47 852.71 337.36 849.04 C 335.72 844.40 329.32 843.17 328.69 838.03 C 328.08 831.63 331.20 825.74 332.62 819.66 C 334.46 811.43 336.92 803.36 339.60 795.37 C 341.42 790.70 343.04 785.35 347.61 782.62 C 347.63 788.52 345.53 794.14 345.02 799.99 C 344.05 810.19 342.03 820.29 341.72 830.56 C 346.99 828.69 351.04 824.64 355.83 821.89 C 361.09 818.53 367.42 817.68 372.95 814.90 C 378.24 812.26 383.28 809.14 388.71 806.77 C 395.98 803.70 402.98 799.96 409.59 795.67 C 414.85 792.07 416.00 785.20 414.82 779.32 C 412.73 777.74 410.23 776.43 408.92 774.08 C 407.13 769.64 408.37 764.18 412.06 761.07 Z" />
</g>
<g id="#8abac7ff">
<path fill="#8abac7" opacity="1.00" d=" M 782.74 769.98 C 783.15 773.74 782.94 777.53 782.22 781.24 C 784.64 781.62 787.09 782.39 789.56 782.16 C 792.61 780.96 795.91 779.63 797.81 776.79 C 799.76 773.62 803.78 773.33 806.93 772.05 C 808.10 772.65 809.27 773.25 810.46 773.87 C 804.85 779.91 798.27 785.01 791.29 789.36 C 783.82 793.40 775.44 796.18 769.28 802.29 C 762.43 808.28 754.54 814.69 745.06 815.12 C 747.95 810.62 750.50 805.90 753.54 801.52 C 758.34 797.85 764.08 795.55 768.82 791.74 C 773.54 787.97 779.85 784.76 781.25 778.34 C 782.00 775.60 782.35 772.78 782.74 769.98 Z" />
</g>
<g id="#90c2cfff">
<path fill="#90c2cf" opacity="1.00" d=" M 523.29 778.30 C 524.44 776.46 526.66 776.79 528.36 777.56 C 540.61 782.83 551.19 791.20 563.34 796.69 C 569.48 799.81 576.16 801.64 582.40 804.54 C 570.71 809.17 565.31 821.51 555.06 828.08 C 546.23 833.73 536.46 837.85 528.01 844.11 C 523.60 847.33 520.30 851.72 517.02 856.02 C 510.71 864.29 503.30 871.63 496.66 879.62 C 491.90 885.42 489.92 892.93 489.39 900.30 C 489.66 892.13 486.65 884.08 488.23 875.94 C 488.98 870.48 492.28 865.87 495.57 861.63 C 498.74 857.53 503.56 853.69 503.26 848.00 C 502.20 838.63 497.50 830.22 494.62 821.37 C 493.14 817.16 494.67 812.07 498.34 809.51 C 502.70 806.24 507.77 804.16 512.57 801.65 C 514.06 793.11 517.98 785.10 523.29 778.30 Z" />
</g>
<g id="#bbdbe1ff">
<path fill="#bbdbe1" opacity="1.00" d=" M 555.06 828.08 C 565.31 821.51 570.71 809.17 582.40 804.54 C 587.36 807.02 592.43 809.56 596.47 813.45 C 584.18 818.50 573.28 826.28 561.59 832.52 C 555.60 835.86 549.55 839.08 543.60 842.47 C 537.41 845.81 533.92 852.20 528.90 856.88 C 526.56 859.60 522.74 861.94 522.88 865.97 C 523.03 872.67 523.50 879.39 523.10 886.10 C 523.10 887.95 521.53 889.17 520.31 890.34 C 513.79 895.88 507.19 901.34 500.63 906.84 C 496.57 906.85 492.51 906.84 488.46 906.77 C 488.86 904.62 489.22 902.47 489.39 900.30 C 489.92 892.93 491.90 885.42 496.66 879.62 C 503.30 871.63 510.71 864.29 517.02 856.02 C 520.30 851.72 523.60 847.33 528.01 844.11 C 536.46 837.85 546.23 833.73 555.06 828.08 Z" />
</g>
<g id="#7fa9b8ff">
<path fill="#7fa9b8" opacity="1.00" d=" M 596.47 813.45 C 597.47 813.24 598.48 813.09 599.50 812.94 C 599.48 813.40 599.43 814.30 599.41 814.76 C 595.62 817.11 591.75 819.36 588.02 821.80 C 573.99 829.93 559.82 837.84 545.69 845.79 C 540.86 848.48 537.76 853.20 533.97 857.07 C 531.88 859.36 529.44 861.38 527.76 864.03 C 526.90 872.14 528.39 880.37 527.44 888.46 C 525.13 891.15 522.11 893.13 519.39 895.39 C 514.73 898.90 510.48 902.90 506.10 906.74 C 504.27 906.77 502.45 906.79 500.63 906.84 C 507.19 901.34 513.79 895.88 520.31 890.34 C 521.53 889.17 523.10 887.95 523.10 886.10 C 523.50 879.39 523.03 872.67 522.88 865.97 C 522.74 861.94 526.56 859.60 528.90 856.88 C 533.92 852.20 537.41 845.81 543.60 842.47 C 549.55 839.08 555.60 835.86 561.59 832.52 C 573.28 826.28 584.18 818.50 596.47 813.45 Z" />
</g>
<g id="#8cbecbff">
<path fill="#8cbecb" opacity="1.00" d=" M 588.02 821.80 C 591.75 819.36 595.62 817.11 599.41 814.76 C 607.14 817.51 615.13 819.48 622.74 822.58 C 617.89 823.99 613.78 827.01 609.30 829.22 C 603.04 832.53 596.43 835.04 589.98 837.94 C 584.06 840.43 578.10 843.09 571.69 844.07 C 573.28 840.17 576.06 836.87 579.67 834.71 C 584.34 831.83 587.45 827.15 590.06 822.45 C 589.55 822.29 588.53 821.97 588.02 821.80 Z" />
</g>
<g id="#87c4d7ff">
<path fill="#87c4d7" opacity="1.00" d=" M 413.94 828.68 C 414.94 827.40 416.52 825.35 418.27 826.73 C 426.74 831.35 434.83 836.82 443.93 840.21 C 446.15 840.73 445.56 843.23 445.69 844.93 C 445.43 861.95 445.73 878.97 445.60 895.99 C 445.35 899.40 446.82 903.82 443.27 905.98 C 440.93 902.83 441.53 898.82 440.86 895.20 C 440.10 889.46 440.23 883.64 440.83 877.90 C 440.16 867.26 440.20 856.55 440.96 845.91 C 441.12 843.38 438.50 842.30 436.67 841.30 C 432.23 839.22 427.99 836.75 423.66 834.44 C 420.37 832.61 416.77 831.24 413.94 828.68 Z" />
</g>
<g id="#87c4d4ff">
<path fill="#87c4d4" opacity="1.00" d=" M 452.06 840.97 C 452.13 838.99 454.17 839.43 455.53 839.35 C 456.29 845.86 455.79 852.42 455.84 858.95 C 456.05 871.98 455.54 885.00 455.79 898.02 C 455.68 900.82 456.21 904.06 454.06 906.28 C 453.03 905.40 451.95 904.47 452.18 902.99 C 451.43 889.99 452.28 876.98 452.08 863.98 C 452.30 856.30 451.56 848.62 452.06 840.97 Z" />
</g>
<g id="#8dc6d8ff">
<path fill="#8dc6d8" opacity="1.00" d=" M 463.24 844.00 C 462.89 842.24 464.02 840.83 464.97 839.51 C 466.76 841.61 466.29 844.47 466.33 847.03 C 466.09 858.68 466.57 870.34 466.35 882.01 C 466.20 890.04 466.88 898.14 465.78 906.13 C 464.36 905.22 463.85 903.66 463.87 902.05 C 463.43 892.05 463.89 882.02 463.41 872.03 C 462.02 862.72 463.97 853.34 463.24 844.00 Z" />
</g>
<g id="#86b6c4ff">
<path fill="#86b6c4" opacity="1.00" d=" M 607.92 843.86 C 611.41 841.99 615.29 839.98 619.38 840.50 C 620.53 840.78 622.75 841.31 622.32 842.95 C 620.23 849.13 614.59 852.96 609.53 856.58 C 601.95 862.22 595.13 868.79 587.93 874.89 C 584.42 877.96 579.99 879.61 576.13 882.14 C 572.25 884.73 570.23 889.08 567.85 892.93 C 564.99 897.97 560.34 901.59 556.82 906.13 C 556.53 906.22 555.96 906.41 555.67 906.50 C 549.74 907.09 543.73 906.64 537.77 906.92 C 539.81 902.76 540.34 897.18 544.92 894.90 C 549.61 892.35 550.99 886.85 553.56 882.57 C 558.09 873.69 568.45 870.75 575.46 864.35 C 580.75 859.26 587.76 856.73 593.80 852.73 C 598.49 849.76 603.16 846.72 607.92 843.86 Z" />
</g>
<g id="#89c6daff">
<path fill="#89c6da" opacity="1.00" d=" M 407.83 853.02 C 408.81 851.41 410.86 850.36 412.59 851.61 C 418.57 855.38 425.56 856.88 432.28 858.80 C 433.93 859.17 434.82 860.89 434.44 862.49 C 433.69 867.32 433.62 872.21 433.88 877.08 C 434.37 886.74 434.10 896.41 433.63 906.07 C 431.03 905.28 431.06 902.18 430.84 899.98 C 430.73 894.67 430.69 889.37 430.44 884.08 C 430.75 876.57 430.94 868.99 429.47 861.58 C 421.86 860.24 413.65 858.43 407.83 853.02 Z" />
</g>
</svg>
