<?xml version="1.0" encoding="UTF-8" ?>
<!DOCTYPE svg PUBLIC "-//W3C//DTD SVG 1.1//EN" "http://www.w3.org/Graphics/SVG/1.1/DTD/svg11.dtd">
<svg width="597pt" height="597pt" viewBox="0 0 597 597" version="1.1" xmlns="http://www.w3.org/2000/svg">
<g id="#fefefeff">
<path fill="#fefefe" opacity="1.00" d=" M 290.30 69.83 C 293.21 69.83 295.34 71.83 297.09 73.95 C 323.40 104.49 350.66 134.22 376.34 165.29 C 386.71 160.65 394.02 150.59 403.18 143.81 C 438.73 184.50 476.71 222.91 513.28 262.68 C 515.24 264.34 516.38 266.66 517.01 269.11 C 499.74 258.03 484.32 243.58 468.34 230.61 C 464.83 228.69 462.08 234.54 458.21 233.06 C 454.32 226.88 450.58 220.56 445.81 215.00 C 441.41 217.04 440.05 223.08 437.54 227.11 C 424.08 219.08 414.88 205.19 402.36 195.74 C 399.17 201.91 394.21 206.84 390.59 212.70 C 390.00 212.75 388.83 212.85 388.24 212.90 C 375.08 196.47 362.75 178.98 348.25 163.78 C 342.47 168.77 339.27 178.03 332.26 180.85 C 324.88 172.62 318.76 163.38 311.74 154.87 C 305.16 158.83 303.20 167.89 296.37 171.19 C 293.62 165.13 291.04 157.17 286.13 153.34 C 275.50 168.15 265.85 184.20 255.08 199.15 C 249.80 190.17 246.39 180.09 240.02 171.78 C 220.07 188.53 200.69 205.89 181.13 223.09 C 174.57 214.32 170.06 204.16 162.97 195.76 C 151.51 206.75 140.23 217.97 129.64 229.80 C 125.29 230.62 123.57 223.66 119.39 224.26 C 106.76 236.39 94.00 248.43 80.13 259.15 C 75.60 262.62 71.81 267.65 66.08 269.17 C 102.73 226.22 144.58 187.60 180.42 143.83 C 190.41 149.84 198.55 158.90 207.82 166.07 C 234.35 133.18 263.71 102.62 290.30 69.83 Z" />
<path fill="#fefefe" opacity="1.00" d=" M 23.00 294.00 C 206.67 294.00 390.33 294.00 574.00 294.00 C 574.00 294.75 574.00 296.25 574.00 297.00 C 504.67 297.00 435.34 297.00 366.00 297.00 C 365.98 308.59 365.90 320.19 366.19 331.79 C 370.74 337.03 373.76 343.51 378.73 348.38 C 380.17 361.28 376.81 374.27 378.86 387.10 C 378.16 387.07 376.75 387.00 376.05 386.97 C 375.70 374.42 376.48 361.83 375.84 349.31 C 372.23 343.53 367.49 338.46 364.40 332.36 C 363.52 320.59 364.16 308.78 364.00 297.00 C 320.71 297.20 277.47 295.22 234.17 296.00 C 229.37 296.74 233.27 304.09 231.93 307.00 C 233.03 345.97 230.19 384.86 231.11 423.81 C 233.23 428.84 238.02 432.45 241.07 436.96 C 241.39 459.32 240.01 481.76 241.86 504.07 C 240.62 504.06 239.38 504.06 238.14 504.07 C 239.91 482.81 238.70 461.42 238.97 440.12 C 236.77 434.82 232.36 430.62 228.96 426.01 C 228.95 383.10 229.14 340.16 228.91 297.26 C 228.57 296.95 227.89 296.34 227.55 296.03 C 159.37 295.95 91.19 296.02 23.00 296.00 C 23.00 295.50 23.00 294.50 23.00 294.00 Z" />
<path fill="#fefefe" opacity="1.00" d=" M 150.00 302.00 C 150.50 302.00 151.51 302.00 152.01 302.00 C 152.20 318.87 151.61 335.76 152.21 352.63 C 158.70 361.76 168.45 368.41 174.95 377.46 C 175.17 396.30 174.91 415.15 174.99 434.00 C 174.25 434.00 172.77 434.00 172.03 434.00 C 173.86 415.83 172.84 397.50 172.91 379.28 C 165.99 370.93 158.67 362.64 150.30 355.65 C 149.69 337.77 150.11 319.88 150.00 302.00 Z" />
<path fill="#fefefe" opacity="1.00" d=" M 266.00 302.00 C 266.50 302.00 267.51 302.00 268.01 302.00 C 268.45 321.32 266.94 340.74 268.98 360.01 C 267.64 359.98 266.30 359.96 264.97 359.95 C 267.00 340.70 265.61 321.31 266.00 302.00 Z" />
<path fill="#fefefe" opacity="1.00" d=" M 324.00 302.00 C 324.75 302.00 326.25 302.00 327.00 302.00 C 326.96 330.35 327.09 358.70 326.92 387.05 C 329.71 390.26 332.24 393.81 335.76 396.30 C 336.17 414.45 336.10 432.61 335.81 450.77 C 332.80 453.10 329.95 455.61 327.11 458.13 C 326.92 471.75 327.01 485.37 327.01 499.00 C 326.50 499.00 325.50 499.00 325.00 499.00 C 325.08 484.74 324.76 470.48 325.20 456.24 C 328.24 453.96 331.09 451.44 333.88 448.85 C 333.98 431.99 334.19 415.12 333.94 398.26 C 331.06 394.45 327.61 391.10 324.19 387.78 C 323.75 359.19 324.11 330.59 324.00 302.00 Z" />
<path fill="#fefefe" opacity="1.00" d=" M 386.00 302.00 C 386.50 302.00 387.51 302.00 388.01 302.00 C 387.99 325.00 388.00 348.00 388.00 371.00 C 387.50 371.00 386.49 371.00 385.99 371.00 C 386.00 348.00 386.00 325.00 386.00 302.00 Z" />
<path fill="#fefefe" opacity="1.00" d=" M 412.07 303.33 C 412.97 302.68 413.91 302.07 414.87 301.51 C 415.61 325.40 411.83 349.54 414.99 373.30 C 412.87 374.23 408.64 373.98 410.78 370.81 C 413.74 348.53 411.00 325.77 412.07 303.33 Z" />
<path fill="#fefefe" opacity="1.00" d=" M 442.16 301.94 C 447.86 300.70 445.54 317.60 441.20 311.49 C 441.56 308.53 439.75 304.48 442.16 301.94 Z" />
<path fill="#fefefe" opacity="1.00" d=" M 550.00 302.00 C 550.50 302.00 551.51 302.00 552.01 302.00 C 552.00 309.33 552.00 316.66 552.00 324.00 C 551.50 324.00 550.49 324.00 549.99 324.00 C 549.98 316.66 549.98 309.33 550.00 302.00 Z" />
<path fill="#fefefe" opacity="1.00" d=" M 84.09 302.94 C 85.38 302.97 86.68 303.01 87.97 303.05 C 87.55 309.34 87.11 315.63 86.92 321.94 C 86.19 321.96 84.75 321.99 84.02 322.01 C 84.72 315.69 85.82 309.18 84.09 302.94 Z" />
<path fill="#fefefe" opacity="1.00" d=" M 178.98 303.01 C 179.74 303.01 181.25 303.00 182.01 303.00 C 182.01 309.89 181.76 316.78 182.05 323.68 C 188.95 333.53 198.16 341.58 204.96 351.47 C 205.81 389.63 203.58 428.02 205.90 466.07 C 204.62 466.03 203.33 466.00 202.05 465.98 C 201.06 427.69 203.44 389.47 202.85 351.20 C 193.75 343.63 187.08 333.54 179.25 324.71 C 179.01 317.48 178.97 310.24 178.98 303.01 Z" />
<path fill="#fefefe" opacity="1.00" d=" M 201.73 303.22 C 202.47 303.22 203.94 303.24 204.68 303.25 C 205.88 309.45 211.56 313.12 215.89 317.13 C 215.84 317.94 215.73 319.56 215.68 320.37 C 210.30 315.50 203.84 310.41 201.73 303.22 Z" />
<path fill="#fefefe" opacity="1.00" d=" M 425.99 302.99 C 426.49 302.99 427.51 303.00 428.01 303.00 C 428.44 315.33 426.93 327.82 428.86 340.07 C 427.61 339.82 426.37 339.54 425.13 339.26 C 426.65 327.23 425.84 315.08 425.99 302.99 Z" />
<path fill="#fefefe" opacity="1.00" d=" M 456.00 303.00 C 456.50 303.00 457.50 302.99 458.00 302.99 C 457.88 311.89 458.36 320.82 457.90 329.72 C 454.05 336.64 447.69 341.65 442.34 347.38 C 441.85 362.60 441.59 377.87 442.58 393.09 C 436.32 393.20 432.47 399.78 429.24 404.51 C 429.45 419.63 427.55 435.06 429.91 450.06 C 428.61 450.02 427.33 450.00 426.04 449.98 C 426.09 434.76 425.78 419.53 426.04 404.32 C 430.22 399.15 434.57 393.95 439.60 389.55 C 440.56 375.48 439.50 361.35 440.13 347.29 C 444.33 340.98 450.57 336.25 455.83 330.79 C 456.03 321.53 456.02 312.26 456.00 303.00 Z" />
<path fill="#fefefe" opacity="1.00" d=" M 108.05 304.02 C 108.80 304.02 110.30 304.04 111.05 304.05 C 108.51 314.59 109.43 325.80 117.16 333.84 C 117.89 333.91 119.34 334.04 120.07 334.11 C 122.02 326.43 118.97 317.42 122.78 310.45 C 123.07 318.57 123.09 326.71 122.90 334.84 C 121.90 335.25 120.89 335.67 119.90 336.10 C 121.84 338.49 123.78 340.88 125.76 343.27 C 125.97 351.40 126.01 359.55 126.31 367.69 C 129.70 372.59 132.75 377.82 137.85 381.20 C 138.12 388.44 137.35 395.83 139.02 402.96 C 137.68 402.97 136.35 402.99 135.03 403.00 C 134.97 396.13 135.28 389.24 134.77 382.39 C 131.67 377.77 126.89 374.42 124.23 369.52 C 123.75 361.34 124.02 353.15 124.06 344.97 C 118.36 338.63 112.86 332.11 107.36 325.59 C 107.00 318.43 108.34 311.21 108.05 304.02 Z" />
<path fill="#fefefe" opacity="1.00" d=" M 335.97 306.18 C 335.76 304.59 337.97 304.48 338.89 303.67 C 336.72 328.07 340.18 352.53 339.00 377.00 C 338.25 377.00 336.75 377.00 336.00 377.00 C 336.04 353.39 335.96 329.79 335.97 306.18 Z" />
<path fill="#fefefe" opacity="1.00" d=" M 484.00 304.00 C 484.74 304.01 486.21 304.03 486.95 304.05 C 487.15 310.37 486.49 316.85 487.89 323.09 C 486.60 323.05 485.32 323.01 484.04 322.97 C 484.00 316.64 483.99 310.32 484.00 304.00 Z" />
<path fill="#fefefe" opacity="1.00" d=" M 535.00 304.00 C 535.50 304.00 536.51 304.00 537.01 304.00 C 537.01 312.29 537.01 320.57 536.93 328.86 C 530.32 333.19 524.68 338.76 518.31 343.39 C 518.11 351.56 517.26 359.91 519.01 367.98 C 518.26 367.98 516.76 367.99 516.01 368.00 C 515.97 359.39 515.95 350.78 516.15 342.18 C 522.45 337.14 528.63 331.95 534.88 326.84 C 534.99 319.22 535.00 311.61 535.00 304.00 Z" />
<path fill="#fefefe" opacity="1.00" d=" M 562.07 303.97 C 562.80 303.98 564.24 304.00 564.97 304.01 C 565.02 317.34 565.01 330.67 564.98 344.00 C 564.24 344.00 562.76 344.00 562.03 344.00 C 563.40 330.72 563.70 317.23 562.07 303.97 Z" />
<path fill="#fefefe" opacity="1.00" d=" M 44.00 305.00 C 44.75 305.00 46.26 305.00 47.01 305.00 C 47.01 311.33 47.01 317.66 47.00 324.00 C 46.25 324.00 44.74 324.00 43.99 324.00 C 43.99 317.66 43.99 311.33 44.00 305.00 Z" />
<path fill="#fefefe" opacity="1.00" d=" M 60.00 305.00 C 60.50 305.00 61.50 305.00 62.00 305.00 C 62.01 315.00 62.01 325.00 62.00 335.00 C 61.50 335.00 60.50 335.00 60.00 335.00 C 59.99 325.00 59.99 315.00 60.00 305.00 Z" />
<path fill="#fefefe" opacity="1.00" d=" M 72.09 304.90 C 73.40 305.19 74.70 305.51 75.99 305.86 C 74.42 324.46 74.29 343.37 75.95 361.98 C 74.67 362.01 73.40 362.04 72.13 362.08 C 74.29 343.07 72.38 323.94 72.09 304.90 Z" />
<path fill="#fefefe" opacity="1.00" d=" M 519.00 309.00 C 519.50 309.00 520.50 309.00 521.00 309.00 L 521.00 310.00 C 521.50 310.00 522.50 310.00 523.00 310.00 C 523.00 310.75 523.00 312.25 523.00 313.00 L 522.00 313.00 C 522.00 313.50 522.00 314.50 522.00 315.00 C 521.25 315.00 519.75 315.00 519.00 315.00 L 519.00 314.00 L 518.00 314.00 C 517.99 312.66 517.99 311.33 518.00 310.00 L 519.00 310.00 L 519.00 309.00 Z" />
<path fill="#fefefe" opacity="1.00" d=" M 252.98 310.04 C 254.32 310.02 255.66 310.00 257.00 309.99 C 257.52 325.63 256.00 341.22 255.84 356.84 C 252.56 360.84 246.58 363.99 247.94 370.13 C 246.22 376.54 252.27 381.40 251.62 387.57 C 250.21 422.02 251.38 456.53 251.00 491.00 C 250.50 491.00 249.49 491.00 248.99 491.00 C 248.91 457.37 249.17 423.73 248.91 390.11 C 246.26 378.58 241.60 363.41 253.60 355.58 C 253.60 340.45 255.43 325.04 252.98 310.04 Z" />
<path fill="#fefefe" opacity="1.00" d=" M 469.00 309.99 C 469.76 310.01 471.28 310.04 472.04 310.06 C 470.35 335.25 470.19 360.55 469.84 385.80 C 462.89 388.58 459.55 395.88 453.27 399.35 C 453.27 398.58 453.26 397.05 453.26 396.28 C 458.51 392.24 463.26 387.60 467.85 382.83 C 468.35 358.55 469.51 334.29 469.00 309.99 Z" />
<path fill="#fefefe" opacity="1.00" d=" M 30.99 310.99 C 31.50 310.99 32.51 310.99 33.02 310.99 C 33.33 321.67 32.06 332.50 33.88 343.09 C 32.58 342.81 31.30 342.49 30.02 342.14 C 31.53 331.82 30.95 321.37 30.99 310.99 Z" />
<path fill="#fefefe" opacity="1.00" d=" M 163.00 311.00 C 164.33 311.00 165.66 311.00 167.00 311.00 C 167.00 312.33 167.00 313.66 167.00 315.00 L 166.00 315.00 L 166.00 316.00 C 165.25 316.00 163.75 316.00 163.00 316.00 C 163.00 314.33 163.00 312.66 163.00 311.00 Z" />
<path fill="#fefefe" opacity="1.00" d=" M 284.00 314.00 C 284.50 314.00 285.50 314.00 286.00 314.00 C 285.89 332.56 286.19 351.13 285.96 369.69 C 281.45 377.08 270.92 382.10 272.06 392.10 C 272.67 440.68 270.58 489.50 273.00 537.96 C 271.68 537.97 270.35 537.98 269.03 538.00 C 271.34 486.86 269.25 435.53 270.07 384.32 C 274.51 379.03 279.29 374.01 283.77 368.73 C 284.25 350.49 283.90 332.24 284.00 314.00 Z" />
<path fill="#fefefe" opacity="1.00" d=" M 312.00 314.00 C 312.75 314.00 314.25 314.00 315.00 314.00 C 314.30 370.59 313.48 427.19 314.12 483.80 C 314.97 486.82 318.14 488.69 319.76 491.33 C 320.42 505.54 319.18 519.84 320.98 534.00 C 319.64 533.98 318.30 533.96 316.97 533.94 C 318.42 520.82 318.24 507.57 317.86 494.40 C 315.73 489.99 310.81 486.42 312.04 480.89 C 311.93 425.26 312.04 369.63 312.00 314.00 Z" />
<path fill="#fefefe" opacity="1.00" d=" M 441.00 314.00 C 442.33 314.00 443.66 314.00 445.00 314.00 C 445.00 314.75 445.00 316.25 445.00 317.00 C 443.66 317.00 442.33 317.00 441.00 317.00 C 441.00 316.25 441.00 314.75 441.00 314.00 Z" />
<path fill="#fefefe" opacity="1.00" d=" M 498.14 315.16 C 498.63 315.16 499.59 315.16 500.08 315.16 C 503.65 330.78 486.59 337.42 480.24 349.28 C 480.05 364.52 479.69 380.02 482.00 395.12 C 480.73 395.49 479.46 395.85 478.20 396.21 C 477.99 380.54 477.75 364.84 478.10 349.18 C 483.07 336.80 501.26 330.70 498.14 315.16 Z" />
<path fill="#fefefe" opacity="1.00" d=" M 135.95 317.92 C 136.72 317.95 138.25 318.01 139.01 318.04 L 138.77 323.34 C 134.61 323.30 132.79 321.15 135.95 317.92 Z" />
<path fill="#fefefe" opacity="1.00" d=" M 398.06 317.99 C 399.36 317.99 400.66 318.00 401.97 318.01 C 401.94 349.62 402.16 381.23 401.90 412.84 C 402.25 420.59 396.63 426.54 394.37 433.52 C 393.72 441.32 394.00 449.17 394.01 457.01 C 393.50 457.01 392.50 457.01 392.00 457.01 C 391.87 444.29 389.33 430.60 398.47 420.43 C 398.91 386.33 400.13 352.02 398.06 317.99 Z" />
<path fill="#fefefe" opacity="1.00" d=" M 519.00 321.00 C 519.50 321.00 520.50 321.00 521.00 321.00 L 521.00 322.00 L 522.00 322.00 C 521.99 323.33 521.99 324.66 522.00 326.00 C 520.66 326.00 519.33 326.00 518.00 326.00 L 518.00 325.00 L 517.00 325.00 C 517.00 324.50 517.00 323.50 517.00 323.00 L 518.00 323.00 C 518.25 322.75 518.75 322.25 519.00 322.00 L 519.00 321.00 Z" />
<path fill="#fefefe" opacity="1.00" d=" M 90.00 326.00 C 90.50 326.00 91.50 326.00 92.00 326.00 L 92.00 327.00 L 93.00 327.00 C 93.00 327.75 93.00 329.25 93.00 330.00 L 92.00 330.00 L 92.00 331.00 C 91.50 331.00 90.50 331.00 90.00 331.00 L 90.00 330.00 C 89.50 330.00 88.50 330.00 88.00 330.00 C 88.00 329.25 88.00 327.75 88.00 327.00 C 88.50 327.00 89.50 327.00 90.00 327.00 L 90.00 326.00 Z" />
<path fill="#fefefe" opacity="1.00" d=" M 206.00 327.00 C 206.75 327.00 208.25 327.00 209.00 327.00 C 209.00 327.75 209.00 329.25 209.00 330.00 C 208.25 330.00 206.75 330.00 206.00 330.00 C 206.00 329.25 206.00 327.75 206.00 327.00 Z" />
<path fill="#fefefe" opacity="1.00" d=" M 297.95 326.92 C 298.72 326.95 300.25 327.01 301.01 327.04 L 300.77 332.34 C 296.61 332.30 294.79 330.15 297.95 326.92 Z" />
<path fill="#fefefe" opacity="1.00" d=" M 349.00 326.99 C 349.76 327.01 351.28 327.04 352.04 327.06 C 350.39 340.91 350.96 354.89 351.15 368.81 C 356.34 370.43 361.52 372.09 366.85 373.20 C 366.92 377.77 367.00 382.39 367.03 386.98 C 366.52 386.98 365.52 386.98 365.01 386.97 C 364.99 383.01 364.95 379.06 364.91 375.12 C 359.46 374.49 354.16 373.17 349.26 370.71 C 348.79 356.14 349.04 341.56 349.00 326.99 Z" />
<path fill="#fefefe" opacity="1.00" d=" M 137.79 336.31 C 131.69 337.19 131.69 329.81 137.79 330.69 L 137.79 336.31 Z" />
<path fill="#fefefe" opacity="1.00" d=" M 178.66 334.53 C 174.85 331.81 179.11 331.04 181.83 330.69 C 182.19 351.12 181.92 371.56 182.00 392.00 C 181.50 392.00 180.49 392.00 179.99 392.00 C 180.56 372.82 179.16 353.69 178.66 334.53 Z" />
<path fill="#fefefe" opacity="1.00" d=" M 48.00 332.00 C 48.75 332.00 50.25 332.00 51.00 332.00 L 51.00 333.00 L 52.00 333.00 C 52.00 333.75 52.00 335.25 52.00 336.00 L 51.00 336.00 L 51.00 337.00 C 49.67 337.00 48.33 337.00 47.00 337.00 C 47.00 335.66 47.00 334.33 47.00 333.00 L 48.00 333.00 L 48.00 332.00 Z" />
<path fill="#fefefe" opacity="1.00" d=" M 436.65 332.06 C 437.34 332.63 444.63 331.28 442.96 334.81 C 440.45 337.62 436.54 335.72 436.65 332.06 Z" />
<path fill="#fefefe" opacity="1.00" d=" M 83.69 335.21 L 89.31 335.21 C 90.19 341.31 82.81 341.31 83.69 335.21 Z" />
<path fill="#fefefe" opacity="1.00" d=" M 241.00 338.00 C 241.75 338.00 243.25 338.00 244.00 338.00 L 244.00 339.00 L 245.00 339.00 C 245.00 339.75 245.00 341.25 245.00 342.00 L 244.00 342.00 L 244.00 343.00 C 243.25 343.00 241.75 343.00 241.00 343.00 L 241.00 342.00 L 240.00 342.00 C 240.00 341.50 240.00 340.50 240.00 340.00 L 241.00 340.00 C 241.00 339.50 241.00 338.50 241.00 338.00 Z" />
<path fill="#fefefe" opacity="1.00" d=" M 544.00 338.00 C 544.75 338.00 546.25 338.00 547.00 338.00 C 547.00 338.50 547.00 339.50 547.00 340.00 L 548.00 340.00 C 548.00 340.75 548.00 342.25 548.00 343.00 L 547.00 343.00 L 547.00 344.00 C 546.25 344.00 544.75 344.00 544.00 344.00 L 544.00 343.00 L 543.00 343.00 C 543.00 342.50 543.00 341.50 543.00 341.00 L 542.00 341.00 C 542.19 339.86 542.86 339.19 544.00 339.00 L 544.00 338.00 Z" />
<path fill="#fefefe" opacity="1.00" d=" M 100.04 348.08 C 105.53 347.14 108.45 337.44 114.26 339.98 C 111.17 344.37 105.88 346.40 102.11 350.14 C 102.69 365.39 100.51 380.90 102.87 396.04 C 101.63 396.04 100.39 396.05 99.15 396.07 C 100.85 380.13 99.63 364.07 100.04 348.08 Z" />
<path fill="#fefefe" opacity="1.00" d=" M 503.00 343.00 C 503.50 343.00 504.50 343.00 505.00 343.00 L 505.00 344.00 L 506.00 344.00 C 506.00 344.75 506.00 346.25 506.00 347.00 L 505.00 347.00 C 505.00 347.50 505.00 348.50 505.00 349.00 C 504.25 349.00 502.75 349.00 502.00 349.00 C 502.00 348.50 502.00 347.50 502.00 347.00 L 501.00 347.00 C 501.00 346.50 501.00 345.50 501.00 345.00 L 502.00 345.00 C 502.25 344.75 502.75 344.25 503.00 344.00 L 503.00 343.00 Z" />
<path fill="#fefefe" opacity="1.00" d=" M 52.00 351.00 C 52.20 349.86 52.86 349.19 54.00 349.00 L 54.00 350.00 C 54.50 350.00 55.50 350.00 56.00 350.00 C 56.00 351.33 56.00 352.66 56.00 354.00 L 55.00 354.00 L 55.00 355.00 C 54.50 355.00 53.50 355.00 53.00 355.00 L 53.00 354.00 C 52.50 354.00 51.50 354.00 51.00 354.00 C 51.00 353.25 51.00 351.75 51.00 351.00 L 52.00 351.00 Z" />
<path fill="#fefefe" opacity="1.00" d=" M 86.00 350.00 C 87.33 350.00 88.67 350.00 90.00 350.00 C 90.00 351.33 90.00 352.66 90.00 354.00 L 89.00 354.00 L 89.00 355.00 C 88.25 355.00 86.75 355.00 86.00 355.00 L 86.00 354.00 L 85.00 354.00 C 85.00 353.25 85.00 351.75 85.00 351.00 L 86.00 351.00 L 86.00 350.00 Z" />
<path fill="#fefefe" opacity="1.00" d=" M 214.00 350.00 C 214.75 350.00 216.25 350.00 217.00 350.00 L 217.00 351.00 L 218.00 351.00 C 218.00 351.75 218.00 353.25 218.00 354.00 L 217.00 354.00 L 217.00 355.00 C 216.25 355.00 214.75 355.00 214.00 355.00 L 214.00 354.00 L 213.00 354.00 C 213.00 353.25 213.00 351.75 213.00 351.00 L 214.00 351.00 L 214.00 350.00 Z" />
<path fill="#fefefe" opacity="1.00" d=" M 297.00 350.00 C 297.75 350.00 299.25 350.00 300.00 350.00 L 300.00 351.00 L 301.00 351.00 C 301.00 351.75 301.00 353.25 301.00 354.00 L 300.00 354.00 L 300.00 355.00 C 299.25 355.00 297.75 355.00 297.00 355.00 L 297.00 354.00 L 296.00 354.00 C 296.00 353.25 296.00 351.75 296.00 351.00 L 297.00 351.00 L 297.00 350.00 Z" />
<path fill="#fefefe" opacity="1.00" d=" M 360.00 352.00 C 360.75 352.00 362.25 352.00 363.00 352.00 L 363.00 353.00 L 364.00 353.00 C 364.00 354.33 364.00 355.66 364.00 357.00 C 363.50 357.00 362.50 357.00 362.00 357.00 L 362.00 358.00 C 361.50 358.00 360.50 358.00 360.00 358.00 L 360.00 357.00 L 359.00 357.00 C 359.00 355.66 359.00 354.33 359.00 353.00 L 360.00 353.00 L 360.00 352.00 Z" />
<path fill="#fefefe" opacity="1.00" d=" M 112.00 354.00 C 113.33 354.00 114.67 354.00 116.00 354.00 C 116.00 354.75 116.00 356.25 116.00 357.00 L 115.00 357.00 L 115.00 358.00 C 114.50 358.00 113.50 358.00 113.00 358.00 L 113.00 357.00 L 112.00 357.00 C 112.00 356.25 112.00 354.75 112.00 354.00 Z" />
<path fill="#fefefe" opacity="1.00" d=" M 429.79 359.31 C 423.69 360.19 423.69 352.81 429.79 353.69 L 429.79 359.31 Z" />
<path fill="#fefefe" opacity="1.00" d=" M 190.00 355.00 C 190.75 355.00 192.25 355.00 193.00 355.00 C 193.00 355.75 193.00 357.25 193.00 358.00 C 191.66 358.00 190.33 358.00 189.00 358.00 C 189.00 357.50 189.00 356.50 189.00 356.00 L 190.00 356.00 L 190.00 355.00 Z" />
<path fill="#fefefe" opacity="1.00" d=" M 503.00 355.00 C 504.33 355.00 505.66 355.00 507.00 355.00 C 506.99 356.33 506.99 357.66 507.00 359.00 L 506.00 359.00 L 506.00 360.00 C 505.25 360.00 503.75 360.00 503.00 360.00 L 503.00 359.00 L 502.00 359.00 C 502.00 358.25 502.00 356.75 502.00 356.00 L 503.00 356.00 L 503.00 355.00 Z" />
<path fill="#fefefe" opacity="1.00" d=" M 456.00 357.00 C 456.75 357.00 458.25 357.00 459.00 357.00 L 459.00 358.00 L 460.00 358.00 C 460.00 358.75 460.00 360.25 460.00 361.00 L 459.00 361.00 L 459.00 362.00 C 457.66 362.00 456.33 362.00 455.00 362.00 C 454.99 360.66 454.99 359.33 455.00 358.00 L 456.00 358.00 L 456.00 357.00 Z" />
<path fill="#fefefe" opacity="1.00" d=" M 490.00 357.00 C 490.75 357.00 492.25 357.00 493.00 357.00 L 493.00 358.00 L 494.00 358.00 C 494.00 358.50 494.00 359.50 494.00 360.00 L 493.00 360.00 L 493.00 361.00 C 492.25 361.00 490.75 361.00 490.00 361.00 C 489.99 359.66 489.99 358.33 490.00 357.00 Z" />
<path fill="#fefefe" opacity="1.00" d=" M 150.00 365.00 C 151.33 365.00 152.66 365.00 154.00 365.00 C 154.00 366.33 154.00 367.66 154.00 369.00 L 153.00 369.00 L 153.00 370.00 C 152.25 370.00 150.75 370.00 150.00 370.00 L 150.00 369.00 L 149.00 369.00 C 149.00 368.25 149.00 366.75 149.00 366.00 L 150.00 366.00 L 150.00 365.00 Z" />
<path fill="#fefefe" opacity="1.00" d=" M 294.00 365.00 C 294.50 365.00 295.50 365.00 296.00 365.00 L 296.00 366.00 L 297.00 366.00 C 297.00 366.75 297.00 368.25 297.00 369.00 L 296.00 369.00 L 296.00 370.00 C 294.66 370.00 293.33 370.00 292.00 370.00 C 292.00 368.66 292.00 367.33 292.00 366.00 C 292.50 366.00 293.50 366.00 294.00 366.00 L 294.00 365.00 Z" />
<path fill="#fefefe" opacity="1.00" d=" M 115.00 370.00 C 115.75 370.00 117.25 370.00 118.00 370.00 L 118.00 371.00 L 119.00 371.00 C 119.00 371.75 119.00 373.25 119.00 374.00 L 118.00 374.00 L 118.00 375.00 C 116.67 375.00 115.33 375.00 114.00 375.00 C 114.00 373.66 114.00 372.33 114.00 371.00 L 115.00 371.00 L 115.00 370.00 Z" />
<path fill="#fefefe" opacity="1.00" d=" M 219.00 370.00 C 220.33 370.00 221.66 370.00 223.00 370.00 L 223.00 371.00 L 224.00 371.00 C 224.00 371.75 224.00 373.25 224.00 374.00 L 223.00 374.00 L 223.00 375.00 C 222.25 375.00 220.75 375.00 220.00 375.00 L 220.00 374.00 C 218.86 373.80 218.19 373.13 218.00 372.00 L 219.00 372.00 C 219.00 371.50 219.00 370.50 219.00 370.00 Z" />
<path fill="#fefefe" opacity="1.00" d=" M 510.00 371.00 C 510.75 371.00 512.25 371.00 513.00 371.00 L 513.00 372.00 L 514.00 372.00 C 513.99 373.33 513.99 374.66 514.00 376.00 L 513.00 376.00 L 513.00 377.00 C 512.25 377.00 510.75 377.00 510.00 377.00 L 510.00 376.00 L 509.00 376.00 C 508.99 374.66 508.99 373.33 509.00 372.00 L 510.00 372.00 L 510.00 371.00 Z" />
<path fill="#fefefe" opacity="1.00" d=" M 423.15 375.12 C 423.87 375.10 425.30 375.07 426.01 375.06 C 425.93 375.70 425.77 377.00 425.68 377.65 C 420.16 381.05 416.99 387.34 411.27 390.35 C 411.27 389.58 411.27 388.06 411.27 387.29 C 416.00 384.05 419.76 379.69 423.15 375.12 Z" />
<path fill="#fefefe" opacity="1.00" d=" M 433.00 381.00 C 433.75 381.00 435.25 381.00 436.00 381.00 C 435.99 382.66 435.99 384.33 436.00 386.00 C 435.25 386.00 433.75 386.00 433.00 386.00 L 433.00 385.00 L 432.00 385.00 C 432.00 384.25 432.00 382.75 432.00 382.00 L 433.00 382.00 L 433.00 381.00 Z" />
<path fill="#fefefe" opacity="1.00" d=" M 142.00 382.00 C 142.75 382.00 144.25 382.00 145.00 382.00 C 145.00 394.66 145.01 407.33 145.00 420.00 C 144.25 420.00 142.75 420.00 142.00 420.00 C 141.99 407.33 141.99 394.66 142.00 382.00 Z" />
<path fill="#fefefe" opacity="1.00" d=" M 151.00 382.00 C 151.75 382.00 153.25 382.00 154.00 382.00 C 154.00 382.75 154.00 384.25 154.00 385.00 C 153.25 385.00 151.75 385.00 151.00 385.00 C 151.00 384.25 151.00 382.75 151.00 382.00 Z" />
<path fill="#fefefe" opacity="1.00" d=" M 220.00 386.00 C 220.75 386.00 222.25 386.00 223.00 386.00 L 223.00 387.00 L 224.00 387.00 C 224.00 387.75 224.00 389.25 224.00 390.00 L 223.00 390.00 L 223.00 391.00 C 222.25 391.00 220.75 391.00 220.00 391.00 L 220.00 390.00 L 219.00 390.00 C 219.00 389.25 219.00 387.75 219.00 387.00 L 220.00 387.00 L 220.00 386.00 Z" />
<path fill="#fefefe" opacity="1.00" d=" M 298.99 388.00 C 299.74 388.00 301.25 388.00 302.01 388.00 C 301.97 406.29 302.09 424.58 301.91 442.87 C 297.65 449.07 290.01 452.01 286.21 458.51 C 285.98 491.25 285.35 524.08 286.97 556.78 C 286.51 562.21 279.50 556.56 282.99 552.85 C 284.87 521.04 283.56 489.13 284.10 457.28 C 288.24 451.23 294.59 446.87 299.87 441.79 C 300.77 423.84 298.60 405.94 298.99 388.00 Z" />
<path fill="#fefefe" opacity="1.00" d=" M 342.95 388.03 C 343.72 388.02 345.25 388.00 346.01 387.99 C 345.99 407.33 346.00 426.66 346.00 446.00 C 345.50 446.00 344.49 446.00 343.99 446.00 C 344.54 426.65 343.38 407.35 342.95 388.03 Z" />
<path fill="#fefefe" opacity="1.00" d=" M 283.00 398.00 C 283.75 398.00 285.25 398.00 286.00 398.00 C 286.00 398.50 286.00 399.50 286.00 400.00 L 287.00 400.00 C 287.00 400.75 287.00 402.25 287.00 403.00 L 286.00 403.00 L 286.00 404.00 C 285.25 404.00 283.75 404.00 283.00 404.00 C 283.00 403.50 283.00 402.50 283.00 402.00 L 282.00 402.00 C 282.00 401.25 282.00 399.75 282.00 399.00 L 283.00 399.00 L 283.00 398.00 Z" />
<path fill="#fefefe" opacity="1.00" d=" M 152.00 400.00 C 152.75 400.00 154.25 400.00 155.00 400.00 L 155.00 401.00 L 156.00 401.00 C 156.00 401.50 156.00 402.50 156.00 403.00 L 155.00 403.00 L 155.00 404.00 C 154.25 404.00 152.75 404.00 152.00 404.00 L 152.00 403.00 L 151.00 403.00 C 151.00 402.50 151.00 401.50 151.00 401.00 L 152.00 401.00 L 152.00 400.00 Z" />
<path fill="#fefefe" opacity="1.00" d=" M 189.00 406.00 C 189.75 406.00 191.25 406.00 192.00 406.00 L 192.00 407.00 L 193.00 407.00 C 193.00 408.33 193.00 409.66 193.00 411.00 C 191.66 410.99 190.33 410.99 189.00 411.00 L 189.00 410.00 L 188.00 410.00 C 188.00 409.25 188.00 407.75 188.00 407.00 L 189.00 407.00 L 189.00 406.00 Z" />
<path fill="#fefefe" opacity="1.00" d=" M 372.09 417.49 C 374.78 413.84 376.67 408.93 381.00 406.87 C 380.52 412.49 373.78 415.55 374.98 421.71 C 377.00 425.01 380.03 427.56 382.82 430.21 C 383.88 443.77 381.47 457.62 383.90 471.06 C 383.19 471.04 381.76 471.00 381.04 470.98 C 380.85 458.69 381.22 446.40 380.98 434.13 C 379.01 428.21 370.27 424.73 372.09 417.49 Z" />
<path fill="#fefefe" opacity="1.00" d=" M 410.00 412.00 C 411.33 411.99 412.66 411.99 414.00 412.00 C 413.99 413.33 413.99 414.66 414.00 416.00 L 413.00 416.00 L 413.00 417.00 C 412.50 417.00 411.50 417.00 411.00 417.00 L 411.00 416.00 C 410.75 415.75 410.25 415.25 410.00 415.00 L 409.00 415.00 C 409.00 414.50 409.00 413.50 409.00 413.00 L 410.00 413.00 L 410.00 412.00 Z" />
<path fill="#fefefe" opacity="1.00" d=" M 440.00 415.00 C 441.33 414.99 442.66 414.99 444.00 415.00 C 444.00 415.75 444.00 417.25 444.00 418.00 L 443.00 418.00 L 443.00 419.00 C 442.50 419.00 441.50 419.00 441.00 419.00 L 441.00 418.00 L 440.00 418.00 C 440.00 417.25 440.00 415.75 440.00 415.00 Z" />
<path fill="#fefefe" opacity="1.00" d=" M 452.00 416.00 C 453.33 415.99 454.66 415.99 456.00 416.00 C 455.99 417.33 455.99 418.66 456.00 420.00 L 455.00 420.00 L 455.00 421.00 C 454.25 421.00 452.75 421.00 452.00 421.00 L 452.00 420.00 L 451.00 420.00 C 451.00 419.25 451.00 417.75 451.00 417.00 L 452.00 417.00 L 452.00 416.00 Z" />
<path fill="#fefefe" opacity="1.00" d=" M 284.00 420.00 C 284.50 420.00 285.50 420.00 286.00 420.00 L 286.00 421.00 C 286.25 421.25 286.75 421.75 287.00 422.00 L 288.00 422.00 C 288.00 422.50 288.00 423.50 288.00 424.00 L 287.00 424.00 C 286.75 424.25 286.25 424.75 286.00 425.00 L 286.00 426.00 C 285.50 426.00 284.50 426.00 284.00 426.00 L 284.00 425.00 L 283.00 425.00 C 283.00 423.66 283.00 422.33 283.00 421.00 L 284.00 421.00 L 284.00 420.00 Z" />
<path fill="#fefefe" opacity="1.00" d=" M 364.01 426.15 C 363.73 424.14 365.22 422.58 366.79 421.60 C 366.02 446.30 364.70 471.35 367.02 495.95 C 366.27 495.97 364.77 495.99 364.02 496.01 C 364.03 472.72 363.92 449.43 364.01 426.15 Z" />
<path fill="#fefefe" opacity="1.00" d=" M 216.00 423.00 C 217.33 422.99 218.66 422.99 220.00 423.00 L 220.00 424.00 L 221.00 424.00 C 221.00 424.50 221.00 425.50 221.00 426.00 L 220.00 426.00 C 220.00 426.50 220.00 427.50 220.00 428.00 C 219.25 428.00 217.75 428.00 217.00 428.00 L 217.00 427.00 C 216.75 426.75 216.25 426.25 216.00 426.00 L 215.00 426.00 C 215.00 425.50 215.00 424.50 215.00 424.00 L 216.00 424.00 L 216.00 423.00 Z" />
<path fill="#fefefe" opacity="1.00" d=" M 187.74 428.20 C 189.46 427.70 191.18 427.21 192.91 426.76 L 192.79 432.26 C 190.11 432.50 187.68 431.13 187.74 428.20 Z" />
<path fill="#fefefe" opacity="1.00" d=" M 412.00 428.00 C 412.75 428.00 414.25 428.00 415.00 428.00 L 415.00 429.00 L 416.00 429.00 C 416.00 429.50 416.00 430.50 416.00 431.00 L 415.00 431.00 L 415.00 432.00 C 414.50 432.00 413.50 432.00 413.00 432.00 L 413.00 431.00 L 412.00 431.00 C 412.00 430.25 412.00 428.75 412.00 428.00 Z" />
<path fill="#fefefe" opacity="1.00" d=" M 165.00 435.00 C 165.75 435.00 167.25 435.00 168.00 435.00 L 168.00 436.00 L 169.00 436.00 C 169.00 436.75 169.00 438.25 169.00 439.00 C 167.33 438.99 165.66 438.99 164.00 439.00 C 164.00 438.25 164.00 436.75 164.00 436.00 L 165.00 436.00 L 165.00 435.00 Z" />
<path fill="#fefefe" opacity="1.00" d=" M 186.00 449.00 C 187.33 448.99 188.66 448.99 190.00 449.00 C 190.00 449.75 190.00 451.25 190.00 452.00 C 188.66 451.99 187.33 451.99 186.00 452.00 C 186.00 451.25 186.00 449.75 186.00 449.00 Z" />
<path fill="#fefefe" opacity="1.00" d=" M 354.00 450.00 C 355.33 449.99 356.66 449.99 358.00 450.00 C 358.00 451.66 358.00 453.33 358.00 455.00 C 357.25 455.00 355.75 455.00 355.00 455.00 L 355.00 454.00 L 354.00 454.00 C 354.00 452.66 354.00 451.33 354.00 450.00 Z" />
<path fill="#fefefe" opacity="1.00" d=" M 397.00 453.00 C 397.50 453.00 398.50 453.00 399.00 453.00 L 399.00 454.00 L 400.00 454.00 C 400.00 454.75 400.00 456.25 400.00 457.00 C 399.25 457.00 397.75 457.00 397.00 457.00 L 397.00 456.00 L 396.00 456.00 C 396.00 455.50 396.00 454.50 396.00 454.00 L 397.00 454.00 L 397.00 453.00 Z" />
<path fill="#fefefe" opacity="1.00" d=" M 220.00 458.00 C 220.75 458.00 222.25 458.00 223.00 458.00 L 223.00 459.00 L 224.00 459.00 C 224.00 459.50 224.00 460.50 224.00 461.00 L 223.00 461.00 C 223.00 461.50 223.00 462.50 223.00 463.00 C 222.25 463.00 220.75 463.00 220.00 463.00 L 220.00 462.00 L 219.00 462.00 C 219.00 461.25 219.00 459.75 219.00 459.00 L 220.00 459.00 L 220.00 458.00 Z" />
<path fill="#fefefe" opacity="1.00" d=" M 342.00 462.00 C 342.50 462.00 343.50 462.00 344.00 462.00 L 344.00 463.00 C 344.25 463.25 344.75 463.75 345.00 464.00 L 346.00 464.00 C 346.00 464.50 346.00 465.50 346.00 466.00 L 345.00 466.00 L 345.00 467.00 C 343.66 466.99 342.33 466.99 341.00 467.00 C 341.00 465.66 341.00 464.33 341.00 463.00 L 342.00 463.00 L 342.00 462.00 Z" />
<path fill="#fefefe" opacity="1.00" d=" M 354.00 474.00 C 354.50 474.00 355.50 474.00 356.00 474.00 L 356.00 475.00 L 357.00 475.00 C 357.00 476.33 357.00 477.66 357.00 479.00 L 356.00 479.00 L 356.00 480.00 C 355.25 480.00 353.75 480.00 353.00 480.00 C 353.00 479.50 353.00 478.50 353.00 478.00 L 352.00 478.00 C 352.00 477.50 352.00 476.50 352.00 476.00 L 353.00 476.00 C 353.25 475.75 353.75 475.25 354.00 475.00 L 354.00 474.00 Z" />
<path fill="#fefefe" opacity="1.00" d=" M 299.21 487.69 C 305.31 486.81 305.31 494.19 299.21 493.31 L 299.21 487.69 Z" />
<path fill="#fefefe" opacity="1.00" d=" M 344.00 490.00 C 344.50 490.00 345.50 490.00 346.00 490.00 L 346.00 491.00 C 346.25 491.25 346.75 491.75 347.00 492.00 L 348.00 492.00 C 348.00 492.50 348.00 493.50 348.00 494.00 L 347.00 494.00 C 346.75 494.25 346.25 494.75 346.00 495.00 L 346.00 496.00 C 345.25 496.00 343.75 496.00 343.00 496.00 C 343.00 495.50 343.00 494.50 343.00 494.00 L 342.00 494.00 C 342.00 493.50 342.00 492.50 342.00 492.00 L 343.00 492.00 C 343.25 491.75 343.75 491.25 344.00 491.00 L 344.00 490.00 Z" />
</g>
<g id="#193042ff">
<path fill="#193042" opacity="1.00" d=" M 292.47 0.00 L 304.50 0.00 C 404.13 0.83 500.61 56.84 552.38 141.65 C 580.49 186.93 595.85 239.40 597.00 292.61 L 597.00 304.54 C 595.75 397.50 547.66 488.19 471.59 541.59 C 423.00 576.08 364.12 596.31 304.39 597.00 L 292.46 597.00 C 183.95 595.97 79.09 529.75 31.99 432.00 C 11.07 392.87 1.13 348.55 0.00 304.41 L 0.00 292.60 C 1.41 207.39 41.33 123.40 107.48 69.48 C 158.59 25.78 225.37 1.45 292.47 0.00 M 290.30 69.83 C 263.71 102.62 234.35 133.18 207.82 166.07 C 198.55 158.90 190.41 149.84 180.42 143.83 C 144.58 187.60 102.73 226.22 66.08 269.17 C 71.81 267.65 75.60 262.62 80.13 259.15 C 94.00 248.43 106.76 236.39 119.39 224.26 C 123.57 223.66 125.29 230.62 129.64 229.80 C 140.23 217.97 151.51 206.75 162.97 195.76 C 170.06 204.16 174.57 214.32 181.13 223.09 C 200.69 205.89 220.07 188.53 240.02 171.78 C 246.39 180.09 249.80 190.17 255.08 199.15 C 265.85 184.20 275.50 168.15 286.13 153.34 C 291.04 157.17 293.62 165.13 296.37 171.19 C 303.20 167.89 305.16 158.83 311.74 154.87 C 318.76 163.38 324.88 172.62 332.26 180.85 C 339.27 178.03 342.47 168.77 348.25 163.78 C 362.75 178.98 375.08 196.47 388.24 212.90 C 388.83 212.85 390.00 212.75 390.59 212.70 C 394.21 206.84 399.17 201.91 402.36 195.74 C 414.88 205.19 424.08 219.08 437.54 227.11 C 440.05 223.08 441.41 217.04 445.81 215.00 C 450.58 220.56 454.32 226.88 458.21 233.06 C 462.08 234.54 464.83 228.69 468.34 230.61 C 484.32 243.58 499.74 258.03 517.01 269.11 C 516.38 266.66 515.24 264.34 513.28 262.68 C 476.71 222.91 438.73 184.50 403.18 143.81 C 394.02 150.59 386.71 160.65 376.34 165.29 C 350.66 134.22 323.40 104.49 297.09 73.95 C 295.34 71.83 293.21 69.83 290.30 69.83 M 23.00 294.00 C 23.00 294.50 23.00 295.50 23.00 296.00 C 91.19 296.02 159.37 295.95 227.55 296.03 C 227.89 296.34 228.57 296.95 228.91 297.26 C 229.14 340.16 228.95 383.10 228.96 426.01 C 232.36 430.62 236.77 434.82 238.97 440.12 C 238.70 461.42 239.91 482.81 238.14 504.07 C 239.38 504.06 240.62 504.06 241.86 504.07 C 240.01 481.76 241.39 459.32 241.07 436.96 C 238.02 432.45 233.23 428.84 231.11 423.81 C 230.19 384.86 233.03 345.97 231.93 307.00 C 233.27 304.09 229.37 296.74 234.17 296.00 C 277.47 295.22 320.71 297.20 364.00 297.00 C 364.16 308.78 363.52 320.59 364.40 332.36 C 367.49 338.46 372.23 343.53 375.84 349.31 C 376.48 361.83 375.70 374.42 376.05 386.97 C 376.75 387.00 378.16 387.07 378.86 387.10 C 376.81 374.27 380.17 361.28 378.73 348.38 C 373.76 343.51 370.74 337.03 366.19 331.79 C 365.90 320.19 365.98 308.59 366.00 297.00 C 435.34 297.00 504.67 297.00 574.00 297.00 C 574.00 296.25 574.00 294.75 574.00 294.00 C 390.33 294.00 206.67 294.00 23.00 294.00 M 150.00 302.00 C 150.11 319.88 149.69 337.77 150.30 355.65 C 158.67 362.64 165.99 370.93 172.91 379.28 C 172.84 397.50 173.86 415.83 172.03 434.00 C 172.77 434.00 174.25 434.00 174.99 434.00 C 174.91 415.15 175.17 396.30 174.95 377.46 C 168.45 368.41 158.70 361.76 152.21 352.63 C 151.61 335.76 152.20 318.87 152.01 302.00 C 151.51 302.00 150.50 302.00 150.00 302.00 M 266.00 302.00 C 265.61 321.31 267.00 340.70 264.97 359.95 C 266.30 359.96 267.64 359.98 268.98 360.01 C 266.94 340.74 268.45 321.32 268.01 302.00 C 267.51 302.00 266.50 302.00 266.00 302.00 M 324.00 302.00 C 324.11 330.59 323.75 359.19 324.19 387.78 C 327.61 391.10 331.06 394.45 333.94 398.26 C 334.19 415.12 333.98 431.99 333.88 448.85 C 331.09 451.44 328.24 453.96 325.20 456.24 C 324.76 470.48 325.08 484.74 325.00 499.00 C 325.50 499.00 326.50 499.00 327.01 499.00 C 327.01 485.37 326.92 471.75 327.11 458.13 C 329.95 455.61 332.80 453.10 335.81 450.77 C 336.10 432.61 336.17 414.45 335.76 396.30 C 332.24 393.81 329.71 390.26 326.92 387.05 C 327.09 358.70 326.96 330.35 327.00 302.00 C 326.25 302.00 324.75 302.00 324.00 302.00 M 386.00 302.00 C 386.00 325.00 386.00 348.00 385.99 371.00 C 386.49 371.00 387.50 371.00 388.00 371.00 C 388.00 348.00 387.99 325.00 388.01 302.00 C 387.51 302.00 386.50 302.00 386.00 302.00 M 412.07 303.33 C 411.00 325.77 413.74 348.53 410.78 370.81 C 408.64 373.98 412.87 374.23 414.99 373.30 C 411.83 349.54 415.61 325.40 414.87 301.51 C 413.91 302.07 412.97 302.68 412.07 303.33 M 442.16 301.94 C 439.75 304.48 441.56 308.53 441.20 311.49 C 445.54 317.60 447.86 300.70 442.16 301.94 M 550.00 302.00 C 549.98 309.33 549.98 316.66 549.99 324.00 C 550.49 324.00 551.50 324.00 552.00 324.00 C 552.00 316.66 552.00 309.33 552.01 302.00 C 551.51 302.00 550.50 302.00 550.00 302.00 M 84.09 302.94 C 85.82 309.18 84.72 315.69 84.02 322.01 C 84.75 321.99 86.19 321.96 86.92 321.94 C 87.11 315.63 87.55 309.34 87.97 303.05 C 86.68 303.01 85.38 302.97 84.09 302.94 M 178.98 303.01 C 178.97 310.24 179.01 317.48 179.25 324.71 C 187.08 333.54 193.75 343.63 202.85 351.20 C 203.44 389.47 201.06 427.69 202.05 465.98 C 203.33 466.00 204.62 466.03 205.90 466.07 C 203.58 428.02 205.81 389.63 204.96 351.47 C 198.16 341.58 188.95 333.53 182.05 323.68 C 181.76 316.78 182.01 309.89 182.01 303.00 C 181.25 303.00 179.74 303.01 178.98 303.01 M 201.73 303.22 C 203.84 310.41 210.30 315.50 215.68 320.37 C 215.73 319.56 215.84 317.94 215.89 317.13 C 211.56 313.12 205.88 309.45 204.68 303.25 C 203.94 303.24 202.47 303.22 201.73 303.22 M 425.99 302.99 C 425.84 315.08 426.65 327.23 425.13 339.26 C 426.37 339.54 427.61 339.82 428.86 340.07 C 426.93 327.82 428.44 315.33 428.01 303.00 C 427.51 303.00 426.49 302.99 425.99 302.99 M 456.00 303.00 C 456.02 312.26 456.03 321.53 455.83 330.79 C 450.57 336.25 444.33 340.98 440.13 347.29 C 439.50 361.35 440.56 375.48 439.60 389.55 C 434.57 393.95 430.22 399.15 426.04 404.32 C 425.78 419.53 426.09 434.76 426.04 449.98 C 427.33 450.00 428.61 450.02 429.91 450.06 C 427.55 435.06 429.45 419.63 429.24 404.51 C 432.47 399.78 436.32 393.20 442.58 393.09 C 441.59 377.87 441.85 362.60 442.34 347.38 C 447.69 341.65 454.05 336.64 457.90 329.72 C 458.36 320.82 457.88 311.89 458.00 302.99 C 457.50 302.99 456.50 303.00 456.00 303.00 M 108.05 304.02 C 108.34 311.21 107.00 318.43 107.36 325.59 C 112.86 332.11 118.36 338.63 124.06 344.97 C 124.02 353.15 123.75 361.34 124.23 369.52 C 126.89 374.42 131.67 377.77 134.77 382.39 C 135.28 389.24 134.97 396.13 135.03 403.00 C 136.35 402.99 137.68 402.97 139.02 402.96 C 137.35 395.83 138.12 388.44 137.85 381.20 C 132.75 377.82 129.70 372.59 126.31 367.69 C 126.01 359.55 125.97 351.40 125.76 343.27 C 123.78 340.88 121.84 338.49 119.90 336.10 C 120.89 335.67 121.90 335.25 122.90 334.84 C 123.09 326.71 123.07 318.57 122.78 310.45 C 118.97 317.42 122.02 326.43 120.07 334.11 C 119.34 334.04 117.89 333.91 117.16 333.84 C 109.43 325.80 108.51 314.59 111.05 304.05 C 110.30 304.04 108.80 304.02 108.05 304.02 M 335.97 306.18 C 335.96 329.79 336.04 353.39 336.00 377.00 C 336.75 377.00 338.25 377.00 339.00 377.00 C 340.18 352.53 336.72 328.07 338.89 303.67 C 337.97 304.48 335.76 304.59 335.97 306.18 M 484.00 304.00 C 483.99 310.32 484.00 316.64 484.04 322.97 C 485.32 323.01 486.60 323.05 487.89 323.09 C 486.49 316.85 487.15 310.37 486.95 304.05 C 486.21 304.03 484.74 304.01 484.00 304.00 M 535.00 304.00 C 535.00 311.61 534.99 319.22 534.88 326.84 C 528.63 331.95 522.45 337.14 516.15 342.18 C 515.95 350.78 515.97 359.39 516.01 368.00 C 516.76 367.99 518.26 367.98 519.01 367.98 C 517.26 359.91 518.11 351.56 518.31 343.39 C 524.68 338.76 530.32 333.19 536.93 328.86 C 537.01 320.57 537.01 312.29 537.01 304.00 C 536.51 304.00 535.50 304.00 535.00 304.00 M 562.07 303.97 C 563.70 317.23 563.40 330.72 562.03 344.00 C 562.76 344.00 564.24 344.00 564.98 344.00 C 565.01 330.67 565.02 317.34 564.97 304.01 C 564.24 304.00 562.80 303.98 562.07 303.97 M 44.00 305.00 C 43.99 311.33 43.99 317.66 43.99 324.00 C 44.74 324.00 46.25 324.00 47.00 324.00 C 47.01 317.66 47.01 311.33 47.01 305.00 C 46.26 305.00 44.75 305.00 44.00 305.00 M 60.00 305.00 C 59.99 315.00 59.99 325.00 60.00 335.00 C 60.50 335.00 61.50 335.00 62.00 335.00 C 62.01 325.00 62.01 315.00 62.00 305.00 C 61.50 305.00 60.50 305.00 60.00 305.00 M 72.09 304.90 C 72.38 323.94 74.29 343.07 72.13 362.08 C 73.40 362.04 74.67 362.01 75.95 361.98 C 74.29 343.37 74.42 324.46 75.99 305.86 C 74.70 305.51 73.40 305.19 72.09 304.90 M 519.00 309.00 L 519.00 310.00 L 518.00 310.00 C 517.99 311.33 517.99 312.66 518.00 314.00 L 519.00 314.00 L 519.00 315.00 C 519.75 315.00 521.25 315.00 522.00 315.00 C 522.00 314.50 522.00 313.50 522.00 313.00 L 523.00 313.00 C 523.00 312.25 523.00 310.75 523.00 310.00 C 522.50 310.00 521.50 310.00 521.00 310.00 L 521.00 309.00 C 520.50 309.00 519.50 309.00 519.00 309.00 M 252.98 310.04 C 255.43 325.04 253.60 340.45 253.60 355.58 C 241.60 363.41 246.26 378.58 248.91 390.11 C 249.17 423.73 248.91 457.37 248.99 491.00 C 249.49 491.00 250.50 491.00 251.00 491.00 C 251.38 456.53 250.21 422.02 251.62 387.57 C 252.27 381.40 246.22 376.54 247.94 370.13 C 246.58 363.99 252.56 360.84 255.84 356.84 C 256.00 341.22 257.52 325.63 257.00 309.99 C 255.66 310.00 254.32 310.02 252.98 310.04 M 469.00 309.99 C 469.51 334.29 468.35 358.55 467.85 382.83 C 463.26 387.60 458.51 392.24 453.26 396.28 C 453.26 397.05 453.27 398.58 453.27 399.35 C 459.55 395.88 462.89 388.58 469.84 385.80 C 470.19 360.55 470.35 335.25 472.04 310.06 C 471.28 310.04 469.76 310.01 469.00 309.99 M 30.99 310.99 C 30.95 321.37 31.53 331.82 30.02 342.14 C 31.30 342.49 32.58 342.81 33.88 343.09 C 32.06 332.50 33.33 321.67 33.02 310.99 C 32.51 310.99 31.50 310.99 30.99 310.99 M 163.00 311.00 C 163.00 312.66 163.00 314.33 163.00 316.00 C 163.75 316.00 165.25 316.00 166.00 316.00 L 166.00 315.00 L 167.00 315.00 C 167.00 313.66 167.00 312.33 167.00 311.00 C 165.66 311.00 164.33 311.00 163.00 311.00 M 284.00 314.00 C 283.90 332.24 284.25 350.49 283.77 368.73 C 279.29 374.01 274.51 379.03 270.07 384.32 C 269.25 435.53 271.34 486.86 269.03 538.00 C 270.35 537.98 271.68 537.97 273.00 537.96 C 270.58 489.50 272.67 440.68 272.06 392.10 C 270.92 382.10 281.45 377.08 285.96 369.69 C 286.19 351.13 285.89 332.56 286.00 314.00 C 285.50 314.00 284.50 314.00 284.00 314.00 M 312.00 314.00 C 312.04 369.63 311.93 425.26 312.04 480.89 C 310.81 486.42 315.73 489.99 317.86 494.40 C 318.24 507.57 318.42 520.82 316.97 533.94 C 318.30 533.96 319.64 533.98 320.98 534.00 C 319.18 519.84 320.42 505.54 319.76 491.33 C 318.14 488.69 314.97 486.82 314.12 483.80 C 313.48 427.19 314.30 370.59 315.00 314.00 C 314.25 314.00 312.75 314.00 312.00 314.00 M 441.00 314.00 C 441.00 314.75 441.00 316.25 441.00 317.00 C 442.33 317.00 443.66 317.00 445.00 317.00 C 445.00 316.25 445.00 314.75 445.00 314.00 C 443.66 314.00 442.33 314.00 441.00 314.00 M 498.14 315.16 C 501.26 330.70 483.07 336.80 478.10 349.18 C 477.75 364.84 477.99 380.54 478.20 396.21 C 479.46 395.85 480.73 395.49 482.00 395.12 C 479.69 380.02 480.05 364.52 480.24 349.28 C 486.59 337.42 503.65 330.78 500.08 315.16 C 499.59 315.16 498.63 315.16 498.14 315.16 M 135.95 317.92 C 132.79 321.15 134.61 323.30 138.77 323.34 L 139.01 318.04 C 138.25 318.01 136.72 317.95 135.95 317.92 M 398.06 317.99 C 400.13 352.02 398.91 386.33 398.47 420.43 C 389.33 430.60 391.87 444.29 392.00 457.01 C 392.50 457.01 393.50 457.01 394.01 457.01 C 394.00 449.17 393.72 441.32 394.37 433.52 C 396.63 426.54 402.25 420.59 401.90 412.84 C 402.16 381.23 401.94 349.62 401.97 318.01 C 400.66 318.00 399.36 317.99 398.06 317.99 M 519.00 321.00 L 519.00 322.00 C 518.75 322.25 518.25 322.75 518.00 323.00 L 517.00 323.00 C 517.00 323.50 517.00 324.50 517.00 325.00 L 518.00 325.00 L 518.00 326.00 C 519.33 326.00 520.66 326.00 522.00 326.00 C 521.99 324.66 521.99 323.33 522.00 322.00 L 521.00 322.00 L 521.00 321.00 C 520.50 321.00 519.50 321.00 519.00 321.00 M 90.00 326.00 L 90.00 327.00 C 89.50 327.00 88.50 327.00 88.00 327.00 C 88.00 327.75 88.00 329.25 88.00 330.00 C 88.50 330.00 89.50 330.00 90.00 330.00 L 90.00 331.00 C 90.50 331.00 91.50 331.00 92.00 331.00 L 92.00 330.00 L 93.00 330.00 C 93.00 329.25 93.00 327.75 93.00 327.00 L 92.00 327.00 L 92.00 326.00 C 91.50 326.00 90.50 326.00 90.00 326.00 M 206.00 327.00 C 206.00 327.75 206.00 329.25 206.00 330.00 C 206.75 330.00 208.25 330.00 209.00 330.00 C 209.00 329.25 209.00 327.75 209.00 327.00 C 208.25 327.00 206.75 327.00 206.00 327.00 M 297.95 326.92 C 294.79 330.15 296.61 332.30 300.77 332.34 L 301.01 327.04 C 300.25 327.01 298.72 326.95 297.95 326.92 M 349.00 326.99 C 349.04 341.56 348.79 356.14 349.26 370.71 C 354.16 373.17 359.46 374.49 364.91 375.12 C 364.95 379.06 364.99 383.01 365.01 386.97 C 365.52 386.98 366.52 386.98 367.03 386.98 C 367.00 382.39 366.92 377.77 366.85 373.20 C 361.52 372.09 356.34 370.43 351.15 368.81 C 350.96 354.89 350.39 340.91 352.04 327.06 C 351.28 327.04 349.76 327.01 349.00 326.99 M 137.79 336.31 L 137.79 330.69 C 131.69 329.81 131.69 337.19 137.79 336.31 M 178.66 334.53 C 179.16 353.69 180.56 372.82 179.99 392.00 C 180.49 392.00 181.50 392.00 182.00 392.00 C 181.92 371.56 182.19 351.12 181.83 330.69 C 179.11 331.04 174.85 331.81 178.66 334.53 M 48.00 332.00 L 48.00 333.00 L 47.00 333.00 C 47.00 334.33 47.00 335.66 47.00 337.00 C 48.33 337.00 49.67 337.00 51.00 337.00 L 51.00 336.00 L 52.00 336.00 C 52.00 335.25 52.00 333.75 52.00 333.00 L 51.00 333.00 L 51.00 332.00 C 50.25 332.00 48.75 332.00 48.00 332.00 M 436.65 332.06 C 436.54 335.72 440.45 337.62 442.96 334.81 C 444.63 331.28 437.34 332.63 436.65 332.06 M 83.69 335.21 C 82.81 341.31 90.19 341.31 89.31 335.21 L 83.69 335.21 M 241.00 338.00 C 241.00 338.50 241.00 339.50 241.00 340.00 L 240.00 340.00 C 240.00 340.50 240.00 341.50 240.00 342.00 L 241.00 342.00 L 241.00 343.00 C 241.75 343.00 243.25 343.00 244.00 343.00 L 244.00 342.00 L 245.00 342.00 C 245.00 341.25 245.00 339.75 245.00 339.00 L 244.00 339.00 L 244.00 338.00 C 243.25 338.00 241.75 338.00 241.00 338.00 M 544.00 338.00 L 544.00 339.00 C 542.86 339.19 542.19 339.86 542.00 341.00 L 543.00 341.00 C 543.00 341.50 543.00 342.50 543.00 343.00 L 544.00 343.00 L 544.00 344.00 C 544.75 344.00 546.25 344.00 547.00 344.00 L 547.00 343.00 L 548.00 343.00 C 548.00 342.25 548.00 340.75 548.00 340.00 L 547.00 340.00 C 547.00 339.50 547.00 338.50 547.00 338.00 C 546.25 338.00 544.75 338.00 544.00 338.00 M 100.04 348.08 C 99.63 364.07 100.85 380.13 99.15 396.07 C 100.39 396.05 101.63 396.04 102.87 396.04 C 100.51 380.90 102.69 365.39 102.11 350.14 C 105.88 346.40 111.17 344.37 114.26 339.98 C 108.45 337.44 105.53 347.14 100.04 348.08 M 503.00 343.00 L 503.00 344.00 C 502.75 344.25 502.25 344.75 502.00 345.00 L 501.00 345.00 C 501.00 345.50 501.00 346.50 501.00 347.00 L 502.00 347.00 C 502.00 347.50 502.00 348.50 502.00 349.00 C 502.75 349.00 504.25 349.00 505.00 349.00 C 505.00 348.50 505.00 347.50 505.00 347.00 L 506.00 347.00 C 506.00 346.25 506.00 344.75 506.00 344.00 L 505.00 344.00 L 505.00 343.00 C 504.50 343.00 503.50 343.00 503.00 343.00 M 52.00 351.00 L 51.00 351.00 C 51.00 351.75 51.00 353.25 51.00 354.00 C 51.50 354.00 52.50 354.00 53.00 354.00 L 53.00 355.00 C 53.50 355.00 54.50 355.00 55.00 355.00 L 55.00 354.00 L 56.00 354.00 C 56.00 352.66 56.00 351.33 56.00 350.00 C 55.50 350.00 54.50 350.00 54.00 350.00 L 54.00 349.00 C 52.86 349.19 52.20 349.86 52.00 351.00 M 86.00 350.00 L 86.00 351.00 L 85.00 351.00 C 85.00 351.75 85.00 353.25 85.00 354.00 L 86.00 354.00 L 86.00 355.00 C 86.75 355.00 88.25 355.00 89.00 355.00 L 89.00 354.00 L 90.00 354.00 C 90.00 352.66 90.00 351.33 90.00 350.00 C 88.67 350.00 87.33 350.00 86.00 350.00 M 214.00 350.00 L 214.00 351.00 L 213.00 351.00 C 213.00 351.75 213.00 353.25 213.00 354.00 L 214.00 354.00 L 214.00 355.00 C 214.75 355.00 216.25 355.00 217.00 355.00 L 217.00 354.00 L 218.00 354.00 C 218.00 353.25 218.00 351.75 218.00 351.00 L 217.00 351.00 L 217.00 350.00 C 216.25 350.00 214.75 350.00 214.00 350.00 M 297.00 350.00 L 297.00 351.00 L 296.00 351.00 C 296.00 351.75 296.00 353.25 296.00 354.00 L 297.00 354.00 L 297.00 355.00 C 297.75 355.00 299.25 355.00 300.00 355.00 L 300.00 354.00 L 301.00 354.00 C 301.00 353.25 301.00 351.75 301.00 351.00 L 300.00 351.00 L 300.00 350.00 C 299.25 350.00 297.75 350.00 297.00 350.00 M 360.00 352.00 L 360.00 353.00 L 359.00 353.00 C 359.00 354.33 359.00 355.66 359.00 357.00 L 360.00 357.00 L 360.00 358.00 C 360.50 358.00 361.50 358.00 362.00 358.00 L 362.00 357.00 C 362.50 357.00 363.50 357.00 364.00 357.00 C 364.00 355.66 364.00 354.33 364.00 353.00 L 363.00 353.00 L 363.00 352.00 C 362.25 352.00 360.75 352.00 360.00 352.00 M 112.00 354.00 C 112.00 354.75 112.00 356.25 112.00 357.00 L 113.00 357.00 L 113.00 358.00 C 113.50 358.00 114.50 358.00 115.00 358.00 L 115.00 357.00 L 116.00 357.00 C 116.00 356.25 116.00 354.75 116.00 354.00 C 114.67 354.00 113.33 354.00 112.00 354.00 M 429.79 359.31 L 429.79 353.69 C 423.69 352.81 423.69 360.19 429.79 359.31 M 190.00 355.00 L 190.00 356.00 L 189.00 356.00 C 189.00 356.50 189.00 357.50 189.00 358.00 C 190.33 358.00 191.66 358.00 193.00 358.00 C 193.00 357.25 193.00 355.75 193.00 355.00 C 192.25 355.00 190.75 355.00 190.00 355.00 M 503.00 355.00 L 503.00 356.00 L 502.00 356.00 C 502.00 356.75 502.00 358.25 502.00 359.00 L 503.00 359.00 L 503.00 360.00 C 503.75 360.00 505.25 360.00 506.00 360.00 L 506.00 359.00 L 507.00 359.00 C 506.99 357.66 506.99 356.33 507.00 355.00 C 505.66 355.00 504.33 355.00 503.00 355.00 M 456.00 357.00 L 456.00 358.00 L 455.00 358.00 C 454.99 359.33 454.99 360.66 455.00 362.00 C 456.33 362.00 457.66 362.00 459.00 362.00 L 459.00 361.00 L 460.00 361.00 C 460.00 360.25 460.00 358.75 460.00 358.00 L 459.00 358.00 L 459.00 357.00 C 458.25 357.00 456.75 357.00 456.00 357.00 M 490.00 357.00 C 489.99 358.33 489.99 359.66 490.00 361.00 C 490.75 361.00 492.25 361.00 493.00 361.00 L 493.00 360.00 L 494.00 360.00 C 494.00 359.50 494.00 358.50 494.00 358.00 L 493.00 358.00 L 493.00 357.00 C 492.25 357.00 490.75 357.00 490.00 357.00 M 150.00 365.00 L 150.00 366.00 L 149.00 366.00 C 149.00 366.75 149.00 368.25 149.00 369.00 L 150.00 369.00 L 150.00 370.00 C 150.75 370.00 152.25 370.00 153.00 370.00 L 153.00 369.00 L 154.00 369.00 C 154.00 367.66 154.00 366.33 154.00 365.00 C 152.66 365.00 151.33 365.00 150.00 365.00 M 294.00 365.00 L 294.00 366.00 C 293.50 366.00 292.50 366.00 292.00 366.00 C 292.00 367.33 292.00 368.66 292.00 370.00 C 293.33 370.00 294.66 370.00 296.00 370.00 L 296.00 369.00 L 297.00 369.00 C 297.00 368.25 297.00 366.75 297.00 366.00 L 296.00 366.00 L 296.00 365.00 C 295.50 365.00 294.50 365.00 294.00 365.00 M 115.00 370.00 L 115.00 371.00 L 114.00 371.00 C 114.00 372.33 114.00 373.66 114.00 375.00 C 115.33 375.00 116.67 375.00 118.00 375.00 L 118.00 374.00 L 119.00 374.00 C 119.00 373.25 119.00 371.75 119.00 371.00 L 118.00 371.00 L 118.00 370.00 C 117.25 370.00 115.75 370.00 115.00 370.00 M 219.00 370.00 C 219.00 370.50 219.00 371.50 219.00 372.00 L 218.00 372.00 C 218.19 373.13 218.86 373.80 220.00 374.00 L 220.00 375.00 C 220.75 375.00 222.25 375.00 223.00 375.00 L 223.00 374.00 L 224.00 374.00 C 224.00 373.25 224.00 371.75 224.00 371.00 L 223.00 371.00 L 223.00 370.00 C 221.66 370.00 220.33 370.00 219.00 370.00 M 510.00 371.00 L 510.00 372.00 L 509.00 372.00 C 508.99 373.33 508.99 374.66 509.00 376.00 L 510.00 376.00 L 510.00 377.00 C 510.75 377.00 512.25 377.00 513.00 377.00 L 513.00 376.00 L 514.00 376.00 C 513.99 374.66 513.99 373.33 514.00 372.00 L 513.00 372.00 L 513.00 371.00 C 512.25 371.00 510.75 371.00 510.00 371.00 M 423.15 375.12 C 419.76 379.69 416.00 384.05 411.27 387.29 C 411.27 388.06 411.27 389.58 411.27 390.35 C 416.99 387.34 420.16 381.05 425.68 377.65 C 425.77 377.00 425.93 375.70 426.01 375.06 C 425.30 375.07 423.87 375.10 423.15 375.12 M 433.00 381.00 L 433.00 382.00 L 432.00 382.00 C 432.00 382.75 432.00 384.25 432.00 385.00 L 433.00 385.00 L 433.00 386.00 C 433.75 386.00 435.25 386.00 436.00 386.00 C 435.99 384.33 435.99 382.66 436.00 381.00 C 435.25 381.00 433.75 381.00 433.00 381.00 M 142.00 382.00 C 141.99 394.66 141.99 407.33 142.00 420.00 C 142.75 420.00 144.25 420.00 145.00 420.00 C 145.01 407.33 145.00 394.66 145.00 382.00 C 144.25 382.00 142.75 382.00 142.00 382.00 M 151.00 382.00 C 151.00 382.75 151.00 384.25 151.00 385.00 C 151.75 385.00 153.25 385.00 154.00 385.00 C 154.00 384.25 154.00 382.75 154.00 382.00 C 153.25 382.00 151.75 382.00 151.00 382.00 M 220.00 386.00 L 220.00 387.00 L 219.00 387.00 C 219.00 387.75 219.00 389.25 219.00 390.00 L 220.00 390.00 L 220.00 391.00 C 220.75 391.00 222.25 391.00 223.00 391.00 L 223.00 390.00 L 224.00 390.00 C 224.00 389.25 224.00 387.75 224.00 387.00 L 223.00 387.00 L 223.00 386.00 C 222.25 386.00 220.75 386.00 220.00 386.00 M 298.99 388.00 C 298.60 405.94 300.77 423.84 299.87 441.79 C 294.59 446.87 288.24 451.23 284.10 457.28 C 283.56 489.13 284.87 521.04 282.99 552.85 C 279.50 556.56 286.51 562.21 286.97 556.78 C 285.35 524.08 285.98 491.25 286.21 458.51 C 290.01 452.01 297.65 449.07 301.91 442.87 C 302.09 424.58 301.97 406.29 302.01 388.00 C 301.25 388.00 299.74 388.00 298.99 388.00 M 342.95 388.03 C 343.38 407.35 344.54 426.65 343.99 446.00 C 344.49 446.00 345.50 446.00 346.00 446.00 C 346.00 426.66 345.99 407.33 346.01 387.99 C 345.25 388.00 343.72 388.02 342.95 388.03 M 283.00 398.00 L 283.00 399.00 L 282.00 399.00 C 282.00 399.75 282.00 401.25 282.00 402.00 L 283.00 402.00 C 283.00 402.50 283.00 403.50 283.00 404.00 C 283.75 404.00 285.25 404.00 286.00 404.00 L 286.00 403.00 L 287.00 403.00 C 287.00 402.25 287.00 400.75 287.00 400.00 L 286.00 400.00 C 286.00 399.50 286.00 398.50 286.00 398.00 C 285.25 398.00 283.75 398.00 283.00 398.00 M 152.00 400.00 L 152.00 401.00 L 151.00 401.00 C 151.00 401.50 151.00 402.50 151.00 403.00 L 152.00 403.00 L 152.00 404.00 C 152.75 404.00 154.25 404.00 155.00 404.00 L 155.00 403.00 L 156.00 403.00 C 156.00 402.50 156.00 401.50 156.00 401.00 L 155.00 401.00 L 155.00 400.00 C 154.25 400.00 152.75 400.00 152.00 400.00 M 189.00 406.00 L 189.00 407.00 L 188.00 407.00 C 188.00 407.75 188.00 409.25 188.00 410.00 L 189.00 410.00 L 189.00 411.00 C 190.33 410.99 191.66 410.99 193.00 411.00 C 193.00 409.66 193.00 408.33 193.00 407.00 L 192.00 407.00 L 192.00 406.00 C 191.25 406.00 189.75 406.00 189.00 406.00 M 372.09 417.49 C 370.27 424.73 379.01 428.21 380.98 434.13 C 381.22 446.40 380.85 458.69 381.04 470.98 C 381.76 471.00 383.19 471.04 383.90 471.06 C 381.47 457.62 383.88 443.77 382.82 430.21 C 380.03 427.56 377.00 425.01 374.98 421.71 C 373.78 415.55 380.52 412.49 381.00 406.87 C 376.67 408.93 374.78 413.84 372.09 417.49 M 410.00 412.00 L 410.00 413.00 L 409.00 413.00 C 409.00 413.50 409.00 414.50 409.00 415.00 L 410.00 415.00 C 410.25 415.25 410.75 415.75 411.00 416.00 L 411.00 417.00 C 411.50 417.00 412.50 417.00 413.00 417.00 L 413.00 416.00 L 414.00 416.00 C 413.99 414.66 413.99 413.33 414.00 412.00 C 412.66 411.99 411.33 411.99 410.00 412.00 M 440.00 415.00 C 440.00 415.75 440.00 417.25 440.00 418.00 L 441.00 418.00 L 441.00 419.00 C 441.50 419.00 442.50 419.00 443.00 419.00 L 443.00 418.00 L 444.00 418.00 C 444.00 417.25 444.00 415.75 444.00 415.00 C 442.66 414.99 441.33 414.99 440.00 415.00 M 452.00 416.00 L 452.00 417.00 L 451.00 417.00 C 451.00 417.75 451.00 419.25 451.00 420.00 L 452.00 420.00 L 452.00 421.00 C 452.75 421.00 454.25 421.00 455.00 421.00 L 455.00 420.00 L 456.00 420.00 C 455.99 418.66 455.99 417.33 456.00 416.00 C 454.66 415.99 453.33 415.99 452.00 416.00 M 284.00 420.00 L 284.00 421.00 L 283.00 421.00 C 283.00 422.33 283.00 423.66 283.00 425.00 L 284.00 425.00 L 284.00 426.00 C 284.50 426.00 285.50 426.00 286.00 426.00 L 286.00 425.00 C 286.25 424.75 286.75 424.25 287.00 424.00 L 288.00 424.00 C 288.00 423.50 288.00 422.50 288.00 422.00 L 287.00 422.00 C 286.75 421.75 286.25 421.25 286.00 421.00 L 286.00 420.00 C 285.50 420.00 284.50 420.00 284.00 420.00 M 364.01 426.15 C 363.92 449.43 364.03 472.72 364.02 496.01 C 364.77 495.99 366.27 495.97 367.02 495.95 C 364.70 471.35 366.02 446.30 366.79 421.60 C 365.22 422.58 363.73 424.14 364.01 426.15 M 216.00 423.00 L 216.00 424.00 L 215.00 424.00 C 215.00 424.50 215.00 425.50 215.00 426.00 L 216.00 426.00 C 216.25 426.25 216.75 426.75 217.00 427.00 L 217.00 428.00 C 217.75 428.00 219.25 428.00 220.00 428.00 C 220.00 427.50 220.00 426.50 220.00 426.00 L 221.00 426.00 C 221.00 425.50 221.00 424.50 221.00 424.00 L 220.00 424.00 L 220.00 423.00 C 218.66 422.99 217.33 422.99 216.00 423.00 M 187.74 428.20 C 187.68 431.13 190.11 432.50 192.79 432.26 L 192.91 426.76 C 191.18 427.21 189.46 427.70 187.74 428.20 M 412.00 428.00 C 412.00 428.75 412.00 430.25 412.00 431.00 L 413.00 431.00 L 413.00 432.00 C 413.50 432.00 414.50 432.00 415.00 432.00 L 415.00 431.00 L 416.00 431.00 C 416.00 430.50 416.00 429.50 416.00 429.00 L 415.00 429.00 L 415.00 428.00 C 414.25 428.00 412.75 428.00 412.00 428.00 M 165.00 435.00 L 165.00 436.00 L 164.00 436.00 C 164.00 436.75 164.00 438.25 164.00 439.00 C 165.66 438.99 167.33 438.99 169.00 439.00 C 169.00 438.25 169.00 436.75 169.00 436.00 L 168.00 436.00 L 168.00 435.00 C 167.25 435.00 165.75 435.00 165.00 435.00 M 186.00 449.00 C 186.00 449.75 186.00 451.25 186.00 452.00 C 187.33 451.99 188.66 451.99 190.00 452.00 C 190.00 451.25 190.00 449.75 190.00 449.00 C 188.66 448.99 187.33 448.99 186.00 449.00 M 354.00 450.00 C 354.00 451.33 354.00 452.66 354.00 454.00 L 355.00 454.00 L 355.00 455.00 C 355.75 455.00 357.25 455.00 358.00 455.00 C 358.00 453.33 358.00 451.66 358.00 450.00 C 356.66 449.99 355.33 449.99 354.00 450.00 M 397.00 453.00 L 397.00 454.00 L 396.00 454.00 C 396.00 454.50 396.00 455.50 396.00 456.00 L 397.00 456.00 L 397.00 457.00 C 397.75 457.00 399.25 457.00 400.00 457.00 C 400.00 456.25 400.00 454.75 400.00 454.00 L 399.00 454.00 L 399.00 453.00 C 398.50 453.00 397.50 453.00 397.00 453.00 M 220.00 458.00 L 220.00 459.00 L 219.00 459.00 C 219.00 459.75 219.00 461.25 219.00 462.00 L 220.00 462.00 L 220.00 463.00 C 220.75 463.00 222.25 463.00 223.00 463.00 C 223.00 462.50 223.00 461.50 223.00 461.00 L 224.00 461.00 C 224.00 460.50 224.00 459.50 224.00 459.00 L 223.00 459.00 L 223.00 458.00 C 222.25 458.00 220.75 458.00 220.00 458.00 M 342.00 462.00 L 342.00 463.00 L 341.00 463.00 C 341.00 464.33 341.00 465.66 341.00 467.00 C 342.33 466.99 343.66 466.99 345.00 467.00 L 345.00 466.00 L 346.00 466.00 C 346.00 465.50 346.00 464.50 346.00 464.00 L 345.00 464.00 C 344.75 463.75 344.25 463.25 344.00 463.00 L 344.00 462.00 C 343.50 462.00 342.50 462.00 342.00 462.00 M 354.00 474.00 L 354.00 475.00 C 353.75 475.25 353.25 475.75 353.00 476.00 L 352.00 476.00 C 352.00 476.50 352.00 477.50 352.00 478.00 L 353.00 478.00 C 353.00 478.50 353.00 479.50 353.00 480.00 C 353.75 480.00 355.25 480.00 356.00 480.00 L 356.00 479.00 L 357.00 479.00 C 357.00 477.66 357.00 476.33 357.00 475.00 L 356.00 475.00 L 356.00 474.00 C 355.50 474.00 354.50 474.00 354.00 474.00 M 299.21 487.69 L 299.21 493.31 C 305.31 494.19 305.31 486.81 299.21 487.69 M 344.00 490.00 L 344.00 491.00 C 343.75 491.25 343.25 491.75 343.00 492.00 L 342.00 492.00 C 342.00 492.50 342.00 493.50 342.00 494.00 L 343.00 494.00 C 343.00 494.50 343.00 495.50 343.00 496.00 C 343.75 496.00 345.25 496.00 346.00 496.00 L 346.00 495.00 C 346.25 494.75 346.75 494.25 347.00 494.00 L 348.00 494.00 C 348.00 493.50 348.00 492.50 348.00 492.00 L 347.00 492.00 C 346.75 491.75 346.25 491.25 346.00 491.00 L 346.00 490.00 C 345.50 490.00 344.50 490.00 344.00 490.00 Z" />
</g>
</svg>
